<mxfile host="app.diagrams.net" modified="2024-05-09T23:11:53.246Z" agent="Mozilla/5.0 (Windows NT 10.0; Win64; x64) AppleWebKit/537.36 (KHTML, like Gecko) Chrome/124.0.0.0 Safari/537.36 Edg/124.0.0.0" etag="gDOzncWB5zoG9sMBme4y" version="24.3.1" type="google" pages="6">
  <diagram id="EWuTfzCTvNTBoMgQGnR0" name="User Request Handler Service">
    <mxGraphModel grid="1" page="1" gridSize="10" guides="1" tooltips="1" connect="1" arrows="1" fold="1" pageScale="1" pageWidth="1700" pageHeight="1100" math="0" shadow="0">
      <root>
        <mxCell id="0" />
        <mxCell id="1" parent="0" />
        <mxCell id="6jGRG5xVk0-MdvWUTpN9-2" style="edgeStyle=orthogonalEdgeStyle;rounded=0;orthogonalLoop=1;jettySize=auto;html=1;entryX=0;entryY=0.5;entryDx=0;entryDy=0;" edge="1" parent="1" source="pcVEJ_2KYZZPNBNcvhX0-1" target="bhMTvr_Aj93cu6HdfYMm-1">
          <mxGeometry relative="1" as="geometry" />
        </mxCell>
        <mxCell id="pcVEJ_2KYZZPNBNcvhX0-1" value="&lt;font style=&quot;font-size: 12px;&quot;&gt;Start&lt;/font&gt;" style="ellipse;whiteSpace=wrap;html=1;aspect=fixed;fillColor=#d5e8d4;strokeColor=#82b366;" vertex="1" parent="1">
          <mxGeometry x="30.000000000000004" y="590.63" width="60" height="60" as="geometry" />
        </mxCell>
        <mxCell id="6jGRG5xVk0-MdvWUTpN9-3" style="edgeStyle=orthogonalEdgeStyle;rounded=0;orthogonalLoop=1;jettySize=auto;html=1;" edge="1" parent="1" target="W7BSdNzmuTThsY47dovM-1">
          <mxGeometry relative="1" as="geometry">
            <mxPoint x="390.00000000000006" y="620.63" as="targetPoint" />
            <mxPoint x="370.00000000000006" y="620.6300000000002" as="sourcePoint" />
          </mxGeometry>
        </mxCell>
        <mxCell id="EF0TS_Ud0Vw7cErI-Ymh-4" value="" style="edgeStyle=orthogonalEdgeStyle;rounded=0;orthogonalLoop=1;jettySize=auto;html=1;" edge="1" parent="1" source="bhMTvr_Aj93cu6HdfYMm-1" target="EF0TS_Ud0Vw7cErI-Ymh-1">
          <mxGeometry relative="1" as="geometry" />
        </mxCell>
        <mxCell id="bhMTvr_Aj93cu6HdfYMm-1" value="Process User Request API" style="shape=process;whiteSpace=wrap;html=1;backgroundOutline=1;" vertex="1" parent="1">
          <mxGeometry x="120" y="573.13" width="90" height="95" as="geometry" />
        </mxCell>
        <mxCell id="6jGRG5xVk0-MdvWUTpN9-7" style="edgeStyle=orthogonalEdgeStyle;rounded=0;orthogonalLoop=1;jettySize=auto;html=1;entryX=0;entryY=0.5;entryDx=0;entryDy=0;exitX=0.5;exitY=0;exitDx=0;exitDy=0;" edge="1" parent="1" source="W7BSdNzmuTThsY47dovM-1">
          <mxGeometry relative="1" as="geometry">
            <mxPoint x="520.0000000000001" y="530.63" as="targetPoint" />
            <Array as="points">
              <mxPoint x="460.00000000000006" y="530.63" />
            </Array>
          </mxGeometry>
        </mxCell>
        <mxCell id="6jGRG5xVk0-MdvWUTpN9-21" value="YES" style="edgeLabel;html=1;align=center;verticalAlign=middle;resizable=0;points=[];" connectable="0" vertex="1" parent="6jGRG5xVk0-MdvWUTpN9-7">
          <mxGeometry x="0.2912" y="-1" relative="1" as="geometry">
            <mxPoint as="offset" />
          </mxGeometry>
        </mxCell>
        <mxCell id="6jGRG5xVk0-MdvWUTpN9-25" style="edgeStyle=orthogonalEdgeStyle;rounded=0;orthogonalLoop=1;jettySize=auto;html=1;entryX=0;entryY=0.5;entryDx=0;entryDy=0;exitX=0.5;exitY=1;exitDx=0;exitDy=0;" edge="1" parent="1" source="W7BSdNzmuTThsY47dovM-1" target="6jGRG5xVk0-MdvWUTpN9-22">
          <mxGeometry relative="1" as="geometry" />
        </mxCell>
        <mxCell id="6jGRG5xVk0-MdvWUTpN9-26" value="NO" style="edgeLabel;html=1;align=center;verticalAlign=middle;resizable=0;points=[];" connectable="0" vertex="1" parent="6jGRG5xVk0-MdvWUTpN9-25">
          <mxGeometry x="0.1889" y="-1" relative="1" as="geometry">
            <mxPoint as="offset" />
          </mxGeometry>
        </mxCell>
        <mxCell id="W7BSdNzmuTThsY47dovM-1" value="Is new request?" style="rhombus;whiteSpace=wrap;html=1;" vertex="1" parent="1">
          <mxGeometry x="400.00000000000006" y="574.38" width="120" height="92.5" as="geometry" />
        </mxCell>
        <mxCell id="xoyJGo1EwBkPK-KZI3Pr-72" value="" style="edgeStyle=orthogonalEdgeStyle;rounded=0;orthogonalLoop=1;jettySize=auto;html=1;" edge="1" parent="1" source="vZWiHXsYPsMk3cxd0MSJ-4" target="xoyJGo1EwBkPK-KZI3Pr-71">
          <mxGeometry relative="1" as="geometry" />
        </mxCell>
        <mxCell id="vZWiHXsYPsMk3cxd0MSJ-4" value="&lt;b style=&quot;font-size: 15px;&quot;&gt;&lt;font style=&quot;font-size: 15px;&quot;&gt;Flow (Below)&lt;/font&gt;&lt;/b&gt;&lt;div style=&quot;font-size: 15px;&quot;&gt;&lt;b style=&quot;&quot;&gt;&lt;font style=&quot;font-size: 15px;&quot;&gt;Find Matching Volunteer&lt;/font&gt;&lt;/b&gt;&lt;div style=&quot;&quot;&gt;&lt;b style=&quot;&quot;&gt;&lt;font style=&quot;font-size: 15px;&quot;&gt;Volunteer/Requester Handshake&lt;/font&gt;&lt;/b&gt;&lt;/div&gt;&lt;/div&gt;" style="shape=process;whiteSpace=wrap;html=1;backgroundOutline=0;fillColor=none;strokeColor=#000000;dashed=1;dashPattern=12 12;" vertex="1" parent="1">
          <mxGeometry x="879.9999999999999" y="485.63" width="300" height="100" as="geometry" />
        </mxCell>
        <mxCell id="6jGRG5xVk0-MdvWUTpN9-27" value="" style="edgeStyle=orthogonalEdgeStyle;rounded=0;orthogonalLoop=1;jettySize=auto;html=1;" edge="1" parent="1" source="6jGRG5xVk0-MdvWUTpN9-22" target="6jGRG5xVk0-MdvWUTpN9-23">
          <mxGeometry relative="1" as="geometry" />
        </mxCell>
        <mxCell id="6jGRG5xVk0-MdvWUTpN9-22" value="Update User Request Status in DB" style="shape=process;whiteSpace=wrap;html=1;backgroundOutline=1;" vertex="1" parent="1">
          <mxGeometry x="530" y="670.63" width="90" height="90" as="geometry" />
        </mxCell>
        <mxCell id="1r_QjUdkCwLEwCKq5LAU-14" value="" style="edgeStyle=orthogonalEdgeStyle;rounded=0;orthogonalLoop=1;jettySize=auto;html=1;entryX=0;entryY=0.5;entryDx=0;entryDy=0;entryPerimeter=0;" edge="1" parent="1" source="6jGRG5xVk0-MdvWUTpN9-23" target="1r_QjUdkCwLEwCKq5LAU-10">
          <mxGeometry relative="1" as="geometry">
            <mxPoint x="874.9999999999998" y="716.88" as="targetPoint" />
          </mxGeometry>
        </mxCell>
        <mxCell id="1r_QjUdkCwLEwCKq5LAU-15" value="YES" style="edgeLabel;html=1;align=center;verticalAlign=middle;resizable=0;points=[];" connectable="0" vertex="1" parent="1r_QjUdkCwLEwCKq5LAU-14">
          <mxGeometry x="-0.084" y="-1" relative="1" as="geometry">
            <mxPoint as="offset" />
          </mxGeometry>
        </mxCell>
        <mxCell id="FGqIPtcRsSp7028rL_cK-29" style="edgeStyle=orthogonalEdgeStyle;rounded=0;orthogonalLoop=1;jettySize=auto;html=1;exitX=0.5;exitY=1;exitDx=0;exitDy=0;" edge="1" parent="1" source="6jGRG5xVk0-MdvWUTpN9-23" target="6jGRG5xVk0-MdvWUTpN9-24">
          <mxGeometry relative="1" as="geometry" />
        </mxCell>
        <mxCell id="FGqIPtcRsSp7028rL_cK-30" value="NO" style="edgeLabel;html=1;align=center;verticalAlign=middle;resizable=0;points=[];" connectable="0" vertex="1" parent="FGqIPtcRsSp7028rL_cK-29">
          <mxGeometry x="0.216" y="-2" relative="1" as="geometry">
            <mxPoint as="offset" />
          </mxGeometry>
        </mxCell>
        <mxCell id="6jGRG5xVk0-MdvWUTpN9-23" value="User Request Update Successful?" style="rhombus;whiteSpace=wrap;html=1;" vertex="1" parent="1">
          <mxGeometry x="660" y="666.88" width="130" height="100" as="geometry" />
        </mxCell>
        <mxCell id="6jGRG5xVk0-MdvWUTpN9-33" style="edgeStyle=orthogonalEdgeStyle;rounded=0;orthogonalLoop=1;jettySize=auto;html=1;entryX=0.5;entryY=1;entryDx=0;entryDy=0;entryPerimeter=0;" edge="1" parent="1" target="1r_QjUdkCwLEwCKq5LAU-10">
          <mxGeometry relative="1" as="geometry">
            <mxPoint x="1019.9999999999997" y="746.88" as="targetPoint" />
            <mxPoint x="940" y="786.88" as="sourcePoint" />
          </mxGeometry>
        </mxCell>
        <mxCell id="6jGRG5xVk0-MdvWUTpN9-24" value="Error Message:??" style="shape=process;whiteSpace=wrap;html=1;backgroundOutline=1;" vertex="1" parent="1">
          <mxGeometry x="810" y="760.63" width="130" height="60" as="geometry" />
        </mxCell>
        <mxCell id="EF0TS_Ud0Vw7cErI-Ymh-2" value="" style="edgeStyle=orthogonalEdgeStyle;rounded=0;orthogonalLoop=1;jettySize=auto;html=1;" edge="1" parent="1" source="EF0TS_Ud0Vw7cErI-Ymh-1" target="W7BSdNzmuTThsY47dovM-1">
          <mxGeometry relative="1" as="geometry" />
        </mxCell>
        <mxCell id="EF0TS_Ud0Vw7cErI-Ymh-3" value="YES" style="edgeLabel;html=1;align=center;verticalAlign=middle;resizable=0;points=[];" connectable="0" vertex="1" parent="EF0TS_Ud0Vw7cErI-Ymh-2">
          <mxGeometry x="-0.3904" y="1" relative="1" as="geometry">
            <mxPoint x="1" as="offset" />
          </mxGeometry>
        </mxCell>
        <mxCell id="EF0TS_Ud0Vw7cErI-Ymh-9" value="" style="edgeStyle=orthogonalEdgeStyle;rounded=0;orthogonalLoop=1;jettySize=auto;html=1;" edge="1" parent="1" source="EF0TS_Ud0Vw7cErI-Ymh-1" target="EF0TS_Ud0Vw7cErI-Ymh-6">
          <mxGeometry relative="1" as="geometry" />
        </mxCell>
        <mxCell id="EF0TS_Ud0Vw7cErI-Ymh-10" value="NO" style="edgeLabel;html=1;align=center;verticalAlign=middle;resizable=0;points=[];" connectable="0" vertex="1" parent="EF0TS_Ud0Vw7cErI-Ymh-9">
          <mxGeometry x="0.1479" y="1" relative="1" as="geometry">
            <mxPoint as="offset" />
          </mxGeometry>
        </mxCell>
        <mxCell id="EF0TS_Ud0Vw7cErI-Ymh-1" value="Is valid request?" style="rhombus;whiteSpace=wrap;html=1;" vertex="1" parent="1">
          <mxGeometry x="230" y="574.38" width="120" height="92.5" as="geometry" />
        </mxCell>
        <mxCell id="EF0TS_Ud0Vw7cErI-Ymh-7" value="" style="edgeStyle=orthogonalEdgeStyle;rounded=0;orthogonalLoop=1;jettySize=auto;html=1;" edge="1" parent="1" source="EF0TS_Ud0Vw7cErI-Ymh-6">
          <mxGeometry relative="1" as="geometry">
            <mxPoint x="400.00000000000006" y="415.63" as="targetPoint" />
          </mxGeometry>
        </mxCell>
        <mxCell id="EF0TS_Ud0Vw7cErI-Ymh-6" value="Send error message to User (Email/SMS)" style="shape=process;whiteSpace=wrap;html=1;backgroundOutline=1;" vertex="1" parent="1">
          <mxGeometry x="220" y="375.63" width="140" height="80" as="geometry" />
        </mxCell>
        <mxCell id="1r_QjUdkCwLEwCKq5LAU-10" value="End" style="strokeWidth=1;html=1;shape=mxgraph.flowchart.terminator;whiteSpace=wrap;fillColor=#f8cecc;strokeColor=#b85450;" vertex="1" parent="1">
          <mxGeometry x="967.65" y="696.88" width="70" height="40" as="geometry" />
        </mxCell>
        <mxCell id="1r_QjUdkCwLEwCKq5LAU-16" value="End" style="strokeWidth=1;html=1;shape=mxgraph.flowchart.terminator;whiteSpace=wrap;fillColor=#f8cecc;strokeColor=#b85450;" vertex="1" parent="1">
          <mxGeometry x="400.00000000000006" y="395.63" width="70" height="40" as="geometry" />
        </mxCell>
        <mxCell id="xoyJGo1EwBkPK-KZI3Pr-1" value="" style="edgeStyle=orthogonalEdgeStyle;rounded=0;orthogonalLoop=1;jettySize=auto;html=1;" edge="1" parent="1" source="xoyJGo1EwBkPK-KZI3Pr-12" target="xoyJGo1EwBkPK-KZI3Pr-5">
          <mxGeometry relative="1" as="geometry" />
        </mxCell>
        <mxCell id="xoyJGo1EwBkPK-KZI3Pr-2" value="YES" style="edgeLabel;html=1;align=center;verticalAlign=middle;resizable=0;points=[];" connectable="0" vertex="1" parent="xoyJGo1EwBkPK-KZI3Pr-1">
          <mxGeometry x="-0.4286" y="-3" relative="1" as="geometry">
            <mxPoint x="4" y="-3" as="offset" />
          </mxGeometry>
        </mxCell>
        <mxCell id="xoyJGo1EwBkPK-KZI3Pr-3" value="&lt;div&gt;Get volunteers (Volunteer Module API) that matches to help with the request&lt;/div&gt;" style="shape=process;whiteSpace=wrap;html=1;backgroundOutline=0;fillColor=none;strokeColor=#000000;" vertex="1" parent="1">
          <mxGeometry x="30.000000000000004" y="2810" width="130" height="100" as="geometry" />
        </mxCell>
        <mxCell id="xoyJGo1EwBkPK-KZI3Pr-4" value="" style="edgeStyle=orthogonalEdgeStyle;rounded=0;orthogonalLoop=1;jettySize=auto;html=1;" edge="1" parent="1" source="xoyJGo1EwBkPK-KZI3Pr-5" target="xoyJGo1EwBkPK-KZI3Pr-8">
          <mxGeometry relative="1" as="geometry" />
        </mxCell>
        <mxCell id="xoyJGo1EwBkPK-KZI3Pr-5" value="&lt;div&gt;S&lt;span style=&quot;background-color: initial;&quot;&gt;end notification to X volunteers with request details (Volunteer Module API)&lt;/span&gt;&lt;/div&gt;" style="shape=process;whiteSpace=wrap;html=1;backgroundOutline=0;fillColor=none;strokeColor=#0d0d0d;" vertex="1" parent="1">
          <mxGeometry x="370.34" y="2810" width="130" height="100" as="geometry" />
        </mxCell>
        <mxCell id="xoyJGo1EwBkPK-KZI3Pr-6" value="" style="edgeStyle=orthogonalEdgeStyle;rounded=0;orthogonalLoop=1;jettySize=auto;html=1;entryX=0;entryY=0.5;entryDx=0;entryDy=0;" edge="1" parent="1" source="xoyJGo1EwBkPK-KZI3Pr-8" target="xoyJGo1EwBkPK-KZI3Pr-28">
          <mxGeometry relative="1" as="geometry">
            <mxPoint x="879" y="2860" as="targetPoint" />
          </mxGeometry>
        </mxCell>
        <mxCell id="xoyJGo1EwBkPK-KZI3Pr-7" value="YES" style="edgeLabel;html=1;align=center;verticalAlign=middle;resizable=0;points=[];" connectable="0" vertex="1" parent="xoyJGo1EwBkPK-KZI3Pr-6">
          <mxGeometry x="-0.3079" y="1" relative="1" as="geometry">
            <mxPoint as="offset" />
          </mxGeometry>
        </mxCell>
        <mxCell id="xoyJGo1EwBkPK-KZI3Pr-8" value="&lt;div&gt;Received&amp;nbsp;&lt;div&gt;response from&amp;nbsp;&lt;div&gt;at least one volunteer to&amp;nbsp;&lt;div&gt;accept the request&lt;/div&gt;&lt;div&gt;within&amp;nbsp;&lt;/div&gt;&lt;div&gt;&#39;Y&#39; minutes?&lt;/div&gt;&lt;/div&gt;&lt;/div&gt;&lt;/div&gt;" style="rhombus;whiteSpace=wrap;html=1;" vertex="1" parent="1">
          <mxGeometry x="530.34" y="2800" width="230" height="120" as="geometry" />
        </mxCell>
        <mxCell id="xoyJGo1EwBkPK-KZI3Pr-9" value="" style="edgeStyle=orthogonalEdgeStyle;rounded=0;orthogonalLoop=1;jettySize=auto;html=1;" edge="1" parent="1" source="xoyJGo1EwBkPK-KZI3Pr-3" target="xoyJGo1EwBkPK-KZI3Pr-12">
          <mxGeometry relative="1" as="geometry">
            <mxPoint x="139" y="2860" as="sourcePoint" />
            <mxPoint x="374" y="2770" as="targetPoint" />
          </mxGeometry>
        </mxCell>
        <mxCell id="xoyJGo1EwBkPK-KZI3Pr-10" style="edgeStyle=orthogonalEdgeStyle;rounded=0;orthogonalLoop=1;jettySize=auto;html=1;entryX=0;entryY=0.5;entryDx=0;entryDy=0;exitX=0.5;exitY=0;exitDx=0;exitDy=0;" edge="1" parent="1" source="xoyJGo1EwBkPK-KZI3Pr-12" target="xoyJGo1EwBkPK-KZI3Pr-14">
          <mxGeometry relative="1" as="geometry" />
        </mxCell>
        <mxCell id="xoyJGo1EwBkPK-KZI3Pr-11" value="NO" style="edgeLabel;html=1;align=center;verticalAlign=middle;resizable=0;points=[];" connectable="0" vertex="1" parent="xoyJGo1EwBkPK-KZI3Pr-10">
          <mxGeometry x="0.1707" y="1" relative="1" as="geometry">
            <mxPoint as="offset" />
          </mxGeometry>
        </mxCell>
        <mxCell id="xoyJGo1EwBkPK-KZI3Pr-12" value="Found at least 1 volunteer?" style="rhombus;whiteSpace=wrap;html=1;" vertex="1" parent="1">
          <mxGeometry x="180" y="2810" width="130" height="100" as="geometry" />
        </mxCell>
        <mxCell id="xoyJGo1EwBkPK-KZI3Pr-13" value="" style="edgeStyle=orthogonalEdgeStyle;rounded=0;orthogonalLoop=1;jettySize=auto;html=1;" edge="1" parent="1" source="xoyJGo1EwBkPK-KZI3Pr-14" target="xoyJGo1EwBkPK-KZI3Pr-19">
          <mxGeometry relative="1" as="geometry" />
        </mxCell>
        <mxCell id="xoyJGo1EwBkPK-KZI3Pr-14" value="Get response from AI Module" style="shape=process;whiteSpace=wrap;html=1;backgroundOutline=0;fillColor=none;strokeColor=#000000;" vertex="1" parent="1">
          <mxGeometry x="370.34000000000003" y="2664.8199999999997" width="130" height="60" as="geometry" />
        </mxCell>
        <mxCell id="xoyJGo1EwBkPK-KZI3Pr-15" value="" style="edgeStyle=orthogonalEdgeStyle;rounded=0;orthogonalLoop=1;jettySize=auto;html=1;exitX=0.935;exitY=0.475;exitDx=0;exitDy=0;exitPerimeter=0;" edge="1" parent="1" source="xoyJGo1EwBkPK-KZI3Pr-19" target="xoyJGo1EwBkPK-KZI3Pr-21">
          <mxGeometry relative="1" as="geometry">
            <mxPoint x="780.34" y="2694.8199999999997" as="sourcePoint" />
          </mxGeometry>
        </mxCell>
        <mxCell id="xoyJGo1EwBkPK-KZI3Pr-16" value="NO" style="edgeLabel;html=1;align=center;verticalAlign=middle;resizable=0;points=[];" connectable="0" vertex="1" parent="xoyJGo1EwBkPK-KZI3Pr-15">
          <mxGeometry x="-0.2343" y="2" relative="1" as="geometry">
            <mxPoint as="offset" />
          </mxGeometry>
        </mxCell>
        <mxCell id="xoyJGo1EwBkPK-KZI3Pr-102" style="edgeStyle=orthogonalEdgeStyle;rounded=0;orthogonalLoop=1;jettySize=auto;html=1;entryX=0;entryY=0.5;entryDx=0;entryDy=0;" edge="1" parent="1" source="xoyJGo1EwBkPK-KZI3Pr-19" target="xoyJGo1EwBkPK-KZI3Pr-91">
          <mxGeometry relative="1" as="geometry" />
        </mxCell>
        <mxCell id="xoyJGo1EwBkPK-KZI3Pr-105" value="YES" style="edgeLabel;html=1;align=center;verticalAlign=middle;resizable=0;points=[];" connectable="0" vertex="1" parent="xoyJGo1EwBkPK-KZI3Pr-102">
          <mxGeometry x="-0.2362" relative="1" as="geometry">
            <mxPoint as="offset" />
          </mxGeometry>
        </mxCell>
        <mxCell id="xoyJGo1EwBkPK-KZI3Pr-19" value="Response received from AI module?" style="rhombus;whiteSpace=wrap;html=1;" vertex="1" parent="1">
          <mxGeometry x="600.34" y="2659.8199999999997" width="130" height="70" as="geometry" />
        </mxCell>
        <mxCell id="xoyJGo1EwBkPK-KZI3Pr-20" value="" style="edgeStyle=orthogonalEdgeStyle;rounded=0;orthogonalLoop=1;jettySize=auto;html=1;" edge="1" parent="1" source="xoyJGo1EwBkPK-KZI3Pr-21" target="xoyJGo1EwBkPK-KZI3Pr-25">
          <mxGeometry relative="1" as="geometry" />
        </mxCell>
        <mxCell id="xoyJGo1EwBkPK-KZI3Pr-21" value="Request processing failed.&lt;div&gt;Send error message to user,&lt;/div&gt;" style="shape=process;whiteSpace=wrap;html=1;backgroundOutline=0;fillColor=none;strokeColor=#000000;" vertex="1" parent="1">
          <mxGeometry x="830.34" y="2663.8199999999997" width="130" height="60" as="geometry" />
        </mxCell>
        <mxCell id="xoyJGo1EwBkPK-KZI3Pr-70" value="" style="edgeStyle=orthogonalEdgeStyle;rounded=0;orthogonalLoop=1;jettySize=auto;html=1;" edge="1" parent="1" source="xoyJGo1EwBkPK-KZI3Pr-22" target="xoyJGo1EwBkPK-KZI3Pr-66">
          <mxGeometry relative="1" as="geometry" />
        </mxCell>
        <mxCell id="xoyJGo1EwBkPK-KZI3Pr-22" value="&lt;b&gt;Handshake Successful / Volunteer Assignment&amp;nbsp;&lt;/b&gt;&lt;b style=&quot;background-color: initial;&quot;&gt;Done&lt;/b&gt;&lt;div&gt;Update User Request Status to &#39;In-Progress&#39; in DB&lt;/div&gt;" style="shape=process;whiteSpace=wrap;html=1;backgroundOutline=1;" vertex="1" parent="1">
          <mxGeometry x="1165.34" y="2815" width="190" height="90" as="geometry" />
        </mxCell>
        <mxCell id="xoyJGo1EwBkPK-KZI3Pr-23" style="edgeStyle=orthogonalEdgeStyle;rounded=0;orthogonalLoop=1;jettySize=auto;html=1;entryX=0.436;entryY=1.002;entryDx=0;entryDy=0;entryPerimeter=0;" edge="1" parent="1" source="xoyJGo1EwBkPK-KZI3Pr-8" target="xoyJGo1EwBkPK-KZI3Pr-3">
          <mxGeometry relative="1" as="geometry">
            <Array as="points">
              <mxPoint x="694" y="2970" />
              <mxPoint x="87" y="2970" />
            </Array>
          </mxGeometry>
        </mxCell>
        <mxCell id="xoyJGo1EwBkPK-KZI3Pr-24" value="NO" style="edgeLabel;html=1;align=center;verticalAlign=middle;resizable=0;points=[];" connectable="0" vertex="1" parent="xoyJGo1EwBkPK-KZI3Pr-23">
          <mxGeometry x="-0.0971" y="2" relative="1" as="geometry">
            <mxPoint as="offset" />
          </mxGeometry>
        </mxCell>
        <mxCell id="xoyJGo1EwBkPK-KZI3Pr-25" value="End" style="strokeWidth=1;html=1;shape=mxgraph.flowchart.terminator;whiteSpace=wrap;fillColor=#f8cecc;strokeColor=#b85450;" vertex="1" parent="1">
          <mxGeometry x="980.34" y="2674.8199999999997" width="70" height="40" as="geometry" />
        </mxCell>
        <mxCell id="xoyJGo1EwBkPK-KZI3Pr-27" value="" style="edgeStyle=orthogonalEdgeStyle;rounded=0;orthogonalLoop=1;jettySize=auto;html=1;" edge="1" parent="1" source="xoyJGo1EwBkPK-KZI3Pr-28" target="xoyJGo1EwBkPK-KZI3Pr-33">
          <mxGeometry relative="1" as="geometry" />
        </mxCell>
        <mxCell id="xoyJGo1EwBkPK-KZI3Pr-28" value="Generate OTP and Send to Requester and Volunteer" style="shape=process;whiteSpace=wrap;html=1;backgroundOutline=0;fillColor=none;strokeColor=#000000;" vertex="1" parent="1">
          <mxGeometry x="810" y="2830" width="130" height="60" as="geometry" />
        </mxCell>
        <mxCell id="xoyJGo1EwBkPK-KZI3Pr-29" style="edgeStyle=orthogonalEdgeStyle;rounded=0;orthogonalLoop=1;jettySize=auto;html=1;entryX=0;entryY=0.5;entryDx=0;entryDy=0;" edge="1" parent="1" source="xoyJGo1EwBkPK-KZI3Pr-33" target="xoyJGo1EwBkPK-KZI3Pr-35">
          <mxGeometry relative="1" as="geometry">
            <mxPoint x="1104" y="2780" as="targetPoint" />
          </mxGeometry>
        </mxCell>
        <mxCell id="xoyJGo1EwBkPK-KZI3Pr-30" value="NO" style="edgeLabel;html=1;align=center;verticalAlign=middle;resizable=0;points=[];" connectable="0" vertex="1" parent="xoyJGo1EwBkPK-KZI3Pr-29">
          <mxGeometry x="-0.3234" y="4" relative="1" as="geometry">
            <mxPoint as="offset" />
          </mxGeometry>
        </mxCell>
        <mxCell id="xoyJGo1EwBkPK-KZI3Pr-31" value="" style="edgeStyle=orthogonalEdgeStyle;rounded=0;orthogonalLoop=1;jettySize=auto;html=1;" edge="1" parent="1" source="xoyJGo1EwBkPK-KZI3Pr-33" target="xoyJGo1EwBkPK-KZI3Pr-22">
          <mxGeometry relative="1" as="geometry" />
        </mxCell>
        <mxCell id="xoyJGo1EwBkPK-KZI3Pr-32" value="YES" style="edgeLabel;html=1;align=center;verticalAlign=middle;resizable=0;points=[];" connectable="0" vertex="1" parent="xoyJGo1EwBkPK-KZI3Pr-31">
          <mxGeometry x="-0.0338" y="-4" relative="1" as="geometry">
            <mxPoint as="offset" />
          </mxGeometry>
        </mxCell>
        <mxCell id="xoyJGo1EwBkPK-KZI3Pr-33" value="OTP Generate&amp;nbsp;&lt;div&gt;Successful and Requester and&amp;nbsp;&lt;/div&gt;&lt;div&gt;Volunteer Accepted?&lt;/div&gt;" style="rhombus;whiteSpace=wrap;html=1;" vertex="1" parent="1">
          <mxGeometry x="960.34" y="2785" width="160" height="150" as="geometry" />
        </mxCell>
        <mxCell id="xoyJGo1EwBkPK-KZI3Pr-34" value="" style="edgeStyle=orthogonalEdgeStyle;rounded=0;orthogonalLoop=1;jettySize=auto;html=1;" edge="1" parent="1" source="xoyJGo1EwBkPK-KZI3Pr-35" target="xoyJGo1EwBkPK-KZI3Pr-36">
          <mxGeometry relative="1" as="geometry" />
        </mxCell>
        <mxCell id="xoyJGo1EwBkPK-KZI3Pr-35" value="Error Message:??" style="shape=process;whiteSpace=wrap;html=1;backgroundOutline=1;" vertex="1" parent="1">
          <mxGeometry x="1120.34" y="2664.8199999999997" width="130" height="60" as="geometry" />
        </mxCell>
        <mxCell id="xoyJGo1EwBkPK-KZI3Pr-36" value="End" style="strokeWidth=1;html=1;shape=mxgraph.flowchart.terminator;whiteSpace=wrap;fillColor=#f8cecc;strokeColor=#b85450;" vertex="1" parent="1">
          <mxGeometry x="1285.34" y="2674.8199999999997" width="70" height="40" as="geometry" />
        </mxCell>
        <mxCell id="xoyJGo1EwBkPK-KZI3Pr-39" value="&lt;b style=&quot;font-size: 15px;&quot;&gt;Flow&lt;/b&gt;&lt;div style=&quot;font-size: 15px;&quot;&gt;&lt;b style=&quot;font-size: 15px;&quot;&gt;Find Matching Volunteer&lt;/b&gt;&lt;div style=&quot;font-size: 15px;&quot;&gt;&lt;b style=&quot;font-size: 15px;&quot;&gt;Volunteer/Requester Handshake&lt;/b&gt;&lt;/div&gt;&lt;/div&gt;" style="text;html=1;align=center;verticalAlign=middle;whiteSpace=wrap;rounded=0;fontSize=15;fontColor=#FF6666;strokeColor=default;" vertex="1" parent="1">
          <mxGeometry x="460" y="2340" width="290" height="82" as="geometry" />
        </mxCell>
        <mxCell id="xoyJGo1EwBkPK-KZI3Pr-45" value="&lt;b style=&quot;font-size: 15px;&quot;&gt;Flow&lt;/b&gt;&lt;div style=&quot;font-size: 15px;&quot;&gt;&lt;b&gt;Lead Volunteer Work Alone with Requester&lt;/b&gt;&lt;/div&gt;&lt;div style=&quot;font-size: 15px;&quot;&gt;&lt;b&gt;OR&lt;/b&gt;&lt;/div&gt;&lt;div style=&quot;font-size: 15px;&quot;&gt;&lt;b&gt;Lead Volunteer Work with 1 or more Saayam Volunteers&lt;/b&gt;&lt;/div&gt;" style="text;html=1;align=center;verticalAlign=middle;whiteSpace=wrap;rounded=0;fontSize=15;fontColor=#FF6666;strokeColor=default;" vertex="1" parent="1">
          <mxGeometry x="225.01" y="3410" width="420" height="82" as="geometry" />
        </mxCell>
        <mxCell id="xoyJGo1EwBkPK-KZI3Pr-49" value="" style="edgeStyle=orthogonalEdgeStyle;rounded=0;orthogonalLoop=1;jettySize=auto;html=1;" edge="1" parent="1" source="xoyJGo1EwBkPK-KZI3Pr-50" target="xoyJGo1EwBkPK-KZI3Pr-55">
          <mxGeometry relative="1" as="geometry" />
        </mxCell>
        <mxCell id="xoyJGo1EwBkPK-KZI3Pr-50" value="Lead Volunteer Work with Requester/User" style="verticalLabelPosition=middle;verticalAlign=middle;html=1;shape=trapezoid;perimeter=trapezoidPerimeter;whiteSpace=wrap;size=0.23;arcSize=10;flipV=1;labelPosition=center;align=center;dashed=1;dashPattern=12 12;" vertex="1" parent="1">
          <mxGeometry x="261.68" y="3700" width="173.33" height="60" as="geometry" />
        </mxCell>
        <mxCell id="xoyJGo1EwBkPK-KZI3Pr-51" value="" style="edgeStyle=orthogonalEdgeStyle;rounded=0;orthogonalLoop=1;jettySize=auto;html=1;" edge="1" parent="1" source="xoyJGo1EwBkPK-KZI3Pr-55" target="xoyJGo1EwBkPK-KZI3Pr-59">
          <mxGeometry relative="1" as="geometry" />
        </mxCell>
        <mxCell id="xoyJGo1EwBkPK-KZI3Pr-52" value="NO" style="edgeLabel;html=1;align=center;verticalAlign=middle;resizable=0;points=[];" connectable="0" vertex="1" parent="xoyJGo1EwBkPK-KZI3Pr-51">
          <mxGeometry x="-0.2743" y="-1" relative="1" as="geometry">
            <mxPoint as="offset" />
          </mxGeometry>
        </mxCell>
        <mxCell id="xoyJGo1EwBkPK-KZI3Pr-78" style="edgeStyle=orthogonalEdgeStyle;rounded=0;orthogonalLoop=1;jettySize=auto;html=1;entryX=0;entryY=0.5;entryDx=0;entryDy=0;" edge="1" parent="1" source="xoyJGo1EwBkPK-KZI3Pr-55" target="xoyJGo1EwBkPK-KZI3Pr-62">
          <mxGeometry relative="1" as="geometry">
            <Array as="points">
              <mxPoint x="547.01" y="3601" />
            </Array>
          </mxGeometry>
        </mxCell>
        <mxCell id="xoyJGo1EwBkPK-KZI3Pr-79" value="YES" style="edgeLabel;html=1;align=center;verticalAlign=middle;resizable=0;points=[];" connectable="0" vertex="1" parent="xoyJGo1EwBkPK-KZI3Pr-78">
          <mxGeometry x="-0.3413" relative="1" as="geometry">
            <mxPoint y="1" as="offset" />
          </mxGeometry>
        </mxCell>
        <mxCell id="xoyJGo1EwBkPK-KZI3Pr-55" value="Can&amp;nbsp;&lt;div&gt;Lead Volunteer&amp;nbsp;&lt;div&gt;Alone Help&amp;nbsp;&lt;/div&gt;&lt;div&gt;Requester?&lt;/div&gt;&lt;/div&gt;" style="rhombus;whiteSpace=wrap;html=1;" vertex="1" parent="1">
          <mxGeometry x="465.01" y="3680" width="147.33" height="100" as="geometry" />
        </mxCell>
        <mxCell id="xoyJGo1EwBkPK-KZI3Pr-56" value="" style="edgeStyle=orthogonalEdgeStyle;rounded=0;orthogonalLoop=1;jettySize=auto;html=1;" edge="1" parent="1" source="xoyJGo1EwBkPK-KZI3Pr-59" target="xoyJGo1EwBkPK-KZI3Pr-60">
          <mxGeometry relative="1" as="geometry" />
        </mxCell>
        <mxCell id="xoyJGo1EwBkPK-KZI3Pr-57" value="NO" style="edgeLabel;html=1;align=center;verticalAlign=middle;resizable=0;points=[];" connectable="0" vertex="1" parent="xoyJGo1EwBkPK-KZI3Pr-56">
          <mxGeometry x="0.5257" y="1" relative="1" as="geometry">
            <mxPoint x="-16" y="1" as="offset" />
          </mxGeometry>
        </mxCell>
        <mxCell id="xoyJGo1EwBkPK-KZI3Pr-108" style="edgeStyle=orthogonalEdgeStyle;rounded=0;orthogonalLoop=1;jettySize=auto;html=1;entryX=0.5;entryY=1;entryDx=0;entryDy=0;" edge="1" parent="1" source="xoyJGo1EwBkPK-KZI3Pr-59" target="xoyJGo1EwBkPK-KZI3Pr-73">
          <mxGeometry relative="1" as="geometry">
            <Array as="points">
              <mxPoint x="737.01" y="3840" />
              <mxPoint x="140.01000000000002" y="3840" />
            </Array>
          </mxGeometry>
        </mxCell>
        <mxCell id="xoyJGo1EwBkPK-KZI3Pr-109" value="YES" style="edgeLabel;html=1;align=center;verticalAlign=middle;resizable=0;points=[];" connectable="0" vertex="1" parent="xoyJGo1EwBkPK-KZI3Pr-108">
          <mxGeometry x="-0.2628" relative="1" as="geometry">
            <mxPoint as="offset" />
          </mxGeometry>
        </mxCell>
        <mxCell id="xoyJGo1EwBkPK-KZI3Pr-59" value="Need More&amp;nbsp;&lt;div&gt;Volunteers from Saayam Volunteers List?&lt;/div&gt;" style="rhombus;whiteSpace=wrap;html=1;" vertex="1" parent="1">
          <mxGeometry x="672.3399999999999" y="3680" width="130" height="100" as="geometry" />
        </mxCell>
        <mxCell id="xoyJGo1EwBkPK-KZI3Pr-111" value="" style="edgeStyle=orthogonalEdgeStyle;rounded=0;orthogonalLoop=1;jettySize=auto;html=1;" edge="1" parent="1" source="xoyJGo1EwBkPK-KZI3Pr-60" target="xoyJGo1EwBkPK-KZI3Pr-110">
          <mxGeometry relative="1" as="geometry" />
        </mxCell>
        <mxCell id="xoyJGo1EwBkPK-KZI3Pr-154" value="YES" style="edgeLabel;html=1;align=center;verticalAlign=middle;resizable=0;points=[];" connectable="0" vertex="1" parent="xoyJGo1EwBkPK-KZI3Pr-111">
          <mxGeometry x="-0.1642" y="-4" relative="1" as="geometry">
            <mxPoint x="-1" as="offset" />
          </mxGeometry>
        </mxCell>
        <mxCell id="xoyJGo1EwBkPK-KZI3Pr-60" value="Need Volunteer Org Help?" style="rhombus;whiteSpace=wrap;html=1;" vertex="1" parent="1">
          <mxGeometry x="862.3399999999999" y="3680" width="130" height="100" as="geometry" />
        </mxCell>
        <mxCell id="xoyJGo1EwBkPK-KZI3Pr-61" style="edgeStyle=orthogonalEdgeStyle;rounded=0;orthogonalLoop=1;jettySize=auto;html=1;entryX=0;entryY=0.5;entryDx=0;entryDy=0;" edge="1" parent="1" source="xoyJGo1EwBkPK-KZI3Pr-62" target="xoyJGo1EwBkPK-KZI3Pr-63">
          <mxGeometry relative="1" as="geometry">
            <mxPoint x="644.6599999999999" y="3606" as="targetPoint" />
          </mxGeometry>
        </mxCell>
        <mxCell id="xoyJGo1EwBkPK-KZI3Pr-62" value="Lead Volunteer Work with Requester/User Until Completion" style="verticalLabelPosition=middle;verticalAlign=middle;html=1;shape=trapezoid;perimeter=trapezoidPerimeter;whiteSpace=wrap;size=0.23;arcSize=10;flipV=1;labelPosition=center;align=center;dashed=1;dashPattern=12 12;" vertex="1" parent="1">
          <mxGeometry x="600.6800000000001" y="3571" width="173.33" height="60" as="geometry" />
        </mxCell>
        <mxCell id="xoyJGo1EwBkPK-KZI3Pr-86" value="" style="edgeStyle=orthogonalEdgeStyle;rounded=0;orthogonalLoop=1;jettySize=auto;html=1;" edge="1" parent="1" source="xoyJGo1EwBkPK-KZI3Pr-63" target="xoyJGo1EwBkPK-KZI3Pr-82">
          <mxGeometry relative="1" as="geometry" />
        </mxCell>
        <mxCell id="xoyJGo1EwBkPK-KZI3Pr-63" value="Update Request Status to &#39;Complete&#39;" style="shape=process;whiteSpace=wrap;html=1;backgroundOutline=1;" vertex="1" parent="1">
          <mxGeometry x="824.01" y="3568" width="130" height="65" as="geometry" />
        </mxCell>
        <mxCell id="xoyJGo1EwBkPK-KZI3Pr-64" style="edgeStyle=orthogonalEdgeStyle;rounded=0;orthogonalLoop=1;jettySize=auto;html=1;entryX=0;entryY=0.5;entryDx=0;entryDy=0;exitX=0.5;exitY=0;exitDx=0;exitDy=0;" edge="1" parent="1" source="xoyJGo1EwBkPK-KZI3Pr-66" target="xoyJGo1EwBkPK-KZI3Pr-68">
          <mxGeometry relative="1" as="geometry">
            <mxPoint x="1470.0000000000005" y="2777.5" as="sourcePoint" />
          </mxGeometry>
        </mxCell>
        <mxCell id="xoyJGo1EwBkPK-KZI3Pr-65" value="NO" style="edgeLabel;html=1;align=center;verticalAlign=middle;resizable=0;points=[];" connectable="0" vertex="1" parent="xoyJGo1EwBkPK-KZI3Pr-64">
          <mxGeometry x="0.2051" y="-1" relative="1" as="geometry">
            <mxPoint as="offset" />
          </mxGeometry>
        </mxCell>
        <mxCell id="xoyJGo1EwBkPK-KZI3Pr-66" value="Requester Request Update Successful?" style="rhombus;whiteSpace=wrap;html=1;" vertex="1" parent="1">
          <mxGeometry x="1390" y="2810" width="130" height="100" as="geometry" />
        </mxCell>
        <mxCell id="xoyJGo1EwBkPK-KZI3Pr-67" value="" style="edgeStyle=orthogonalEdgeStyle;rounded=0;orthogonalLoop=1;jettySize=auto;html=1;" edge="1" parent="1" source="xoyJGo1EwBkPK-KZI3Pr-68" target="xoyJGo1EwBkPK-KZI3Pr-69">
          <mxGeometry relative="1" as="geometry" />
        </mxCell>
        <mxCell id="xoyJGo1EwBkPK-KZI3Pr-68" value="Error Message:??" style="shape=process;whiteSpace=wrap;html=1;backgroundOutline=1;" vertex="1" parent="1">
          <mxGeometry x="1531.67" y="2760" width="130" height="60" as="geometry" />
        </mxCell>
        <mxCell id="xoyJGo1EwBkPK-KZI3Pr-69" value="End" style="strokeWidth=1;html=1;shape=mxgraph.flowchart.terminator;whiteSpace=wrap;fillColor=#f8cecc;strokeColor=#b85450;" vertex="1" parent="1">
          <mxGeometry x="1561.67" y="2684.82" width="70" height="40" as="geometry" />
        </mxCell>
        <mxCell id="xoyJGo1EwBkPK-KZI3Pr-144" value="" style="edgeStyle=orthogonalEdgeStyle;rounded=0;orthogonalLoop=1;jettySize=auto;html=1;" edge="1" parent="1" source="xoyJGo1EwBkPK-KZI3Pr-71" target="xoyJGo1EwBkPK-KZI3Pr-142">
          <mxGeometry relative="1" as="geometry" />
        </mxCell>
        <mxCell id="xoyJGo1EwBkPK-KZI3Pr-71" value="&lt;b style=&quot;font-size: 15px;&quot;&gt;Flow (Below)&lt;/b&gt;&lt;div style=&quot;font-size: 15px;&quot;&gt;&lt;b&gt;Volunteer Work Alone with Requester&lt;/b&gt;&lt;/div&gt;&lt;div style=&quot;font-size: 15px;&quot;&gt;&lt;b&gt;Volunteer Work with 1 or more Saayam Volunteers&lt;/b&gt;&lt;/div&gt;" style="shape=process;whiteSpace=wrap;html=1;backgroundOutline=0;fillColor=none;strokeColor=#000000;dashed=1;dashPattern=12 12;fontColor=#000000;" vertex="1" parent="1">
          <mxGeometry x="1229.3300000000002" y="485.63" width="347.33" height="100" as="geometry" />
        </mxCell>
        <mxCell id="xoyJGo1EwBkPK-KZI3Pr-74" value="" style="edgeStyle=orthogonalEdgeStyle;rounded=0;orthogonalLoop=1;jettySize=auto;html=1;" edge="1" parent="1" source="xoyJGo1EwBkPK-KZI3Pr-73" target="xoyJGo1EwBkPK-KZI3Pr-50">
          <mxGeometry relative="1" as="geometry" />
        </mxCell>
        <mxCell id="xoyJGo1EwBkPK-KZI3Pr-73" value="&lt;b style=&quot;font-size: 15px;&quot;&gt;Flow&lt;/b&gt;&lt;div style=&quot;font-size: 15px;&quot;&gt;&lt;b style=&quot;font-size: 15px;&quot;&gt;Find Matching Volunteer&lt;/b&gt;&lt;div style=&quot;font-size: 15px;&quot;&gt;&lt;b style=&quot;font-size: 15px;&quot;&gt;Volunteer/Requester Handshake&lt;/b&gt;&lt;/div&gt;&lt;/div&gt;" style="text;html=1;align=center;verticalAlign=middle;whiteSpace=wrap;rounded=0;fontSize=15;fontColor=#000000;strokeColor=default;dashed=1;dashPattern=12 12;" vertex="1" parent="1">
          <mxGeometry x="45.01" y="3670" width="190" height="121" as="geometry" />
        </mxCell>
        <mxCell id="xoyJGo1EwBkPK-KZI3Pr-80" style="edgeStyle=orthogonalEdgeStyle;rounded=0;orthogonalLoop=1;jettySize=auto;html=1;entryX=0;entryY=0.5;entryDx=0;entryDy=0;exitX=0.5;exitY=0;exitDx=0;exitDy=0;" edge="1" parent="1" source="xoyJGo1EwBkPK-KZI3Pr-82" target="xoyJGo1EwBkPK-KZI3Pr-84">
          <mxGeometry relative="1" as="geometry">
            <mxPoint x="1084.0100000000004" y="3518.5" as="sourcePoint" />
          </mxGeometry>
        </mxCell>
        <mxCell id="xoyJGo1EwBkPK-KZI3Pr-81" value="NO" style="edgeLabel;html=1;align=center;verticalAlign=middle;resizable=0;points=[];" connectable="0" vertex="1" parent="xoyJGo1EwBkPK-KZI3Pr-80">
          <mxGeometry x="0.2051" y="-1" relative="1" as="geometry">
            <mxPoint as="offset" />
          </mxGeometry>
        </mxCell>
        <mxCell id="xoyJGo1EwBkPK-KZI3Pr-82" value="Requester Request Update Successful?" style="rhombus;whiteSpace=wrap;html=1;" vertex="1" parent="1">
          <mxGeometry x="1004.0099999999999" y="3551" width="130" height="100" as="geometry" />
        </mxCell>
        <mxCell id="xoyJGo1EwBkPK-KZI3Pr-83" value="" style="edgeStyle=orthogonalEdgeStyle;rounded=0;orthogonalLoop=1;jettySize=auto;html=1;" edge="1" parent="1" source="xoyJGo1EwBkPK-KZI3Pr-84" target="xoyJGo1EwBkPK-KZI3Pr-85">
          <mxGeometry relative="1" as="geometry" />
        </mxCell>
        <mxCell id="xoyJGo1EwBkPK-KZI3Pr-84" value="Error Message:??" style="shape=process;whiteSpace=wrap;html=1;backgroundOutline=1;" vertex="1" parent="1">
          <mxGeometry x="1145.68" y="3501" width="130" height="60" as="geometry" />
        </mxCell>
        <mxCell id="xoyJGo1EwBkPK-KZI3Pr-85" value="End" style="strokeWidth=1;html=1;shape=mxgraph.flowchart.terminator;whiteSpace=wrap;fillColor=#f8cecc;strokeColor=#b85450;" vertex="1" parent="1">
          <mxGeometry x="1315.68" y="3511" width="70" height="40" as="geometry" />
        </mxCell>
        <mxCell id="xoyJGo1EwBkPK-KZI3Pr-87" style="edgeStyle=orthogonalEdgeStyle;rounded=0;orthogonalLoop=1;jettySize=auto;html=1;entryX=0.5;entryY=1;entryDx=0;entryDy=0;entryPerimeter=0;" edge="1" parent="1" source="xoyJGo1EwBkPK-KZI3Pr-82" target="xoyJGo1EwBkPK-KZI3Pr-85">
          <mxGeometry relative="1" as="geometry" />
        </mxCell>
        <mxCell id="xoyJGo1EwBkPK-KZI3Pr-88" value="YES" style="edgeLabel;html=1;align=center;verticalAlign=middle;resizable=0;points=[];" connectable="0" vertex="1" parent="xoyJGo1EwBkPK-KZI3Pr-87">
          <mxGeometry x="-0.4111" y="-2" relative="1" as="geometry">
            <mxPoint as="offset" />
          </mxGeometry>
        </mxCell>
        <mxCell id="xoyJGo1EwBkPK-KZI3Pr-89" style="edgeStyle=orthogonalEdgeStyle;rounded=0;orthogonalLoop=1;jettySize=auto;html=1;entryX=0.5;entryY=0;entryDx=0;entryDy=0;exitX=0.5;exitY=1;exitDx=0;exitDy=0;" edge="1" parent="1" source="xoyJGo1EwBkPK-KZI3Pr-66" target="xoyJGo1EwBkPK-KZI3Pr-107">
          <mxGeometry relative="1" as="geometry" />
        </mxCell>
        <mxCell id="xoyJGo1EwBkPK-KZI3Pr-90" value="YES" style="edgeLabel;html=1;align=center;verticalAlign=middle;resizable=0;points=[];" connectable="0" vertex="1" parent="xoyJGo1EwBkPK-KZI3Pr-89">
          <mxGeometry x="-0.6539" y="4" relative="1" as="geometry">
            <mxPoint x="4" y="4" as="offset" />
          </mxGeometry>
        </mxCell>
        <mxCell id="xoyJGo1EwBkPK-KZI3Pr-104" value="" style="edgeStyle=orthogonalEdgeStyle;rounded=0;orthogonalLoop=1;jettySize=auto;html=1;" edge="1" parent="1" source="xoyJGo1EwBkPK-KZI3Pr-91" target="xoyJGo1EwBkPK-KZI3Pr-93">
          <mxGeometry relative="1" as="geometry" />
        </mxCell>
        <mxCell id="xoyJGo1EwBkPK-KZI3Pr-91" value="Send AI Response to Requester" style="shape=process;whiteSpace=wrap;html=1;backgroundOutline=0;fillColor=none;strokeColor=#000000;" vertex="1" parent="1">
          <mxGeometry x="693.6700000000001" y="2550" width="130" height="60" as="geometry" />
        </mxCell>
        <mxCell id="xoyJGo1EwBkPK-KZI3Pr-92" value="" style="edgeStyle=orthogonalEdgeStyle;rounded=0;orthogonalLoop=1;jettySize=auto;html=1;" edge="1" parent="1" source="xoyJGo1EwBkPK-KZI3Pr-93" target="xoyJGo1EwBkPK-KZI3Pr-96">
          <mxGeometry relative="1" as="geometry" />
        </mxCell>
        <mxCell id="xoyJGo1EwBkPK-KZI3Pr-93" value="Update Request Status to &#39;Complete&#39;" style="shape=process;whiteSpace=wrap;html=1;backgroundOutline=1;" vertex="1" parent="1">
          <mxGeometry x="883.67" y="2547" width="130" height="65" as="geometry" />
        </mxCell>
        <mxCell id="xoyJGo1EwBkPK-KZI3Pr-94" style="edgeStyle=orthogonalEdgeStyle;rounded=0;orthogonalLoop=1;jettySize=auto;html=1;entryX=0;entryY=0.5;entryDx=0;entryDy=0;exitX=0.5;exitY=0;exitDx=0;exitDy=0;" edge="1" parent="1" source="xoyJGo1EwBkPK-KZI3Pr-96" target="xoyJGo1EwBkPK-KZI3Pr-98">
          <mxGeometry relative="1" as="geometry">
            <mxPoint x="1143.6700000000003" y="2497.5" as="sourcePoint" />
          </mxGeometry>
        </mxCell>
        <mxCell id="xoyJGo1EwBkPK-KZI3Pr-95" value="NO" style="edgeLabel;html=1;align=center;verticalAlign=middle;resizable=0;points=[];" connectable="0" vertex="1" parent="xoyJGo1EwBkPK-KZI3Pr-94">
          <mxGeometry x="0.2051" y="-1" relative="1" as="geometry">
            <mxPoint as="offset" />
          </mxGeometry>
        </mxCell>
        <mxCell id="xoyJGo1EwBkPK-KZI3Pr-96" value="Requester Request Update Successful?" style="rhombus;whiteSpace=wrap;html=1;" vertex="1" parent="1">
          <mxGeometry x="1063.6699999999998" y="2530" width="130" height="100" as="geometry" />
        </mxCell>
        <mxCell id="xoyJGo1EwBkPK-KZI3Pr-97" value="" style="edgeStyle=orthogonalEdgeStyle;rounded=0;orthogonalLoop=1;jettySize=auto;html=1;" edge="1" parent="1" source="xoyJGo1EwBkPK-KZI3Pr-98" target="xoyJGo1EwBkPK-KZI3Pr-99">
          <mxGeometry relative="1" as="geometry" />
        </mxCell>
        <mxCell id="xoyJGo1EwBkPK-KZI3Pr-98" value="Error Message:??" style="shape=process;whiteSpace=wrap;html=1;backgroundOutline=1;" vertex="1" parent="1">
          <mxGeometry x="1205.34" y="2480" width="130" height="60" as="geometry" />
        </mxCell>
        <mxCell id="xoyJGo1EwBkPK-KZI3Pr-99" value="End" style="strokeWidth=1;html=1;shape=mxgraph.flowchart.terminator;whiteSpace=wrap;fillColor=#f8cecc;strokeColor=#b85450;" vertex="1" parent="1">
          <mxGeometry x="1375.34" y="2490" width="70" height="40" as="geometry" />
        </mxCell>
        <mxCell id="xoyJGo1EwBkPK-KZI3Pr-100" style="edgeStyle=orthogonalEdgeStyle;rounded=0;orthogonalLoop=1;jettySize=auto;html=1;entryX=0.5;entryY=1;entryDx=0;entryDy=0;entryPerimeter=0;" edge="1" parent="1" source="xoyJGo1EwBkPK-KZI3Pr-96" target="xoyJGo1EwBkPK-KZI3Pr-99">
          <mxGeometry relative="1" as="geometry" />
        </mxCell>
        <mxCell id="xoyJGo1EwBkPK-KZI3Pr-101" value="YES" style="edgeLabel;html=1;align=center;verticalAlign=middle;resizable=0;points=[];" connectable="0" vertex="1" parent="xoyJGo1EwBkPK-KZI3Pr-100">
          <mxGeometry x="-0.4111" y="-2" relative="1" as="geometry">
            <mxPoint as="offset" />
          </mxGeometry>
        </mxCell>
        <mxCell id="xoyJGo1EwBkPK-KZI3Pr-106" value="&lt;b style=&quot;&quot;&gt;Flow&lt;/b&gt;&lt;div style=&quot;&quot;&gt;&lt;b&gt;Lead Volunteer Work with Volunteer Organization&lt;/b&gt;&lt;/div&gt;" style="text;html=1;align=center;verticalAlign=middle;whiteSpace=wrap;rounded=0;fontSize=15;fontColor=#FF6666;strokeColor=default;" vertex="1" parent="1">
          <mxGeometry x="350.34" y="3960" width="380" height="82" as="geometry" />
        </mxCell>
        <mxCell id="xoyJGo1EwBkPK-KZI3Pr-107" value="&lt;b style=&quot;&quot;&gt;Flow&lt;/b&gt;&lt;div style=&quot;&quot;&gt;&lt;b&gt;Lead Volunteer Work Alone with Requester&lt;/b&gt;&lt;/div&gt;&lt;div style=&quot;&quot;&gt;&lt;b&gt;Lead Volunteer Work with 1 or more Saayam Volunteers&lt;/b&gt;&lt;/div&gt;" style="text;html=1;align=center;verticalAlign=middle;whiteSpace=wrap;rounded=0;fontSize=15;fontColor=#000000;strokeColor=default;dashed=1;dashPattern=12 12;" vertex="1" parent="1">
          <mxGeometry x="1310" y="2980" width="290" height="150" as="geometry" />
        </mxCell>
        <mxCell id="xoyJGo1EwBkPK-KZI3Pr-110" value="&lt;b style=&quot;font-size: 15px;&quot;&gt;Flow&lt;/b&gt;&lt;div style=&quot;font-size: 15px;&quot;&gt;&lt;b style=&quot;font-size: 15px;&quot;&gt;Lead Volunteer Work with Volunteer Organization&lt;/b&gt;&lt;/div&gt;" style="text;html=1;align=center;verticalAlign=middle;whiteSpace=wrap;rounded=0;fontSize=15;fontColor=#000000;strokeColor=default;dashed=1;dashPattern=12 12;" vertex="1" parent="1">
          <mxGeometry x="1070.35" y="3669.5" width="190" height="121" as="geometry" />
        </mxCell>
        <mxCell id="xoyJGo1EwBkPK-KZI3Pr-112" value="" style="edgeStyle=orthogonalEdgeStyle;rounded=0;orthogonalLoop=1;jettySize=auto;html=1;" edge="1" parent="1" source="xoyJGo1EwBkPK-KZI3Pr-123" target="xoyJGo1EwBkPK-KZI3Pr-116">
          <mxGeometry relative="1" as="geometry" />
        </mxCell>
        <mxCell id="xoyJGo1EwBkPK-KZI3Pr-113" value="YES" style="edgeLabel;html=1;align=center;verticalAlign=middle;resizable=0;points=[];" connectable="0" vertex="1" parent="xoyJGo1EwBkPK-KZI3Pr-112">
          <mxGeometry x="-0.4286" y="-3" relative="1" as="geometry">
            <mxPoint x="4" y="-3" as="offset" />
          </mxGeometry>
        </mxCell>
        <mxCell id="xoyJGo1EwBkPK-KZI3Pr-114" value="&lt;div&gt;Get volunteers orgs (Volunteer Org Module API) that matches to help with the request&lt;/div&gt;" style="shape=process;whiteSpace=wrap;html=1;backgroundOutline=0;fillColor=none;strokeColor=#000000;" vertex="1" parent="1">
          <mxGeometry x="20.000000000000004" y="4239.5" width="130" height="120" as="geometry" />
        </mxCell>
        <mxCell id="xoyJGo1EwBkPK-KZI3Pr-115" value="" style="edgeStyle=orthogonalEdgeStyle;rounded=0;orthogonalLoop=1;jettySize=auto;html=1;" edge="1" parent="1" source="xoyJGo1EwBkPK-KZI3Pr-116" target="xoyJGo1EwBkPK-KZI3Pr-119">
          <mxGeometry relative="1" as="geometry" />
        </mxCell>
        <mxCell id="xoyJGo1EwBkPK-KZI3Pr-116" value="&lt;div&gt;S&lt;span style=&quot;background-color: initial;&quot;&gt;end message to X volunteer orgs (Volunteer Org Module API)&lt;/span&gt;&lt;/div&gt;" style="shape=process;whiteSpace=wrap;html=1;backgroundOutline=0;fillColor=none;strokeColor=#0d0d0d;" vertex="1" parent="1">
          <mxGeometry x="369.99999999999994" y="4250" width="130" height="100" as="geometry" />
        </mxCell>
        <mxCell id="xoyJGo1EwBkPK-KZI3Pr-117" value="" style="edgeStyle=orthogonalEdgeStyle;rounded=0;orthogonalLoop=1;jettySize=auto;html=1;" edge="1" parent="1" source="xoyJGo1EwBkPK-KZI3Pr-119" target="xoyJGo1EwBkPK-KZI3Pr-125">
          <mxGeometry relative="1" as="geometry" />
        </mxCell>
        <mxCell id="xoyJGo1EwBkPK-KZI3Pr-118" value="YES" style="edgeLabel;html=1;align=center;verticalAlign=middle;resizable=0;points=[];" connectable="0" vertex="1" parent="xoyJGo1EwBkPK-KZI3Pr-117">
          <mxGeometry x="-0.025" y="-2" relative="1" as="geometry">
            <mxPoint as="offset" />
          </mxGeometry>
        </mxCell>
        <mxCell id="xoyJGo1EwBkPK-KZI3Pr-151" style="edgeStyle=orthogonalEdgeStyle;rounded=0;orthogonalLoop=1;jettySize=auto;html=1;entryX=0;entryY=0.5;entryDx=0;entryDy=0;" edge="1" parent="1" source="xoyJGo1EwBkPK-KZI3Pr-119" target="xoyJGo1EwBkPK-KZI3Pr-149">
          <mxGeometry relative="1" as="geometry" />
        </mxCell>
        <mxCell id="xoyJGo1EwBkPK-KZI3Pr-152" value="NO" style="edgeLabel;html=1;align=center;verticalAlign=middle;resizable=0;points=[];" connectable="0" vertex="1" parent="xoyJGo1EwBkPK-KZI3Pr-151">
          <mxGeometry x="-0.4454" relative="1" as="geometry">
            <mxPoint as="offset" />
          </mxGeometry>
        </mxCell>
        <mxCell id="xoyJGo1EwBkPK-KZI3Pr-119" value="Received&amp;nbsp;&lt;div&gt;response from&amp;nbsp;&lt;div&gt;at least one volunteer org to&amp;nbsp;&lt;div&gt;help wit&lt;span style=&quot;background-color: initial;&quot;&gt;hin&amp;nbsp;&lt;/span&gt;&lt;/div&gt;&lt;div&gt;&#39;Y&#39; minutes?&lt;br&gt;&lt;/div&gt;&lt;/div&gt;&lt;/div&gt;" style="rhombus;whiteSpace=wrap;html=1;" vertex="1" parent="1">
          <mxGeometry x="521.66" y="4239.5" width="188.34" height="120" as="geometry" />
        </mxCell>
        <mxCell id="xoyJGo1EwBkPK-KZI3Pr-120" value="" style="edgeStyle=orthogonalEdgeStyle;rounded=0;orthogonalLoop=1;jettySize=auto;html=1;" edge="1" parent="1" source="xoyJGo1EwBkPK-KZI3Pr-114" target="xoyJGo1EwBkPK-KZI3Pr-123">
          <mxGeometry relative="1" as="geometry">
            <mxPoint x="158.34" y="4301" as="sourcePoint" />
            <mxPoint x="393.34" y="4211" as="targetPoint" />
          </mxGeometry>
        </mxCell>
        <mxCell id="xoyJGo1EwBkPK-KZI3Pr-121" style="edgeStyle=orthogonalEdgeStyle;rounded=0;orthogonalLoop=1;jettySize=auto;html=1;entryX=0;entryY=0.5;entryDx=0;entryDy=0;" edge="1" parent="1" source="xoyJGo1EwBkPK-KZI3Pr-123" target="xoyJGo1EwBkPK-KZI3Pr-139">
          <mxGeometry relative="1" as="geometry" />
        </mxCell>
        <mxCell id="xoyJGo1EwBkPK-KZI3Pr-122" value="NO" style="edgeLabel;html=1;align=center;verticalAlign=middle;resizable=0;points=[];" connectable="0" vertex="1" parent="xoyJGo1EwBkPK-KZI3Pr-121">
          <mxGeometry x="-0.2663" y="1" relative="1" as="geometry">
            <mxPoint as="offset" />
          </mxGeometry>
        </mxCell>
        <mxCell id="xoyJGo1EwBkPK-KZI3Pr-123" value="Found at least 1 volunteer org?" style="rhombus;whiteSpace=wrap;html=1;" vertex="1" parent="1">
          <mxGeometry x="170" y="4250" width="130" height="100" as="geometry" />
        </mxCell>
        <mxCell id="xoyJGo1EwBkPK-KZI3Pr-124" value="" style="edgeStyle=orthogonalEdgeStyle;rounded=0;orthogonalLoop=1;jettySize=auto;html=1;" edge="1" parent="1" source="xoyJGo1EwBkPK-KZI3Pr-125" target="xoyJGo1EwBkPK-KZI3Pr-127">
          <mxGeometry relative="1" as="geometry" />
        </mxCell>
        <mxCell id="xoyJGo1EwBkPK-KZI3Pr-125" value="&lt;div&gt;&lt;span style=&quot;background-color: initial;&quot;&gt;Lead Volunteer chooses one volunteer org (Volunteer Org Module API)&lt;/span&gt;&lt;/div&gt;" style="shape=process;whiteSpace=wrap;html=1;backgroundOutline=0;fillColor=none;strokeColor=#0d0d0d;" vertex="1" parent="1">
          <mxGeometry x="751.6400000000001" y="4249.5" width="130" height="100" as="geometry" />
        </mxCell>
        <mxCell id="xoyJGo1EwBkPK-KZI3Pr-126" value="" style="edgeStyle=orthogonalEdgeStyle;rounded=0;orthogonalLoop=1;jettySize=auto;html=1;" edge="1" parent="1" source="xoyJGo1EwBkPK-KZI3Pr-127" target="xoyJGo1EwBkPK-KZI3Pr-137">
          <mxGeometry relative="1" as="geometry" />
        </mxCell>
        <mxCell id="xoyJGo1EwBkPK-KZI3Pr-127" value="Lead Volunteer&amp;nbsp;&lt;div&gt;works with&amp;nbsp;&lt;/div&gt;&lt;div&gt;volunteer org&amp;nbsp;&lt;/div&gt;&lt;div&gt;till completion&lt;/div&gt;" style="verticalLabelPosition=middle;verticalAlign=middle;html=1;shape=trapezoid;perimeter=trapezoidPerimeter;whiteSpace=wrap;size=0.23;arcSize=10;flipV=1;labelPosition=center;align=center;dashed=1;dashPattern=12 12;" vertex="1" parent="1">
          <mxGeometry x="915.9800000000002" y="4254.5" width="173.33" height="90" as="geometry" />
        </mxCell>
        <mxCell id="xoyJGo1EwBkPK-KZI3Pr-128" value="" style="edgeStyle=orthogonalEdgeStyle;rounded=0;orthogonalLoop=1;jettySize=auto;html=1;entryX=0.5;entryY=1;entryDx=0;entryDy=0;entryPerimeter=0;" edge="1" parent="1" source="xoyJGo1EwBkPK-KZI3Pr-132" target="xoyJGo1EwBkPK-KZI3Pr-135">
          <mxGeometry relative="1" as="geometry">
            <mxPoint x="1529.0199999999998" y="4294.5" as="targetPoint" />
          </mxGeometry>
        </mxCell>
        <mxCell id="xoyJGo1EwBkPK-KZI3Pr-129" value="YES" style="edgeLabel;html=1;align=center;verticalAlign=middle;resizable=0;points=[];" connectable="0" vertex="1" parent="xoyJGo1EwBkPK-KZI3Pr-128">
          <mxGeometry x="-0.4234" y="2" relative="1" as="geometry">
            <mxPoint as="offset" />
          </mxGeometry>
        </mxCell>
        <mxCell id="xoyJGo1EwBkPK-KZI3Pr-130" value="" style="edgeStyle=orthogonalEdgeStyle;rounded=0;orthogonalLoop=1;jettySize=auto;html=1;" edge="1" parent="1" source="xoyJGo1EwBkPK-KZI3Pr-132" target="xoyJGo1EwBkPK-KZI3Pr-134">
          <mxGeometry relative="1" as="geometry" />
        </mxCell>
        <mxCell id="xoyJGo1EwBkPK-KZI3Pr-131" value="NO" style="edgeLabel;html=1;align=center;verticalAlign=middle;resizable=0;points=[];" connectable="0" vertex="1" parent="xoyJGo1EwBkPK-KZI3Pr-130">
          <mxGeometry x="0.0917" y="4" relative="1" as="geometry">
            <mxPoint as="offset" />
          </mxGeometry>
        </mxCell>
        <mxCell id="xoyJGo1EwBkPK-KZI3Pr-132" value="User Request Update Successful?" style="rhombus;whiteSpace=wrap;html=1;" vertex="1" parent="1">
          <mxGeometry x="1268.9999999999998" y="4249.5" width="130" height="100" as="geometry" />
        </mxCell>
        <mxCell id="xoyJGo1EwBkPK-KZI3Pr-134" value="Error Message:??" style="shape=process;whiteSpace=wrap;html=1;backgroundOutline=1;" vertex="1" parent="1">
          <mxGeometry x="1349.0199999999998" y="4109.5" width="130" height="60" as="geometry" />
        </mxCell>
        <mxCell id="xoyJGo1EwBkPK-KZI3Pr-136" value="" style="edgeStyle=orthogonalEdgeStyle;rounded=0;orthogonalLoop=1;jettySize=auto;html=1;" edge="1" parent="1" source="xoyJGo1EwBkPK-KZI3Pr-137" target="xoyJGo1EwBkPK-KZI3Pr-132">
          <mxGeometry relative="1" as="geometry" />
        </mxCell>
        <mxCell id="xoyJGo1EwBkPK-KZI3Pr-137" value="Update User Request Status to &#39;Complete&#39; in DB" style="shape=process;whiteSpace=wrap;html=1;backgroundOutline=0;fillColor=none;strokeColor=#0d0d0d;" vertex="1" parent="1">
          <mxGeometry x="1110.3299999999997" y="4249.5" width="130" height="100" as="geometry" />
        </mxCell>
        <mxCell id="xoyJGo1EwBkPK-KZI3Pr-138" value="" style="edgeStyle=orthogonalEdgeStyle;rounded=0;orthogonalLoop=1;jettySize=auto;html=1;" edge="1" parent="1" source="xoyJGo1EwBkPK-KZI3Pr-139" target="xoyJGo1EwBkPK-KZI3Pr-140">
          <mxGeometry relative="1" as="geometry" />
        </mxCell>
        <mxCell id="xoyJGo1EwBkPK-KZI3Pr-139" value="Lead Volunteer work alone???" style="shape=process;whiteSpace=wrap;html=1;backgroundOutline=1;" vertex="1" parent="1">
          <mxGeometry x="269.99999999999994" y="4119.5" width="130" height="60" as="geometry" />
        </mxCell>
        <mxCell id="xoyJGo1EwBkPK-KZI3Pr-140" value="End" style="strokeWidth=1;html=1;shape=mxgraph.flowchart.terminator;whiteSpace=wrap;fillColor=#f8cecc;strokeColor=#b85450;" vertex="1" parent="1">
          <mxGeometry x="439.99999999999994" y="4129.5" width="70" height="40" as="geometry" />
        </mxCell>
        <mxCell id="xoyJGo1EwBkPK-KZI3Pr-146" value="" style="edgeStyle=orthogonalEdgeStyle;rounded=0;orthogonalLoop=1;jettySize=auto;html=1;" edge="1" parent="1" source="xoyJGo1EwBkPK-KZI3Pr-142" target="xoyJGo1EwBkPK-KZI3Pr-143">
          <mxGeometry relative="1" as="geometry" />
        </mxCell>
        <mxCell id="xoyJGo1EwBkPK-KZI3Pr-142" value="&lt;b style=&quot;font-size: 15px;&quot;&gt;Flow (Below)&lt;/b&gt;&lt;div style=&quot;font-size: 15px;&quot;&gt;&lt;b&gt;Lead Volunteer Work with Volunteer Organization&lt;/b&gt;&lt;/div&gt;" style="shape=process;whiteSpace=wrap;html=1;backgroundOutline=0;fillColor=none;strokeColor=#000000;dashed=1;dashPattern=12 12;fontColor=#000000;" vertex="1" parent="1">
          <mxGeometry x="1229.3300000000002" y="670.63" width="347.33" height="100" as="geometry" />
        </mxCell>
        <mxCell id="xoyJGo1EwBkPK-KZI3Pr-143" value="End" style="strokeWidth=1;html=1;shape=mxgraph.flowchart.terminator;whiteSpace=wrap;fillColor=#f8cecc;strokeColor=#b85450;" vertex="1" parent="1">
          <mxGeometry x="1368" y="850" width="70" height="40" as="geometry" />
        </mxCell>
        <mxCell id="xoyJGo1EwBkPK-KZI3Pr-148" value="" style="edgeStyle=orthogonalEdgeStyle;rounded=0;orthogonalLoop=1;jettySize=auto;html=1;" edge="1" parent="1" source="xoyJGo1EwBkPK-KZI3Pr-149" target="xoyJGo1EwBkPK-KZI3Pr-150">
          <mxGeometry relative="1" as="geometry" />
        </mxCell>
        <mxCell id="xoyJGo1EwBkPK-KZI3Pr-149" value="Lead Volunteer work alone???" style="shape=process;whiteSpace=wrap;html=1;backgroundOutline=1;" vertex="1" parent="1">
          <mxGeometry x="683.6600000000001" y="4129" width="130" height="60" as="geometry" />
        </mxCell>
        <mxCell id="xoyJGo1EwBkPK-KZI3Pr-150" value="End" style="strokeWidth=1;html=1;shape=mxgraph.flowchart.terminator;whiteSpace=wrap;fillColor=#f8cecc;strokeColor=#b85450;" vertex="1" parent="1">
          <mxGeometry x="853.6600000000001" y="4139" width="70" height="40" as="geometry" />
        </mxCell>
        <mxCell id="xoyJGo1EwBkPK-KZI3Pr-155" value="&lt;b style=&quot;font-size: 15px;&quot;&gt;Flow&lt;/b&gt;&lt;div style=&quot;font-size: 15px;&quot;&gt;&lt;b&gt;New Request Processing&lt;/b&gt;&lt;/div&gt;" style="text;html=1;align=center;verticalAlign=middle;whiteSpace=wrap;rounded=0;fontSize=15;fontColor=#FF6666;strokeColor=default;" vertex="1" parent="1">
          <mxGeometry x="445.99" y="1390" width="290" height="82" as="geometry" />
        </mxCell>
        <mxCell id="FGqIPtcRsSp7028rL_cK-1" value="" style="edgeStyle=orthogonalEdgeStyle;rounded=0;orthogonalLoop=1;jettySize=auto;html=1;" edge="1" parent="1" source="FGqIPtcRsSp7028rL_cK-2" target="FGqIPtcRsSp7028rL_cK-22">
          <mxGeometry relative="1" as="geometry" />
        </mxCell>
        <mxCell id="FGqIPtcRsSp7028rL_cK-2" value="Register Requester&#39; Request in DB" style="shape=process;whiteSpace=wrap;html=1;backgroundOutline=1;" vertex="1" parent="1">
          <mxGeometry x="90" y="1655" width="120" height="100" as="geometry" />
        </mxCell>
        <mxCell id="FGqIPtcRsSp7028rL_cK-3" style="edgeStyle=orthogonalEdgeStyle;rounded=0;orthogonalLoop=1;jettySize=auto;html=1;exitX=1;exitY=0.5;exitDx=0;exitDy=0;entryX=0;entryY=0.5;entryDx=0;entryDy=0;" edge="1" parent="1" source="FGqIPtcRsSp7028rL_cK-7">
          <mxGeometry relative="1" as="geometry">
            <mxPoint x="510.00000000000006" y="1730" as="sourcePoint" />
            <mxPoint x="570" y="1725" as="targetPoint" />
          </mxGeometry>
        </mxCell>
        <mxCell id="FGqIPtcRsSp7028rL_cK-4" value="YES" style="edgeLabel;html=1;align=center;verticalAlign=middle;resizable=0;points=[];" connectable="0" vertex="1" parent="FGqIPtcRsSp7028rL_cK-3">
          <mxGeometry x="-0.1143" y="-2" relative="1" as="geometry">
            <mxPoint x="12" y="-2" as="offset" />
          </mxGeometry>
        </mxCell>
        <mxCell id="FGqIPtcRsSp7028rL_cK-5" style="edgeStyle=orthogonalEdgeStyle;rounded=0;orthogonalLoop=1;jettySize=auto;html=1;exitX=0.5;exitY=0;exitDx=0;exitDy=0;entryX=0;entryY=0.5;entryDx=0;entryDy=0;" edge="1" parent="1" source="FGqIPtcRsSp7028rL_cK-7" target="FGqIPtcRsSp7028rL_cK-11">
          <mxGeometry relative="1" as="geometry">
            <mxPoint x="460.00000000000006" y="1562.5" as="sourcePoint" />
            <mxPoint x="649.9999999999999" y="1570" as="targetPoint" />
          </mxGeometry>
        </mxCell>
        <mxCell id="FGqIPtcRsSp7028rL_cK-6" value="NO" style="edgeLabel;html=1;align=center;verticalAlign=middle;resizable=0;points=[];" connectable="0" vertex="1" parent="FGqIPtcRsSp7028rL_cK-5">
          <mxGeometry x="0.2" y="-3" relative="1" as="geometry">
            <mxPoint as="offset" />
          </mxGeometry>
        </mxCell>
        <mxCell id="FGqIPtcRsSp7028rL_cK-7" value="User Request Registration Successful?" style="rhombus;whiteSpace=wrap;html=1;" vertex="1" parent="1">
          <mxGeometry x="380.00000000000006" y="1655" width="130" height="100" as="geometry" />
        </mxCell>
        <mxCell id="FGqIPtcRsSp7028rL_cK-8" value="" style="edgeStyle=orthogonalEdgeStyle;rounded=0;orthogonalLoop=1;jettySize=auto;html=1;" edge="1" parent="1" source="FGqIPtcRsSp7028rL_cK-9" target="FGqIPtcRsSp7028rL_cK-13">
          <mxGeometry relative="1" as="geometry" />
        </mxCell>
        <mxCell id="FGqIPtcRsSp7028rL_cK-9" value="Send Successful Notification to User (Email/SMS) with Request ID" style="shape=process;whiteSpace=wrap;html=1;backgroundOutline=1;" vertex="1" parent="1">
          <mxGeometry x="570" y="1675" width="140" height="100" as="geometry" />
        </mxCell>
        <mxCell id="FGqIPtcRsSp7028rL_cK-10" value="" style="edgeStyle=orthogonalEdgeStyle;rounded=0;orthogonalLoop=1;jettySize=auto;html=1;" edge="1" parent="1" source="FGqIPtcRsSp7028rL_cK-11">
          <mxGeometry relative="1" as="geometry">
            <mxPoint x="689.9999999999999" y="1570" as="targetPoint" />
          </mxGeometry>
        </mxCell>
        <mxCell id="FGqIPtcRsSp7028rL_cK-11" value="Send Failed Registration Message to User (Email/SMS)" style="shape=process;whiteSpace=wrap;html=1;backgroundOutline=1;" vertex="1" parent="1">
          <mxGeometry x="500.00000000000006" y="1530" width="140" height="80" as="geometry" />
        </mxCell>
        <mxCell id="FGqIPtcRsSp7028rL_cK-12" value="" style="edgeStyle=orthogonalEdgeStyle;rounded=0;orthogonalLoop=1;jettySize=auto;html=1;" edge="1" parent="1" source="FGqIPtcRsSp7028rL_cK-13" target="FGqIPtcRsSp7028rL_cK-18">
          <mxGeometry relative="1" as="geometry" />
        </mxCell>
        <mxCell id="FGqIPtcRsSp7028rL_cK-13" value="Update User Request (Pending) Status in DB" style="shape=process;whiteSpace=wrap;html=1;backgroundOutline=1;" vertex="1" parent="1">
          <mxGeometry x="739.9999999999999" y="1680" width="90" height="90" as="geometry" />
        </mxCell>
        <mxCell id="FGqIPtcRsSp7028rL_cK-16" value="" style="edgeStyle=orthogonalEdgeStyle;rounded=0;orthogonalLoop=1;jettySize=auto;html=1;" edge="1" parent="1" source="FGqIPtcRsSp7028rL_cK-18" target="FGqIPtcRsSp7028rL_cK-20">
          <mxGeometry relative="1" as="geometry" />
        </mxCell>
        <mxCell id="FGqIPtcRsSp7028rL_cK-17" value="NO" style="edgeLabel;html=1;align=center;verticalAlign=middle;resizable=0;points=[];" connectable="0" vertex="1" parent="FGqIPtcRsSp7028rL_cK-16">
          <mxGeometry x="0.0917" y="4" relative="1" as="geometry">
            <mxPoint as="offset" />
          </mxGeometry>
        </mxCell>
        <mxCell id="FGqIPtcRsSp7028rL_cK-34" value="" style="edgeStyle=orthogonalEdgeStyle;rounded=0;orthogonalLoop=1;jettySize=auto;html=1;" edge="1" parent="1" source="FGqIPtcRsSp7028rL_cK-18" target="FGqIPtcRsSp7028rL_cK-32">
          <mxGeometry relative="1" as="geometry" />
        </mxCell>
        <mxCell id="FGqIPtcRsSp7028rL_cK-35" value="YES" style="edgeLabel;html=1;align=center;verticalAlign=middle;resizable=0;points=[];" connectable="0" vertex="1" parent="FGqIPtcRsSp7028rL_cK-34">
          <mxGeometry x="0.2381" y="1" relative="1" as="geometry">
            <mxPoint x="-15" y="-1" as="offset" />
          </mxGeometry>
        </mxCell>
        <mxCell id="FGqIPtcRsSp7028rL_cK-18" value="User Request Update Successful?" style="rhombus;whiteSpace=wrap;html=1;" vertex="1" parent="1">
          <mxGeometry x="880" y="1675" width="150" height="100" as="geometry" />
        </mxCell>
        <mxCell id="FGqIPtcRsSp7028rL_cK-19" style="edgeStyle=orthogonalEdgeStyle;rounded=0;orthogonalLoop=1;jettySize=auto;html=1;entryX=0;entryY=0.5;entryDx=0;entryDy=0;" edge="1" parent="1" source="FGqIPtcRsSp7028rL_cK-20">
          <mxGeometry relative="1" as="geometry">
            <mxPoint x="1160" y="1570" as="targetPoint" />
          </mxGeometry>
        </mxCell>
        <mxCell id="FGqIPtcRsSp7028rL_cK-20" value="Error Message:??" style="shape=process;whiteSpace=wrap;html=1;backgroundOutline=1;" vertex="1" parent="1">
          <mxGeometry x="889.9999999999999" y="1543" width="130" height="60" as="geometry" />
        </mxCell>
        <mxCell id="FGqIPtcRsSp7028rL_cK-21" value="" style="edgeStyle=orthogonalEdgeStyle;rounded=0;orthogonalLoop=1;jettySize=auto;html=1;" edge="1" parent="1" source="FGqIPtcRsSp7028rL_cK-22" target="FGqIPtcRsSp7028rL_cK-7">
          <mxGeometry relative="1" as="geometry" />
        </mxCell>
        <mxCell id="FGqIPtcRsSp7028rL_cK-22" value="Store Request in AWS S3" style="shape=process;whiteSpace=wrap;html=1;backgroundOutline=1;" vertex="1" parent="1">
          <mxGeometry x="250" y="1655" width="100" height="100" as="geometry" />
        </mxCell>
        <mxCell id="FGqIPtcRsSp7028rL_cK-23" value="End" style="strokeWidth=1;html=1;shape=mxgraph.flowchart.terminator;whiteSpace=wrap;fillColor=#f8cecc;strokeColor=#b85450;" vertex="1" parent="1">
          <mxGeometry x="1160" y="1550" width="70" height="40" as="geometry" />
        </mxCell>
        <mxCell id="FGqIPtcRsSp7028rL_cK-24" value="End" style="strokeWidth=1;html=1;shape=mxgraph.flowchart.terminator;whiteSpace=wrap;fillColor=#f8cecc;strokeColor=#b85450;" vertex="1" parent="1">
          <mxGeometry x="689.9999999999999" y="1550" width="70" height="40" as="geometry" />
        </mxCell>
        <mxCell id="FGqIPtcRsSp7028rL_cK-26" value="" style="edgeStyle=orthogonalEdgeStyle;rounded=0;orthogonalLoop=1;jettySize=auto;html=1;" edge="1" parent="1" source="FGqIPtcRsSp7028rL_cK-25" target="vZWiHXsYPsMk3cxd0MSJ-4">
          <mxGeometry relative="1" as="geometry" />
        </mxCell>
        <mxCell id="FGqIPtcRsSp7028rL_cK-25" value="&lt;b style=&quot;font-size: 15px;&quot;&gt;&lt;font style=&quot;font-size: 15px;&quot;&gt;Flow (Below)&lt;/font&gt;&lt;/b&gt;&lt;div style=&quot;font-size: 15px;&quot;&gt;&lt;b&gt;New Request Processing&lt;/b&gt;&lt;/div&gt;" style="shape=process;whiteSpace=wrap;html=1;backgroundOutline=0;fillColor=none;strokeColor=#000000;dashed=1;dashPattern=12 12;" vertex="1" parent="1">
          <mxGeometry x="529.6599999999999" y="485.63" width="300" height="100" as="geometry" />
        </mxCell>
        <mxCell id="FGqIPtcRsSp7028rL_cK-27" value="" style="edgeStyle=orthogonalEdgeStyle;rounded=0;orthogonalLoop=1;jettySize=auto;html=1;entryX=0;entryY=0.5;entryDx=0;entryDy=0;" edge="1" parent="1" source="xoyJGo1EwBkPK-KZI3Pr-134" target="xoyJGo1EwBkPK-KZI3Pr-135">
          <mxGeometry relative="1" as="geometry">
            <mxPoint x="1629.0199999999998" y="4139.5" as="targetPoint" />
            <mxPoint x="1479" y="4140" as="sourcePoint" />
          </mxGeometry>
        </mxCell>
        <mxCell id="xoyJGo1EwBkPK-KZI3Pr-135" value="End" style="strokeWidth=1;html=1;shape=mxgraph.flowchart.terminator;whiteSpace=wrap;fillColor=#f8cecc;strokeColor=#b85450;" vertex="1" parent="1">
          <mxGeometry x="1529.9999999999998" y="4119.5" width="70" height="40" as="geometry" />
        </mxCell>
        <mxCell id="FGqIPtcRsSp7028rL_cK-31" value="&lt;b&gt;Flow&lt;/b&gt;&lt;div&gt;&lt;b&gt;Saayam Request Handler Start-to-End Processing Flow&lt;/b&gt;&lt;/div&gt;" style="text;html=1;align=center;verticalAlign=middle;whiteSpace=wrap;rounded=0;fontSize=15;fontColor=#FF6666;strokeColor=default;" vertex="1" parent="1">
          <mxGeometry x="310" y="220" width="460" height="82" as="geometry" />
        </mxCell>
        <mxCell id="FGqIPtcRsSp7028rL_cK-32" value="&lt;b style=&quot;&quot;&gt;Flow&lt;/b&gt;&lt;div style=&quot;&quot;&gt;&lt;b style=&quot;&quot;&gt;Find Matching Volunteer&lt;/b&gt;&lt;div style=&quot;&quot;&gt;&lt;b style=&quot;&quot;&gt;Volunteer/Requester Handshake&lt;/b&gt;&lt;/div&gt;&lt;/div&gt;" style="text;html=1;align=center;verticalAlign=middle;whiteSpace=wrap;rounded=0;fontSize=15;fontColor=#000000;strokeColor=default;dashed=1;dashPattern=12 12;" vertex="1" parent="1">
          <mxGeometry x="1139" y="1650" width="290" height="150" as="geometry" />
        </mxCell>
      </root>
    </mxGraphModel>
  </diagram>
  <diagram id="tZQumK2dRPfzIr_I2Wkt" name="Use Case - New User Request">
    <mxGraphModel grid="1" page="1" gridSize="10" guides="1" tooltips="1" connect="1" arrows="1" fold="1" pageScale="1" pageWidth="1100" pageHeight="850" math="0" shadow="0">
      <root>
        <mxCell id="0" />
        <mxCell id="1" parent="0" />
        <mxCell id="mE0-omZbXqSQL_X27g0Z-1" value="Requester Module" style="rounded=1;whiteSpace=wrap;html=1;fillColor=#FFFFCC;strokeColor=#F19C99;fontSize=11;strokeWidth=2;" vertex="1" parent="1">
          <mxGeometry x="40" y="50" width="120" height="30" as="geometry" />
        </mxCell>
        <mxCell id="mE0-omZbXqSQL_X27g0Z-2" value="Request Handler Module" style="rounded=1;whiteSpace=wrap;html=1;fillColor=#FFFFCC;strokeColor=#F19C99;fontSize=11;strokeWidth=2;" vertex="1" parent="1">
          <mxGeometry x="300" y="50" width="160" height="30" as="geometry" />
        </mxCell>
        <mxCell id="mE0-omZbXqSQL_X27g0Z-3" value="Volunteer Module" style="rounded=1;whiteSpace=wrap;html=1;fillColor=#FFFFCC;strokeColor=#F19C99;fontSize=11;strokeWidth=2;" vertex="1" parent="1">
          <mxGeometry x="620" y="50" width="120" height="30" as="geometry" />
        </mxCell>
        <mxCell id="mE0-omZbXqSQL_X27g0Z-4" value="AI Module" style="rounded=1;whiteSpace=wrap;html=1;fillColor=#FFFFCC;strokeColor=#F19C99;fontSize=11;strokeWidth=2;" vertex="1" parent="1">
          <mxGeometry x="900" y="50" width="120" height="30" as="geometry" />
        </mxCell>
        <mxCell id="mE0-omZbXqSQL_X27g0Z-6" value="" style="endArrow=none;dashed=1;html=1;rounded=0;fontSize=11;" edge="1" parent="1">
          <mxGeometry width="50" height="50" relative="1" as="geometry">
            <mxPoint x="100" y="840" as="sourcePoint" />
            <mxPoint x="100" y="80" as="targetPoint" />
          </mxGeometry>
        </mxCell>
        <mxCell id="mE0-omZbXqSQL_X27g0Z-7" value="" style="endArrow=none;dashed=1;html=1;rounded=0;fontSize=11;" edge="1" parent="1">
          <mxGeometry width="50" height="50" relative="1" as="geometry">
            <mxPoint x="380" y="840" as="sourcePoint" />
            <mxPoint x="379.5" y="84" as="targetPoint" />
          </mxGeometry>
        </mxCell>
        <mxCell id="mE0-omZbXqSQL_X27g0Z-8" value="" style="endArrow=none;dashed=1;html=1;rounded=0;fontSize=11;" edge="1" parent="1">
          <mxGeometry width="50" height="50" relative="1" as="geometry">
            <mxPoint x="680" y="840" as="sourcePoint" />
            <mxPoint x="679.5" y="80" as="targetPoint" />
          </mxGeometry>
        </mxCell>
        <mxCell id="mE0-omZbXqSQL_X27g0Z-9" value="" style="endArrow=none;dashed=1;html=1;rounded=0;fontSize=11;" edge="1" parent="1">
          <mxGeometry width="50" height="50" relative="1" as="geometry">
            <mxPoint x="960" y="840" as="sourcePoint" />
            <mxPoint x="959.5" y="80" as="targetPoint" />
          </mxGeometry>
        </mxCell>
        <mxCell id="mE0-omZbXqSQL_X27g0Z-10" value="" style="endArrow=classic;html=1;rounded=0;fontSize=11;" edge="1" parent="1">
          <mxGeometry width="50" height="50" relative="1" as="geometry">
            <mxPoint x="100" y="120" as="sourcePoint" />
            <mxPoint x="380" y="120" as="targetPoint" />
          </mxGeometry>
        </mxCell>
        <mxCell id="mE0-omZbXqSQL_X27g0Z-11" value="ProcessUserRequest()" style="text;html=1;align=center;verticalAlign=middle;whiteSpace=wrap;rounded=0;fontSize=11;" vertex="1" parent="1">
          <mxGeometry x="140" y="90" width="180" height="30" as="geometry" />
        </mxCell>
        <mxCell id="mE0-omZbXqSQL_X27g0Z-14" value="Register New Request in DB" style="text;html=1;align=center;verticalAlign=middle;whiteSpace=wrap;rounded=0;fontSize=11;" vertex="1" parent="1">
          <mxGeometry x="410" y="130" width="110" height="30" as="geometry" />
        </mxCell>
        <mxCell id="mE0-omZbXqSQL_X27g0Z-15" value="" style="endArrow=classic;html=1;rounded=0;fontSize=11;" edge="1" parent="1">
          <mxGeometry width="50" height="50" relative="1" as="geometry">
            <mxPoint x="380" y="229" as="sourcePoint" />
            <mxPoint x="100" y="229" as="targetPoint" />
          </mxGeometry>
        </mxCell>
        <mxCell id="mE0-omZbXqSQL_X27g0Z-16" value="Send Success Notification to Requester (Email/SMS)&amp;nbsp;" style="text;html=1;align=center;verticalAlign=middle;whiteSpace=wrap;rounded=0;fontSize=11;" vertex="1" parent="1">
          <mxGeometry x="120" y="199" width="230" height="30" as="geometry" />
        </mxCell>
        <mxCell id="C-xMQmdubQai5SQm4YlO-3" value="" style="endArrow=classic;html=1;rounded=0;fontSize=11;" edge="1" parent="1">
          <mxGeometry width="50" height="50" relative="1" as="geometry">
            <mxPoint x="380" y="307" as="sourcePoint" />
            <mxPoint x="680" y="307" as="targetPoint" />
          </mxGeometry>
        </mxCell>
        <mxCell id="C-xMQmdubQai5SQm4YlO-4" value="Get Volunteers (Request Details)" style="text;html=1;align=center;verticalAlign=middle;whiteSpace=wrap;rounded=0;fontSize=11;" vertex="1" parent="1">
          <mxGeometry x="460" y="277" width="180" height="30" as="geometry" />
        </mxCell>
        <mxCell id="C-xMQmdubQai5SQm4YlO-8" value="" style="endArrow=classic;html=1;rounded=0;fontSize=11;" edge="1" parent="1">
          <mxGeometry width="50" height="50" relative="1" as="geometry">
            <mxPoint x="680" y="365" as="sourcePoint" />
            <mxPoint x="380" y="365" as="targetPoint" />
          </mxGeometry>
        </mxCell>
        <mxCell id="C-xMQmdubQai5SQm4YlO-11" value="Perform volunteer profile match" style="text;html=1;align=center;verticalAlign=middle;whiteSpace=wrap;rounded=0;fontSize=11;" vertex="1" parent="1">
          <mxGeometry x="710" y="321" width="110" height="30" as="geometry" />
        </mxCell>
        <mxCell id="C-xMQmdubQai5SQm4YlO-14" value="Response with Matched Volunteers (at least 1)" style="text;html=1;align=center;verticalAlign=middle;whiteSpace=wrap;rounded=0;fontSize=11;" vertex="1" parent="1">
          <mxGeometry x="450" y="335" width="180" height="30" as="geometry" />
        </mxCell>
        <mxCell id="C-xMQmdubQai5SQm4YlO-18" value="" style="endArrow=classic;html=1;rounded=0;fontSize=11;" edge="1" parent="1">
          <mxGeometry width="50" height="50" relative="1" as="geometry">
            <mxPoint x="380" y="420" as="sourcePoint" />
            <mxPoint x="680" y="420" as="targetPoint" />
          </mxGeometry>
        </mxCell>
        <mxCell id="C-xMQmdubQai5SQm4YlO-19" value="Send notification (with request details) to X volunteers" style="text;html=1;align=center;verticalAlign=middle;whiteSpace=wrap;rounded=0;fontSize=11;" vertex="1" parent="1">
          <mxGeometry x="460" y="390" width="180" height="30" as="geometry" />
        </mxCell>
        <mxCell id="C-xMQmdubQai5SQm4YlO-24" value="" style="endArrow=classic;html=1;rounded=0;fontSize=11;" edge="1" parent="1">
          <mxGeometry width="50" height="50" relative="1" as="geometry">
            <mxPoint x="680" y="475" as="sourcePoint" />
            <mxPoint x="380" y="475" as="targetPoint" />
          </mxGeometry>
        </mxCell>
        <mxCell id="C-xMQmdubQai5SQm4YlO-25" value="Response - volunteer accepting the request before Y minutes" style="text;html=1;align=center;verticalAlign=middle;whiteSpace=wrap;rounded=0;fontSize=11;" vertex="1" parent="1">
          <mxGeometry x="450" y="445" width="180" height="30" as="geometry" />
        </mxCell>
        <mxCell id="9d2yUAbv2z1ppH5cNirr-1" value="Use Case 1: New User Request with At Least One Volunteer from First Batch Accept and Alone Can Help Requester" style="text;html=1;align=center;verticalAlign=middle;whiteSpace=wrap;rounded=0;fontStyle=1;fontSize=16;" vertex="1" parent="1">
          <mxGeometry x="40" y="10" width="980" height="30" as="geometry" />
        </mxCell>
        <mxCell id="9d2yUAbv2z1ppH5cNirr-5" value="Update request status to &#39;In-Progress&#39; in DB" style="text;html=1;align=center;verticalAlign=middle;whiteSpace=wrap;rounded=0;fontSize=11;" vertex="1" parent="1">
          <mxGeometry x="420" y="494" width="140" height="30" as="geometry" />
        </mxCell>
        <mxCell id="8MP2cL9BskPpkQ_1e2wT-1" value="" style="endArrow=classic;html=1;rounded=0;fontSize=11;" edge="1" parent="1">
          <mxGeometry width="50" height="50" relative="1" as="geometry">
            <mxPoint x="680" y="765" as="sourcePoint" />
            <mxPoint x="380" y="765" as="targetPoint" />
          </mxGeometry>
        </mxCell>
        <mxCell id="8MP2cL9BskPpkQ_1e2wT-2" value="Notification - Request Complete" style="text;html=1;align=center;verticalAlign=middle;whiteSpace=wrap;rounded=0;fontSize=11;" vertex="1" parent="1">
          <mxGeometry x="450" y="735" width="180" height="30" as="geometry" />
        </mxCell>
        <mxCell id="7EGGc6A3J6hd3OpvA61o-2" value="Volunteer + Requester Completes Request Successfully" style="text;html=1;align=center;verticalAlign=middle;whiteSpace=wrap;rounded=0;fontSize=11;" vertex="1" parent="1">
          <mxGeometry x="720" y="710" width="140" height="50" as="geometry" />
        </mxCell>
        <mxCell id="7EGGc6A3J6hd3OpvA61o-4" value="Update request status to &#39;Complete&#39; in DB" style="text;html=1;align=center;verticalAlign=middle;whiteSpace=wrap;rounded=0;fontSize=11;" vertex="1" parent="1">
          <mxGeometry x="410" y="790" width="140" height="30" as="geometry" />
        </mxCell>
        <mxCell id="7EGGc6A3J6hd3OpvA61o-6" value="Update request status to &#39;Pending&#39; in DB" style="text;html=1;align=center;verticalAlign=middle;whiteSpace=wrap;rounded=0;fontSize=11;" vertex="1" parent="1">
          <mxGeometry x="410" y="242" width="140" height="30" as="geometry" />
        </mxCell>
        <mxCell id="wEJJ7mSjysebFN2_MvNr-2" value="Requester Module" style="rounded=1;whiteSpace=wrap;html=1;fillColor=#FFFFCC;strokeColor=#F19C99;fontSize=11;strokeWidth=2;" vertex="1" parent="1">
          <mxGeometry x="40" y="910" width="120" height="30" as="geometry" />
        </mxCell>
        <mxCell id="wEJJ7mSjysebFN2_MvNr-3" value="Request Handler Module" style="rounded=1;whiteSpace=wrap;html=1;fillColor=#FFFFCC;strokeColor=#F19C99;fontSize=11;strokeWidth=2;" vertex="1" parent="1">
          <mxGeometry x="300" y="910" width="170" height="30" as="geometry" />
        </mxCell>
        <mxCell id="wEJJ7mSjysebFN2_MvNr-4" value="Volunteer Module" style="rounded=1;whiteSpace=wrap;html=1;fillColor=#FFFFCC;strokeColor=#F19C99;fontSize=11;strokeWidth=2;" vertex="1" parent="1">
          <mxGeometry x="620" y="910" width="120" height="30" as="geometry" />
        </mxCell>
        <mxCell id="wEJJ7mSjysebFN2_MvNr-5" value="AI Module" style="rounded=1;whiteSpace=wrap;html=1;fillColor=#FFFFCC;strokeColor=#F19C99;fontSize=11;strokeWidth=2;" vertex="1" parent="1">
          <mxGeometry x="900" y="910" width="120" height="30" as="geometry" />
        </mxCell>
        <mxCell id="wEJJ7mSjysebFN2_MvNr-6" value="" style="endArrow=none;dashed=1;html=1;rounded=0;fontSize=11;" edge="1" parent="1">
          <mxGeometry width="50" height="50" relative="1" as="geometry">
            <mxPoint x="100" y="1670" as="sourcePoint" />
            <mxPoint x="100" y="940" as="targetPoint" />
          </mxGeometry>
        </mxCell>
        <mxCell id="wEJJ7mSjysebFN2_MvNr-7" value="" style="endArrow=none;dashed=1;html=1;rounded=0;fontSize=11;" edge="1" parent="1">
          <mxGeometry width="50" height="50" relative="1" as="geometry">
            <mxPoint x="380" y="1670" as="sourcePoint" />
            <mxPoint x="379.5" y="944" as="targetPoint" />
          </mxGeometry>
        </mxCell>
        <mxCell id="wEJJ7mSjysebFN2_MvNr-8" value="" style="endArrow=none;dashed=1;html=1;rounded=0;fontSize=11;" edge="1" parent="1">
          <mxGeometry width="50" height="50" relative="1" as="geometry">
            <mxPoint x="680" y="1670" as="sourcePoint" />
            <mxPoint x="679.5" y="940" as="targetPoint" />
          </mxGeometry>
        </mxCell>
        <mxCell id="wEJJ7mSjysebFN2_MvNr-9" value="" style="endArrow=none;dashed=1;html=1;rounded=0;fontSize=11;" edge="1" parent="1">
          <mxGeometry width="50" height="50" relative="1" as="geometry">
            <mxPoint x="960" y="1660" as="sourcePoint" />
            <mxPoint x="959.5" y="940" as="targetPoint" />
          </mxGeometry>
        </mxCell>
        <mxCell id="wEJJ7mSjysebFN2_MvNr-10" value="" style="endArrow=classic;html=1;rounded=0;fontSize=11;" edge="1" parent="1">
          <mxGeometry width="50" height="50" relative="1" as="geometry">
            <mxPoint x="100" y="990" as="sourcePoint" />
            <mxPoint x="380" y="990" as="targetPoint" />
          </mxGeometry>
        </mxCell>
        <mxCell id="wEJJ7mSjysebFN2_MvNr-11" value="ProcessUserRequest()" style="text;html=1;align=center;verticalAlign=middle;whiteSpace=wrap;rounded=0;fontSize=11;" vertex="1" parent="1">
          <mxGeometry x="140" y="960" width="180" height="30" as="geometry" />
        </mxCell>
        <mxCell id="wEJJ7mSjysebFN2_MvNr-12" value="Register New Request in DB" style="text;html=1;align=center;verticalAlign=middle;whiteSpace=wrap;rounded=0;fontSize=11;" vertex="1" parent="1">
          <mxGeometry x="410" y="1020" width="110" height="30" as="geometry" />
        </mxCell>
        <mxCell id="wEJJ7mSjysebFN2_MvNr-13" value="" style="endArrow=classic;html=1;rounded=0;fontSize=11;" edge="1" parent="1">
          <mxGeometry width="50" height="50" relative="1" as="geometry">
            <mxPoint x="380" y="1133" as="sourcePoint" />
            <mxPoint x="100" y="1133" as="targetPoint" />
          </mxGeometry>
        </mxCell>
        <mxCell id="wEJJ7mSjysebFN2_MvNr-14" value="Send Success Notification to User (Email/SMS)&amp;nbsp;" style="text;html=1;align=center;verticalAlign=middle;whiteSpace=wrap;rounded=0;fontSize=11;" vertex="1" parent="1">
          <mxGeometry x="120" y="1103" width="230" height="30" as="geometry" />
        </mxCell>
        <mxCell id="wEJJ7mSjysebFN2_MvNr-15" value="" style="endArrow=classic;html=1;rounded=0;fontSize=11;" edge="1" parent="1">
          <mxGeometry width="50" height="50" relative="1" as="geometry">
            <mxPoint x="380" y="1020" as="sourcePoint" />
            <mxPoint x="380" y="1060" as="targetPoint" />
            <Array as="points">
              <mxPoint x="400" y="1020" />
              <mxPoint x="400" y="1040" />
              <mxPoint x="400" y="1060" />
            </Array>
          </mxGeometry>
        </mxCell>
        <mxCell id="wEJJ7mSjysebFN2_MvNr-16" value="" style="endArrow=classic;html=1;rounded=0;fontSize=11;" edge="1" parent="1">
          <mxGeometry width="50" height="50" relative="1" as="geometry">
            <mxPoint x="380" y="1223" as="sourcePoint" />
            <mxPoint x="680" y="1223" as="targetPoint" />
          </mxGeometry>
        </mxCell>
        <mxCell id="wEJJ7mSjysebFN2_MvNr-17" value="Get Volunteers (Request Details)" style="text;html=1;align=center;verticalAlign=middle;whiteSpace=wrap;rounded=0;fontSize=11;" vertex="1" parent="1">
          <mxGeometry x="460" y="1193" width="180" height="30" as="geometry" />
        </mxCell>
        <mxCell id="wEJJ7mSjysebFN2_MvNr-18" value="" style="endArrow=classic;html=1;rounded=0;fontSize=11;" edge="1" parent="1">
          <mxGeometry width="50" height="50" relative="1" as="geometry">
            <mxPoint x="680" y="1303" as="sourcePoint" />
            <mxPoint x="380" y="1303" as="targetPoint" />
          </mxGeometry>
        </mxCell>
        <mxCell id="wEJJ7mSjysebFN2_MvNr-19" value="" style="endArrow=classic;html=1;rounded=0;fontSize=11;" edge="1" parent="1">
          <mxGeometry width="50" height="50" relative="1" as="geometry">
            <mxPoint x="680" y="1243" as="sourcePoint" />
            <mxPoint x="680" y="1283" as="targetPoint" />
            <Array as="points">
              <mxPoint x="700" y="1243" />
              <mxPoint x="700" y="1263" />
              <mxPoint x="700" y="1283" />
            </Array>
          </mxGeometry>
        </mxCell>
        <mxCell id="wEJJ7mSjysebFN2_MvNr-20" value="Perform volunteer profile match" style="text;html=1;align=center;verticalAlign=middle;whiteSpace=wrap;rounded=0;fontSize=11;" vertex="1" parent="1">
          <mxGeometry x="710" y="1243" width="110" height="30" as="geometry" />
        </mxCell>
        <mxCell id="wEJJ7mSjysebFN2_MvNr-21" value="Response with No Matched Volunteers Found (0 volunteers)" style="text;html=1;align=center;verticalAlign=middle;whiteSpace=wrap;rounded=0;fontSize=11;" vertex="1" parent="1">
          <mxGeometry x="450" y="1273" width="180" height="30" as="geometry" />
        </mxCell>
        <mxCell id="wEJJ7mSjysebFN2_MvNr-22" value="" style="endArrow=classic;html=1;rounded=0;fontSize=11;" edge="1" parent="1">
          <mxGeometry width="50" height="50" relative="1" as="geometry">
            <mxPoint x="380" y="1358" as="sourcePoint" />
            <mxPoint x="960" y="1358" as="targetPoint" />
          </mxGeometry>
        </mxCell>
        <mxCell id="wEJJ7mSjysebFN2_MvNr-23" value="Get Response from AI - request details" style="text;html=1;align=center;verticalAlign=middle;whiteSpace=wrap;rounded=0;fontSize=11;" vertex="1" parent="1">
          <mxGeometry x="460" y="1328" width="180" height="30" as="geometry" />
        </mxCell>
        <mxCell id="wEJJ7mSjysebFN2_MvNr-24" value="" style="endArrow=classic;html=1;rounded=0;fontSize=11;" edge="1" parent="1">
          <mxGeometry width="50" height="50" relative="1" as="geometry">
            <mxPoint x="960" y="1413" as="sourcePoint" />
            <mxPoint x="380" y="1413" as="targetPoint" />
          </mxGeometry>
        </mxCell>
        <mxCell id="wEJJ7mSjysebFN2_MvNr-25" value="Response - Generated by AI" style="text;html=1;align=center;verticalAlign=middle;whiteSpace=wrap;rounded=0;fontSize=11;" vertex="1" parent="1">
          <mxGeometry x="450" y="1383" width="180" height="30" as="geometry" />
        </mxCell>
        <mxCell id="wEJJ7mSjysebFN2_MvNr-26" value="Use Case 2: New User Request with No Matching Volunteer Found" style="text;html=1;align=center;verticalAlign=middle;whiteSpace=wrap;rounded=0;fontStyle=1;fontSize=16;" vertex="1" parent="1">
          <mxGeometry x="80" y="870" width="930" height="30" as="geometry" />
        </mxCell>
        <mxCell id="wEJJ7mSjysebFN2_MvNr-27" value="" style="endArrow=classic;html=1;rounded=0;fontSize=11;" edge="1" parent="1">
          <mxGeometry width="50" height="50" relative="1" as="geometry">
            <mxPoint x="380" y="1433" as="sourcePoint" />
            <mxPoint x="380" y="1473" as="targetPoint" />
            <Array as="points">
              <mxPoint x="400" y="1433" />
              <mxPoint x="400" y="1453" />
              <mxPoint x="400" y="1473" />
            </Array>
          </mxGeometry>
        </mxCell>
        <mxCell id="wEJJ7mSjysebFN2_MvNr-28" value="Update request status to &#39;In-Progress&#39; in DB" style="text;html=1;align=center;verticalAlign=middle;whiteSpace=wrap;rounded=0;fontSize=11;" vertex="1" parent="1">
          <mxGeometry x="410" y="1433" width="140" height="30" as="geometry" />
        </mxCell>
        <mxCell id="wEJJ7mSjysebFN2_MvNr-33" value="" style="endArrow=classic;html=1;rounded=0;fontSize=11;" edge="1" parent="1">
          <mxGeometry width="50" height="50" relative="1" as="geometry">
            <mxPoint x="380" y="1513" as="sourcePoint" />
            <mxPoint x="380" y="1553" as="targetPoint" />
            <Array as="points">
              <mxPoint x="400" y="1513" />
              <mxPoint x="400" y="1533" />
              <mxPoint x="400" y="1553" />
            </Array>
          </mxGeometry>
        </mxCell>
        <mxCell id="wEJJ7mSjysebFN2_MvNr-34" value="Update request status to &#39;Complete&#39; in DB" style="text;html=1;align=center;verticalAlign=middle;whiteSpace=wrap;rounded=0;fontSize=11;" vertex="1" parent="1">
          <mxGeometry x="410" y="1513" width="140" height="30" as="geometry" />
        </mxCell>
        <mxCell id="wEJJ7mSjysebFN2_MvNr-35" value="" style="endArrow=classic;html=1;rounded=0;fontSize=11;" edge="1" parent="1">
          <mxGeometry width="50" height="50" relative="1" as="geometry">
            <mxPoint x="380" y="1153" as="sourcePoint" />
            <mxPoint x="380" y="1193" as="targetPoint" />
            <Array as="points">
              <mxPoint x="400" y="1153" />
              <mxPoint x="400" y="1173" />
              <mxPoint x="400" y="1193" />
            </Array>
          </mxGeometry>
        </mxCell>
        <mxCell id="wEJJ7mSjysebFN2_MvNr-36" value="Update request status to &#39;Pending&#39; in DB" style="text;html=1;align=center;verticalAlign=middle;whiteSpace=wrap;rounded=0;fontSize=11;" vertex="1" parent="1">
          <mxGeometry x="410" y="1153" width="140" height="30" as="geometry" />
        </mxCell>
        <mxCell id="wEJJ7mSjysebFN2_MvNr-37" value="Requester Module" style="rounded=1;whiteSpace=wrap;html=1;fillColor=#FFFFCC;strokeColor=#F19C99;fontSize=11;strokeWidth=2;" vertex="1" parent="1">
          <mxGeometry x="40" y="1760" width="120" height="30" as="geometry" />
        </mxCell>
        <mxCell id="wEJJ7mSjysebFN2_MvNr-38" value="Request Handler Module" style="rounded=1;whiteSpace=wrap;html=1;fillColor=#FFFFCC;strokeColor=#F19C99;fontSize=11;strokeWidth=2;" vertex="1" parent="1">
          <mxGeometry x="300" y="1760" width="160" height="30" as="geometry" />
        </mxCell>
        <mxCell id="wEJJ7mSjysebFN2_MvNr-39" value="Volunteer Module" style="rounded=1;whiteSpace=wrap;html=1;fillColor=#FFFFCC;strokeColor=#F19C99;fontSize=11;strokeWidth=2;" vertex="1" parent="1">
          <mxGeometry x="620" y="1760" width="120" height="30" as="geometry" />
        </mxCell>
        <mxCell id="wEJJ7mSjysebFN2_MvNr-40" value="AI Module" style="rounded=1;whiteSpace=wrap;html=1;fillColor=#FFFFCC;strokeColor=#F19C99;fontSize=11;strokeWidth=2;" vertex="1" parent="1">
          <mxGeometry x="900" y="1760" width="120" height="30" as="geometry" />
        </mxCell>
        <mxCell id="wEJJ7mSjysebFN2_MvNr-41" value="" style="endArrow=none;dashed=1;html=1;rounded=0;fontSize=11;" edge="1" parent="1">
          <mxGeometry width="50" height="50" relative="1" as="geometry">
            <mxPoint x="100" y="2540" as="sourcePoint" />
            <mxPoint x="100" y="1790" as="targetPoint" />
          </mxGeometry>
        </mxCell>
        <mxCell id="wEJJ7mSjysebFN2_MvNr-42" value="" style="endArrow=none;dashed=1;html=1;rounded=0;fontSize=11;exitX=0.486;exitY=1.06;exitDx=0;exitDy=0;exitPerimeter=0;" edge="1" parent="1" source="kI7w-iQjbyMLGUJ2kBs6-18">
          <mxGeometry width="50" height="50" relative="1" as="geometry">
            <mxPoint x="380" y="2520" as="sourcePoint" />
            <mxPoint x="379.5" y="1794" as="targetPoint" />
          </mxGeometry>
        </mxCell>
        <mxCell id="wEJJ7mSjysebFN2_MvNr-43" value="" style="endArrow=none;dashed=1;html=1;rounded=0;fontSize=11;" edge="1" parent="1">
          <mxGeometry width="50" height="50" relative="1" as="geometry">
            <mxPoint x="680" y="2540" as="sourcePoint" />
            <mxPoint x="679.5" y="1790" as="targetPoint" />
          </mxGeometry>
        </mxCell>
        <mxCell id="wEJJ7mSjysebFN2_MvNr-44" value="" style="endArrow=none;dashed=1;html=1;rounded=0;fontSize=11;" edge="1" parent="1">
          <mxGeometry width="50" height="50" relative="1" as="geometry">
            <mxPoint x="960" y="2540" as="sourcePoint" />
            <mxPoint x="959.5" y="1790" as="targetPoint" />
          </mxGeometry>
        </mxCell>
        <mxCell id="wEJJ7mSjysebFN2_MvNr-45" value="" style="endArrow=classic;html=1;rounded=0;fontSize=11;" edge="1" parent="1">
          <mxGeometry width="50" height="50" relative="1" as="geometry">
            <mxPoint x="100" y="1828" as="sourcePoint" />
            <mxPoint x="380" y="1828" as="targetPoint" />
          </mxGeometry>
        </mxCell>
        <mxCell id="wEJJ7mSjysebFN2_MvNr-46" value="ProcessUserRequest()" style="text;html=1;align=center;verticalAlign=middle;whiteSpace=wrap;rounded=0;fontSize=11;" vertex="1" parent="1">
          <mxGeometry x="140" y="1798" width="180" height="30" as="geometry" />
        </mxCell>
        <mxCell id="wEJJ7mSjysebFN2_MvNr-47" value="Register New Request in DB" style="text;html=1;align=center;verticalAlign=middle;whiteSpace=wrap;rounded=0;fontSize=11;" vertex="1" parent="1">
          <mxGeometry x="410" y="1836" width="110" height="30" as="geometry" />
        </mxCell>
        <mxCell id="wEJJ7mSjysebFN2_MvNr-48" value="" style="endArrow=classic;html=1;rounded=0;fontSize=11;" edge="1" parent="1">
          <mxGeometry width="50" height="50" relative="1" as="geometry">
            <mxPoint x="380" y="1919" as="sourcePoint" />
            <mxPoint x="100" y="1919" as="targetPoint" />
          </mxGeometry>
        </mxCell>
        <mxCell id="wEJJ7mSjysebFN2_MvNr-49" value="Send Success Notification to User (Email/SMS)&amp;nbsp;" style="text;html=1;align=center;verticalAlign=middle;whiteSpace=wrap;rounded=0;fontSize=11;" vertex="1" parent="1">
          <mxGeometry x="120" y="1889" width="230" height="30" as="geometry" />
        </mxCell>
        <mxCell id="wEJJ7mSjysebFN2_MvNr-51" value="" style="endArrow=classic;html=1;rounded=0;fontSize=11;" edge="1" parent="1">
          <mxGeometry width="50" height="50" relative="1" as="geometry">
            <mxPoint x="380" y="1988" as="sourcePoint" />
            <mxPoint x="680" y="1988" as="targetPoint" />
          </mxGeometry>
        </mxCell>
        <mxCell id="wEJJ7mSjysebFN2_MvNr-52" value="Get Volunteers (Request Details)" style="text;html=1;align=center;verticalAlign=middle;whiteSpace=wrap;rounded=0;fontSize=11;" vertex="1" parent="1">
          <mxGeometry x="440" y="1958" width="200" height="30" as="geometry" />
        </mxCell>
        <mxCell id="wEJJ7mSjysebFN2_MvNr-53" value="" style="endArrow=classic;html=1;rounded=0;fontSize=11;" edge="1" parent="1">
          <mxGeometry width="50" height="50" relative="1" as="geometry">
            <mxPoint x="680" y="2040" as="sourcePoint" />
            <mxPoint x="380" y="2040" as="targetPoint" />
          </mxGeometry>
        </mxCell>
        <mxCell id="wEJJ7mSjysebFN2_MvNr-55" value="Perform volunteer profile match" style="text;html=1;align=center;verticalAlign=middle;whiteSpace=wrap;rounded=0;fontSize=11;" vertex="1" parent="1">
          <mxGeometry x="710" y="1995" width="110" height="30" as="geometry" />
        </mxCell>
        <mxCell id="wEJJ7mSjysebFN2_MvNr-56" value="Response with Matched Volunteers (at least 1)" style="text;html=1;align=center;verticalAlign=middle;whiteSpace=wrap;rounded=0;fontSize=11;" vertex="1" parent="1">
          <mxGeometry x="450" y="2010" width="180" height="30" as="geometry" />
        </mxCell>
        <mxCell id="wEJJ7mSjysebFN2_MvNr-57" value="" style="endArrow=classic;html=1;rounded=0;fontSize=11;" edge="1" parent="1">
          <mxGeometry width="50" height="50" relative="1" as="geometry">
            <mxPoint x="380" y="2082" as="sourcePoint" />
            <mxPoint x="680" y="2082" as="targetPoint" />
          </mxGeometry>
        </mxCell>
        <mxCell id="wEJJ7mSjysebFN2_MvNr-58" value="Send notification (with request details) to X volunteers" style="text;html=1;align=center;verticalAlign=middle;whiteSpace=wrap;rounded=0;fontSize=11;" vertex="1" parent="1">
          <mxGeometry x="460" y="2052" width="180" height="30" as="geometry" />
        </mxCell>
        <mxCell id="wEJJ7mSjysebFN2_MvNr-59" value="" style="endArrow=classic;html=1;rounded=0;fontSize=11;" edge="1" parent="1">
          <mxGeometry width="50" height="50" relative="1" as="geometry">
            <mxPoint x="680" y="2200" as="sourcePoint" />
            <mxPoint x="380" y="2200" as="targetPoint" />
          </mxGeometry>
        </mxCell>
        <mxCell id="wEJJ7mSjysebFN2_MvNr-60" value="Response - volunteer accepting the request before Y minutes" style="text;html=1;align=center;verticalAlign=middle;whiteSpace=wrap;rounded=0;fontSize=11;" vertex="1" parent="1">
          <mxGeometry x="450" y="2170" width="180" height="30" as="geometry" />
        </mxCell>
        <mxCell id="wEJJ7mSjysebFN2_MvNr-61" value="Use Case 3: New User Request with No Volunteer Accept from First Batch but Accept After&amp;nbsp;" style="text;html=1;align=center;verticalAlign=middle;whiteSpace=wrap;rounded=0;fontStyle=1;fontSize=16;" vertex="1" parent="1">
          <mxGeometry x="80" y="1710" width="930" height="30" as="geometry" />
        </mxCell>
        <mxCell id="wEJJ7mSjysebFN2_MvNr-63" value="Update request status to &#39;In-Progress&#39; in DB" style="text;html=1;align=center;verticalAlign=middle;whiteSpace=wrap;rounded=0;fontSize=11;" vertex="1" parent="1">
          <mxGeometry x="427" y="2216" width="140" height="30" as="geometry" />
        </mxCell>
        <mxCell id="wEJJ7mSjysebFN2_MvNr-64" value="" style="endArrow=classic;html=1;rounded=0;fontSize=11;" edge="1" parent="1">
          <mxGeometry width="50" height="50" relative="1" as="geometry">
            <mxPoint x="687" y="2469" as="sourcePoint" />
            <mxPoint x="387" y="2469" as="targetPoint" />
          </mxGeometry>
        </mxCell>
        <mxCell id="wEJJ7mSjysebFN2_MvNr-65" value="Notification - Request Complete" style="text;html=1;align=center;verticalAlign=middle;whiteSpace=wrap;rounded=0;fontSize=11;" vertex="1" parent="1">
          <mxGeometry x="457" y="2439" width="180" height="30" as="geometry" />
        </mxCell>
        <mxCell id="wEJJ7mSjysebFN2_MvNr-67" value="Volunteer + Requester Completes Request Successfully" style="text;html=1;align=center;verticalAlign=middle;whiteSpace=wrap;rounded=0;fontSize=11;" vertex="1" parent="1">
          <mxGeometry x="710" y="2395" width="160" height="60" as="geometry" />
        </mxCell>
        <mxCell id="wEJJ7mSjysebFN2_MvNr-69" value="Update request status to &#39;Complete&#39; in DB" style="text;html=1;align=center;verticalAlign=middle;whiteSpace=wrap;rounded=0;fontSize=11;" vertex="1" parent="1">
          <mxGeometry x="417" y="2491" width="140" height="30" as="geometry" />
        </mxCell>
        <mxCell id="wEJJ7mSjysebFN2_MvNr-72" value="" style="endArrow=classic;html=1;rounded=0;fontSize=11;" edge="1" parent="1">
          <mxGeometry width="50" height="50" relative="1" as="geometry">
            <mxPoint x="380" y="1493" as="sourcePoint" />
            <mxPoint x="100" y="1493" as="targetPoint" />
          </mxGeometry>
        </mxCell>
        <mxCell id="wEJJ7mSjysebFN2_MvNr-73" value="Send AI Generated response to user&amp;nbsp;" style="text;html=1;align=center;verticalAlign=middle;whiteSpace=wrap;rounded=0;fontSize=11;" vertex="1" parent="1">
          <mxGeometry x="160" y="1463" width="180" height="30" as="geometry" />
        </mxCell>
        <mxCell id="wEJJ7mSjysebFN2_MvNr-75" value="No Accept Response: Y minutes" style="text;html=1;align=center;verticalAlign=middle;whiteSpace=wrap;rounded=0;fontSize=11;" vertex="1" parent="1">
          <mxGeometry x="409" y="2090" width="190" height="30" as="geometry" />
        </mxCell>
        <mxCell id="wEJJ7mSjysebFN2_MvNr-76" value="" style="endArrow=classic;html=1;rounded=0;fontSize=11;" edge="1" parent="1">
          <mxGeometry width="50" height="50" relative="1" as="geometry">
            <mxPoint x="380" y="2150" as="sourcePoint" />
            <mxPoint x="680" y="2150" as="targetPoint" />
          </mxGeometry>
        </mxCell>
        <mxCell id="wEJJ7mSjysebFN2_MvNr-77" value="Send notification (with request details) to next X volunteers" style="text;html=1;align=center;verticalAlign=middle;whiteSpace=wrap;rounded=0;fontSize=11;" vertex="1" parent="1">
          <mxGeometry x="460" y="2120" width="180" height="30" as="geometry" />
        </mxCell>
        <mxCell id="lu4j1gDDMp9CwyDYqLME-79" value="Store request in AWS S3" style="text;html=1;align=center;verticalAlign=middle;whiteSpace=wrap;rounded=0;fontSize=11;" vertex="1" parent="1">
          <mxGeometry x="419" y="168" width="110" height="30" as="geometry" />
        </mxCell>
        <mxCell id="lu4j1gDDMp9CwyDYqLME-83" value="" style="endArrow=classic;html=1;rounded=0;fontSize=11;" edge="1" parent="1">
          <mxGeometry width="50" height="50" relative="1" as="geometry">
            <mxPoint x="380" y="242" as="sourcePoint" />
            <mxPoint x="380" y="262" as="targetPoint" />
            <Array as="points">
              <mxPoint x="410" y="242" />
              <mxPoint x="410" y="262" />
            </Array>
          </mxGeometry>
        </mxCell>
        <mxCell id="lu4j1gDDMp9CwyDYqLME-84" value="" style="endArrow=classic;html=1;rounded=0;fontSize=11;" edge="1" parent="1">
          <mxGeometry width="50" height="50" relative="1" as="geometry">
            <mxPoint x="380" y="135" as="sourcePoint" />
            <mxPoint x="380" y="155" as="targetPoint" />
            <Array as="points">
              <mxPoint x="410" y="135" />
              <mxPoint x="410" y="155" />
            </Array>
          </mxGeometry>
        </mxCell>
        <mxCell id="lu4j1gDDMp9CwyDYqLME-85" value="" style="endArrow=classic;html=1;rounded=0;fontSize=11;" edge="1" parent="1">
          <mxGeometry width="50" height="50" relative="1" as="geometry">
            <mxPoint x="380" y="170" as="sourcePoint" />
            <mxPoint x="380" y="190" as="targetPoint" />
            <Array as="points">
              <mxPoint x="410" y="170" />
              <mxPoint x="410" y="190" />
            </Array>
          </mxGeometry>
        </mxCell>
        <mxCell id="lu4j1gDDMp9CwyDYqLME-86" value="" style="endArrow=classic;html=1;rounded=0;fontSize=11;" edge="1" parent="1">
          <mxGeometry width="50" height="50" relative="1" as="geometry">
            <mxPoint x="380" y="497" as="sourcePoint" />
            <mxPoint x="380" y="517" as="targetPoint" />
            <Array as="points">
              <mxPoint x="410" y="497" />
              <mxPoint x="410" y="517" />
            </Array>
          </mxGeometry>
        </mxCell>
        <mxCell id="lu4j1gDDMp9CwyDYqLME-87" value="" style="endArrow=classic;html=1;rounded=0;fontSize=11;" edge="1" parent="1">
          <mxGeometry width="50" height="50" relative="1" as="geometry">
            <mxPoint x="380" y="790" as="sourcePoint" />
            <mxPoint x="380" y="810" as="targetPoint" />
            <Array as="points">
              <mxPoint x="410" y="790" />
              <mxPoint x="410" y="810" />
            </Array>
          </mxGeometry>
        </mxCell>
        <mxCell id="r7W80A6CVtrfDU3AI7My-1" value="" style="endArrow=classic;html=1;rounded=0;fontSize=11;" edge="1" parent="1">
          <mxGeometry width="50" height="50" relative="1" as="geometry">
            <mxPoint x="680" y="321" as="sourcePoint" />
            <mxPoint x="680" y="341" as="targetPoint" />
            <Array as="points">
              <mxPoint x="710" y="321" />
              <mxPoint x="710" y="341" />
            </Array>
          </mxGeometry>
        </mxCell>
        <mxCell id="r7W80A6CVtrfDU3AI7My-5" value="" style="endArrow=classic;html=1;rounded=0;fontSize=11;" edge="1" parent="1">
          <mxGeometry width="50" height="50" relative="1" as="geometry">
            <mxPoint x="680" y="722" as="sourcePoint" />
            <mxPoint x="680" y="742" as="targetPoint" />
            <Array as="points">
              <mxPoint x="710" y="722" />
              <mxPoint x="710" y="742" />
            </Array>
          </mxGeometry>
        </mxCell>
        <mxCell id="r7W80A6CVtrfDU3AI7My-6" value="Generate OTP" style="text;html=1;align=center;verticalAlign=middle;whiteSpace=wrap;rounded=0;fontSize=11;" vertex="1" parent="1">
          <mxGeometry x="419" y="532" width="110" height="30" as="geometry" />
        </mxCell>
        <mxCell id="r7W80A6CVtrfDU3AI7My-7" value="" style="endArrow=classic;html=1;rounded=0;fontSize=11;" edge="1" parent="1">
          <mxGeometry width="50" height="50" relative="1" as="geometry">
            <mxPoint x="379" y="537" as="sourcePoint" />
            <mxPoint x="379" y="557" as="targetPoint" />
            <Array as="points">
              <mxPoint x="409" y="537" />
              <mxPoint x="409" y="557" />
            </Array>
          </mxGeometry>
        </mxCell>
        <mxCell id="r7W80A6CVtrfDU3AI7My-8" value="" style="endArrow=classic;html=1;rounded=0;fontSize=11;" edge="1" parent="1">
          <mxGeometry width="50" height="50" relative="1" as="geometry">
            <mxPoint x="380" y="591" as="sourcePoint" />
            <mxPoint x="100" y="591" as="targetPoint" />
          </mxGeometry>
        </mxCell>
        <mxCell id="r7W80A6CVtrfDU3AI7My-9" value="Send OTP to Requestor" style="text;html=1;align=center;verticalAlign=middle;whiteSpace=wrap;rounded=0;fontSize=11;" vertex="1" parent="1">
          <mxGeometry x="120" y="561" width="230" height="30" as="geometry" />
        </mxCell>
        <mxCell id="r7W80A6CVtrfDU3AI7My-10" value="" style="endArrow=classic;html=1;rounded=0;fontSize=11;" edge="1" parent="1">
          <mxGeometry width="50" height="50" relative="1" as="geometry">
            <mxPoint x="380" y="610" as="sourcePoint" />
            <mxPoint x="680" y="610" as="targetPoint" />
          </mxGeometry>
        </mxCell>
        <mxCell id="r7W80A6CVtrfDU3AI7My-11" value="Send OTP to Volunteer" style="text;html=1;align=center;verticalAlign=middle;whiteSpace=wrap;rounded=0;fontSize=11;" vertex="1" parent="1">
          <mxGeometry x="460" y="581" width="180" height="30" as="geometry" />
        </mxCell>
        <mxCell id="r7W80A6CVtrfDU3AI7My-13" value="Handshake between Requester and Volunteer" style="verticalLabelPosition=middle;verticalAlign=middle;html=1;shape=trapezoid;perimeter=trapezoidPerimeter;whiteSpace=wrap;size=0.23;arcSize=10;flipV=1;labelPosition=center;align=center;fillColor=#FFFFCC;strokeColor=#FF6666;" vertex="1" parent="1">
          <mxGeometry x="100" y="630" width="580" height="30" as="geometry" />
        </mxCell>
        <mxCell id="r7W80A6CVtrfDU3AI7My-14" value="Store Request in AWS S3" style="text;html=1;align=center;verticalAlign=middle;whiteSpace=wrap;rounded=0;fontSize=11;" vertex="1" parent="1">
          <mxGeometry x="410" y="1080" width="110" height="30" as="geometry" />
        </mxCell>
        <mxCell id="r7W80A6CVtrfDU3AI7My-15" value="" style="endArrow=classic;html=1;rounded=0;fontSize=11;" edge="1" parent="1">
          <mxGeometry width="50" height="50" relative="1" as="geometry">
            <mxPoint x="380" y="1080" as="sourcePoint" />
            <mxPoint x="380" y="1120" as="targetPoint" />
            <Array as="points">
              <mxPoint x="400" y="1080" />
              <mxPoint x="400" y="1100" />
              <mxPoint x="400" y="1120" />
            </Array>
          </mxGeometry>
        </mxCell>
        <mxCell id="r7W80A6CVtrfDU3AI7My-16" value="Store Request in AWS S3" style="text;html=1;align=center;verticalAlign=middle;whiteSpace=wrap;rounded=0;fontSize=11;" vertex="1" parent="1">
          <mxGeometry x="411" y="1872" width="110" height="30" as="geometry" />
        </mxCell>
        <mxCell id="kI7w-iQjbyMLGUJ2kBs6-6" value="" style="endArrow=classic;html=1;rounded=0;fontSize=11;" edge="1" parent="1">
          <mxGeometry width="50" height="50" relative="1" as="geometry">
            <mxPoint x="381" y="1876" as="sourcePoint" />
            <mxPoint x="381" y="1896" as="targetPoint" />
            <Array as="points">
              <mxPoint x="411" y="1876" />
              <mxPoint x="411" y="1896" />
            </Array>
          </mxGeometry>
        </mxCell>
        <mxCell id="kI7w-iQjbyMLGUJ2kBs6-7" value="" style="endArrow=classic;html=1;rounded=0;fontSize=11;" edge="1" parent="1">
          <mxGeometry width="50" height="50" relative="1" as="geometry">
            <mxPoint x="381" y="1839" as="sourcePoint" />
            <mxPoint x="381" y="1859" as="targetPoint" />
            <Array as="points">
              <mxPoint x="411" y="1839" />
              <mxPoint x="411" y="1859" />
            </Array>
          </mxGeometry>
        </mxCell>
        <mxCell id="kI7w-iQjbyMLGUJ2kBs6-8" value="" style="endArrow=classic;html=1;rounded=0;fontSize=11;" edge="1" parent="1">
          <mxGeometry width="50" height="50" relative="1" as="geometry">
            <mxPoint x="381" y="1930" as="sourcePoint" />
            <mxPoint x="381" y="1950" as="targetPoint" />
            <Array as="points">
              <mxPoint x="411" y="1930" />
              <mxPoint x="411" y="1950" />
            </Array>
          </mxGeometry>
        </mxCell>
        <mxCell id="kI7w-iQjbyMLGUJ2kBs6-10" value="" style="endArrow=classic;html=1;rounded=0;fontSize=11;" edge="1" parent="1">
          <mxGeometry width="50" height="50" relative="1" as="geometry">
            <mxPoint x="680" y="2000" as="sourcePoint" />
            <mxPoint x="680" y="2020" as="targetPoint" />
            <Array as="points">
              <mxPoint x="710" y="2000" />
              <mxPoint x="710" y="2020" />
            </Array>
          </mxGeometry>
        </mxCell>
        <mxCell id="kI7w-iQjbyMLGUJ2kBs6-11" value="" style="endArrow=classic;html=1;rounded=0;fontSize=11;" edge="1" parent="1">
          <mxGeometry width="50" height="50" relative="1" as="geometry">
            <mxPoint x="381" y="2097" as="sourcePoint" />
            <mxPoint x="381" y="2117" as="targetPoint" />
            <Array as="points">
              <mxPoint x="411" y="2097" />
              <mxPoint x="411" y="2117" />
            </Array>
          </mxGeometry>
        </mxCell>
        <mxCell id="kI7w-iQjbyMLGUJ2kBs6-12" value="Generate OTP" style="text;html=1;align=center;verticalAlign=middle;whiteSpace=wrap;rounded=0;fontSize=11;" vertex="1" parent="1">
          <mxGeometry x="421" y="2246" width="110" height="30" as="geometry" />
        </mxCell>
        <mxCell id="kI7w-iQjbyMLGUJ2kBs6-13" value="" style="endArrow=classic;html=1;rounded=0;fontSize=11;" edge="1" parent="1">
          <mxGeometry width="50" height="50" relative="1" as="geometry">
            <mxPoint x="381" y="2251" as="sourcePoint" />
            <mxPoint x="381" y="2271" as="targetPoint" />
            <Array as="points">
              <mxPoint x="411" y="2251" />
              <mxPoint x="411" y="2271" />
            </Array>
          </mxGeometry>
        </mxCell>
        <mxCell id="kI7w-iQjbyMLGUJ2kBs6-14" value="" style="endArrow=classic;html=1;rounded=0;fontSize=11;" edge="1" parent="1">
          <mxGeometry width="50" height="50" relative="1" as="geometry">
            <mxPoint x="380" y="2296" as="sourcePoint" />
            <mxPoint x="100" y="2296" as="targetPoint" />
          </mxGeometry>
        </mxCell>
        <mxCell id="kI7w-iQjbyMLGUJ2kBs6-15" value="Send OTP to Requestor" style="text;html=1;align=center;verticalAlign=middle;whiteSpace=wrap;rounded=0;fontSize=11;" vertex="1" parent="1">
          <mxGeometry x="120" y="2266" width="230" height="30" as="geometry" />
        </mxCell>
        <mxCell id="kI7w-iQjbyMLGUJ2kBs6-16" value="" style="endArrow=classic;html=1;rounded=0;fontSize=11;" edge="1" parent="1">
          <mxGeometry width="50" height="50" relative="1" as="geometry">
            <mxPoint x="380" y="2310" as="sourcePoint" />
            <mxPoint x="680" y="2310" as="targetPoint" />
          </mxGeometry>
        </mxCell>
        <mxCell id="kI7w-iQjbyMLGUJ2kBs6-17" value="Send OTP to Volunteer" style="text;html=1;align=center;verticalAlign=middle;whiteSpace=wrap;rounded=0;fontSize=11;" vertex="1" parent="1">
          <mxGeometry x="460" y="2279" width="180" height="30" as="geometry" />
        </mxCell>
        <mxCell id="kI7w-iQjbyMLGUJ2kBs6-19" value="" style="endArrow=classic;html=1;rounded=0;fontSize=11;" edge="1" parent="1">
          <mxGeometry width="50" height="50" relative="1" as="geometry">
            <mxPoint x="381" y="2217" as="sourcePoint" />
            <mxPoint x="381" y="2237" as="targetPoint" />
            <Array as="points">
              <mxPoint x="411" y="2217" />
              <mxPoint x="411" y="2237" />
            </Array>
          </mxGeometry>
        </mxCell>
        <mxCell id="kI7w-iQjbyMLGUJ2kBs6-20" value="" style="endArrow=none;dashed=1;html=1;rounded=0;fontSize=11;" edge="1" parent="1" target="kI7w-iQjbyMLGUJ2kBs6-18">
          <mxGeometry width="50" height="50" relative="1" as="geometry">
            <mxPoint x="389" y="2540" as="sourcePoint" />
            <mxPoint x="379.5" y="1794" as="targetPoint" />
          </mxGeometry>
        </mxCell>
        <mxCell id="kI7w-iQjbyMLGUJ2kBs6-18" value="Handshake between Requester and Volunteer" style="verticalLabelPosition=middle;verticalAlign=middle;html=1;shape=trapezoid;perimeter=trapezoidPerimeter;whiteSpace=wrap;size=0.23;arcSize=10;flipV=1;labelPosition=center;align=center;fillColor=#FFFFCC;strokeColor=#FF6666;" vertex="1" parent="1">
          <mxGeometry x="99" y="2330" width="580" height="30" as="geometry" />
        </mxCell>
        <mxCell id="kI7w-iQjbyMLGUJ2kBs6-22" value="" style="endArrow=classic;html=1;rounded=0;fontSize=11;" edge="1" parent="1">
          <mxGeometry width="50" height="50" relative="1" as="geometry">
            <mxPoint x="680" y="2409" as="sourcePoint" />
            <mxPoint x="680" y="2429" as="targetPoint" />
            <Array as="points">
              <mxPoint x="710" y="2409" />
              <mxPoint x="710" y="2429" />
            </Array>
          </mxGeometry>
        </mxCell>
        <mxCell id="kI7w-iQjbyMLGUJ2kBs6-23" value="" style="endArrow=classic;html=1;rounded=0;fontSize=11;" edge="1" parent="1">
          <mxGeometry width="50" height="50" relative="1" as="geometry">
            <mxPoint x="388" y="2494" as="sourcePoint" />
            <mxPoint x="388" y="2514" as="targetPoint" />
            <Array as="points">
              <mxPoint x="418" y="2494" />
              <mxPoint x="418" y="2514" />
            </Array>
          </mxGeometry>
        </mxCell>
        <mxCell id="kI7w-iQjbyMLGUJ2kBs6-24" value="Requester Module" style="rounded=1;whiteSpace=wrap;html=1;fillColor=#FFFFCC;strokeColor=#F19C99;fontSize=11;strokeWidth=2;" vertex="1" parent="1">
          <mxGeometry x="24" y="2610" width="120" height="30" as="geometry" />
        </mxCell>
        <mxCell id="kI7w-iQjbyMLGUJ2kBs6-25" value="Request Handler Module" style="rounded=1;whiteSpace=wrap;html=1;fillColor=#FFFFCC;strokeColor=#F19C99;fontSize=11;strokeWidth=2;" vertex="1" parent="1">
          <mxGeometry x="284" y="2610" width="160" height="30" as="geometry" />
        </mxCell>
        <mxCell id="kI7w-iQjbyMLGUJ2kBs6-26" value="Volunteer Module" style="rounded=1;whiteSpace=wrap;html=1;fillColor=#FFFFCC;strokeColor=#F19C99;fontSize=11;strokeWidth=2;" vertex="1" parent="1">
          <mxGeometry x="604" y="2610" width="120" height="30" as="geometry" />
        </mxCell>
        <mxCell id="kI7w-iQjbyMLGUJ2kBs6-27" value="AI Module" style="rounded=1;whiteSpace=wrap;html=1;fillColor=#FFFFCC;strokeColor=#F19C99;fontSize=11;strokeWidth=2;" vertex="1" parent="1">
          <mxGeometry x="920" y="2610" width="120" height="30" as="geometry" />
        </mxCell>
        <mxCell id="kI7w-iQjbyMLGUJ2kBs6-28" value="" style="endArrow=none;dashed=1;html=1;rounded=0;fontSize=11;" edge="1" parent="1">
          <mxGeometry width="50" height="50" relative="1" as="geometry">
            <mxPoint x="84" y="3600" as="sourcePoint" />
            <mxPoint x="84" y="2640" as="targetPoint" />
          </mxGeometry>
        </mxCell>
        <mxCell id="kI7w-iQjbyMLGUJ2kBs6-29" value="" style="endArrow=none;dashed=1;html=1;rounded=0;fontSize=11;" edge="1" parent="1">
          <mxGeometry width="50" height="50" relative="1" as="geometry">
            <mxPoint x="364" y="3170" as="sourcePoint" />
            <mxPoint x="363.5" y="2644" as="targetPoint" />
          </mxGeometry>
        </mxCell>
        <mxCell id="kI7w-iQjbyMLGUJ2kBs6-30" value="" style="endArrow=none;dashed=1;html=1;rounded=0;fontSize=11;" edge="1" parent="1">
          <mxGeometry width="50" height="50" relative="1" as="geometry">
            <mxPoint x="664" y="3600" as="sourcePoint" />
            <mxPoint x="663.5" y="2640" as="targetPoint" />
          </mxGeometry>
        </mxCell>
        <mxCell id="kI7w-iQjbyMLGUJ2kBs6-31" value="" style="endArrow=none;dashed=1;html=1;rounded=0;fontSize=11;" edge="1" parent="1">
          <mxGeometry width="50" height="50" relative="1" as="geometry">
            <mxPoint x="959.59" y="3600" as="sourcePoint" />
            <mxPoint x="959.09" y="2640" as="targetPoint" />
          </mxGeometry>
        </mxCell>
        <mxCell id="kI7w-iQjbyMLGUJ2kBs6-32" value="" style="endArrow=classic;html=1;rounded=0;fontSize=11;" edge="1" parent="1">
          <mxGeometry width="50" height="50" relative="1" as="geometry">
            <mxPoint x="84" y="2678" as="sourcePoint" />
            <mxPoint x="364" y="2678" as="targetPoint" />
          </mxGeometry>
        </mxCell>
        <mxCell id="kI7w-iQjbyMLGUJ2kBs6-33" value="ProcessUserRequest()" style="text;html=1;align=center;verticalAlign=middle;whiteSpace=wrap;rounded=0;fontSize=11;" vertex="1" parent="1">
          <mxGeometry x="124" y="2648" width="180" height="30" as="geometry" />
        </mxCell>
        <mxCell id="kI7w-iQjbyMLGUJ2kBs6-34" value="Register New Request in DB" style="text;html=1;align=center;verticalAlign=middle;whiteSpace=wrap;rounded=0;fontSize=11;" vertex="1" parent="1">
          <mxGeometry x="394" y="2686" width="110" height="30" as="geometry" />
        </mxCell>
        <mxCell id="kI7w-iQjbyMLGUJ2kBs6-35" value="" style="endArrow=classic;html=1;rounded=0;fontSize=11;" edge="1" parent="1">
          <mxGeometry width="50" height="50" relative="1" as="geometry">
            <mxPoint x="364" y="2769" as="sourcePoint" />
            <mxPoint x="84" y="2769" as="targetPoint" />
          </mxGeometry>
        </mxCell>
        <mxCell id="kI7w-iQjbyMLGUJ2kBs6-36" value="Send Success Notification to Requester (Email/SMS)&amp;nbsp;" style="text;html=1;align=center;verticalAlign=middle;whiteSpace=wrap;rounded=0;fontSize=11;" vertex="1" parent="1">
          <mxGeometry x="104" y="2739" width="230" height="30" as="geometry" />
        </mxCell>
        <mxCell id="kI7w-iQjbyMLGUJ2kBs6-37" value="" style="endArrow=classic;html=1;rounded=0;fontSize=11;" edge="1" parent="1">
          <mxGeometry width="50" height="50" relative="1" as="geometry">
            <mxPoint x="364" y="2838" as="sourcePoint" />
            <mxPoint x="664" y="2838" as="targetPoint" />
          </mxGeometry>
        </mxCell>
        <mxCell id="kI7w-iQjbyMLGUJ2kBs6-38" value="Get Volunteers (Request Details)" style="text;html=1;align=center;verticalAlign=middle;whiteSpace=wrap;rounded=0;fontSize=11;" vertex="1" parent="1">
          <mxGeometry x="444" y="2808" width="180" height="30" as="geometry" />
        </mxCell>
        <mxCell id="kI7w-iQjbyMLGUJ2kBs6-39" value="" style="endArrow=classic;html=1;rounded=0;fontSize=11;" edge="1" parent="1">
          <mxGeometry width="50" height="50" relative="1" as="geometry">
            <mxPoint x="664" y="2890" as="sourcePoint" />
            <mxPoint x="364" y="2890" as="targetPoint" />
          </mxGeometry>
        </mxCell>
        <mxCell id="kI7w-iQjbyMLGUJ2kBs6-40" value="Perform volunteer profile match" style="text;html=1;align=center;verticalAlign=middle;whiteSpace=wrap;rounded=0;fontSize=11;" vertex="1" parent="1">
          <mxGeometry x="694" y="2845" width="110" height="30" as="geometry" />
        </mxCell>
        <mxCell id="kI7w-iQjbyMLGUJ2kBs6-41" value="Response with Matched Volunteers (at least 1)" style="text;html=1;align=center;verticalAlign=middle;whiteSpace=wrap;rounded=0;fontSize=11;" vertex="1" parent="1">
          <mxGeometry x="434" y="2860" width="180" height="30" as="geometry" />
        </mxCell>
        <mxCell id="kI7w-iQjbyMLGUJ2kBs6-42" value="" style="endArrow=classic;html=1;rounded=0;fontSize=11;" edge="1" parent="1">
          <mxGeometry width="50" height="50" relative="1" as="geometry">
            <mxPoint x="364" y="2932" as="sourcePoint" />
            <mxPoint x="664" y="2932" as="targetPoint" />
          </mxGeometry>
        </mxCell>
        <mxCell id="kI7w-iQjbyMLGUJ2kBs6-43" value="Send notification (with request details) to X volunteers" style="text;html=1;align=center;verticalAlign=middle;whiteSpace=wrap;rounded=0;fontSize=11;" vertex="1" parent="1">
          <mxGeometry x="444" y="2902" width="180" height="30" as="geometry" />
        </mxCell>
        <mxCell id="kI7w-iQjbyMLGUJ2kBs6-44" value="" style="endArrow=classic;html=1;rounded=0;fontSize=11;" edge="1" parent="1">
          <mxGeometry width="50" height="50" relative="1" as="geometry">
            <mxPoint x="664" y="3050" as="sourcePoint" />
            <mxPoint x="364" y="3050" as="targetPoint" />
          </mxGeometry>
        </mxCell>
        <mxCell id="kI7w-iQjbyMLGUJ2kBs6-45" value="Response - volunteer accepting the request before Y minutes" style="text;html=1;align=center;verticalAlign=middle;whiteSpace=wrap;rounded=0;fontSize=11;" vertex="1" parent="1">
          <mxGeometry x="434" y="3020" width="180" height="30" as="geometry" />
        </mxCell>
        <mxCell id="kI7w-iQjbyMLGUJ2kBs6-46" value="Use Case 4: New User Request with Lead Volunteer Work With 1 or More Saayam Volunteers&amp;nbsp;" style="text;html=1;align=center;verticalAlign=middle;whiteSpace=wrap;rounded=0;fontStyle=1;fontSize=16;" vertex="1" parent="1">
          <mxGeometry x="100" y="2560" width="930" height="30" as="geometry" />
        </mxCell>
        <mxCell id="kI7w-iQjbyMLGUJ2kBs6-47" value="Update request status to &#39;In-Progress&#39; in DB" style="text;html=1;align=center;verticalAlign=middle;whiteSpace=wrap;rounded=0;fontSize=11;" vertex="1" parent="1">
          <mxGeometry x="411" y="3066" width="140" height="30" as="geometry" />
        </mxCell>
        <mxCell id="kI7w-iQjbyMLGUJ2kBs6-48" value="" style="endArrow=classic;html=1;rounded=0;fontSize=11;" edge="1" parent="1">
          <mxGeometry width="50" height="50" relative="1" as="geometry">
            <mxPoint x="664" y="3485" as="sourcePoint" />
            <mxPoint x="364" y="3485" as="targetPoint" />
          </mxGeometry>
        </mxCell>
        <mxCell id="kI7w-iQjbyMLGUJ2kBs6-49" value="Notification - volunteer completes request" style="text;html=1;align=center;verticalAlign=middle;whiteSpace=wrap;rounded=0;fontSize=11;" vertex="1" parent="1">
          <mxGeometry x="434" y="3455" width="180" height="30" as="geometry" />
        </mxCell>
        <mxCell id="kI7w-iQjbyMLGUJ2kBs6-50" value="Volunteer + Additional Saayam Volunteers + Requester Completes Request Successfully" style="text;html=1;align=center;verticalAlign=middle;whiteSpace=wrap;rounded=0;fontSize=11;" vertex="1" parent="1">
          <mxGeometry x="707" y="3420" width="135" height="30" as="geometry" />
        </mxCell>
        <mxCell id="kI7w-iQjbyMLGUJ2kBs6-51" value="Update request status to &#39;Complete&#39; in DB" style="text;html=1;align=center;verticalAlign=middle;whiteSpace=wrap;rounded=0;fontSize=11;" vertex="1" parent="1">
          <mxGeometry x="394" y="3507" width="140" height="30" as="geometry" />
        </mxCell>
        <mxCell id="kI7w-iQjbyMLGUJ2kBs6-52" value="No Accept Response: Y minutes" style="text;html=1;align=center;verticalAlign=middle;whiteSpace=wrap;rounded=0;fontSize=11;" vertex="1" parent="1">
          <mxGeometry x="393" y="2940" width="190" height="30" as="geometry" />
        </mxCell>
        <mxCell id="kI7w-iQjbyMLGUJ2kBs6-53" value="" style="endArrow=classic;html=1;rounded=0;fontSize=11;" edge="1" parent="1">
          <mxGeometry width="50" height="50" relative="1" as="geometry">
            <mxPoint x="364" y="3000" as="sourcePoint" />
            <mxPoint x="664" y="3000" as="targetPoint" />
          </mxGeometry>
        </mxCell>
        <mxCell id="kI7w-iQjbyMLGUJ2kBs6-54" value="Send notification (with request details) to next X volunteers" style="text;html=1;align=center;verticalAlign=middle;whiteSpace=wrap;rounded=0;fontSize=11;" vertex="1" parent="1">
          <mxGeometry x="444" y="2970" width="180" height="30" as="geometry" />
        </mxCell>
        <mxCell id="kI7w-iQjbyMLGUJ2kBs6-55" value="Store Request in AWS S3" style="text;html=1;align=center;verticalAlign=middle;whiteSpace=wrap;rounded=0;fontSize=11;" vertex="1" parent="1">
          <mxGeometry x="395" y="2722" width="110" height="30" as="geometry" />
        </mxCell>
        <mxCell id="kI7w-iQjbyMLGUJ2kBs6-56" value="" style="endArrow=classic;html=1;rounded=0;fontSize=11;" edge="1" parent="1">
          <mxGeometry width="50" height="50" relative="1" as="geometry">
            <mxPoint x="365" y="2726" as="sourcePoint" />
            <mxPoint x="365" y="2746" as="targetPoint" />
            <Array as="points">
              <mxPoint x="395" y="2726" />
              <mxPoint x="395" y="2746" />
            </Array>
          </mxGeometry>
        </mxCell>
        <mxCell id="kI7w-iQjbyMLGUJ2kBs6-57" value="" style="endArrow=classic;html=1;rounded=0;fontSize=11;" edge="1" parent="1">
          <mxGeometry width="50" height="50" relative="1" as="geometry">
            <mxPoint x="365" y="2689" as="sourcePoint" />
            <mxPoint x="365" y="2709" as="targetPoint" />
            <Array as="points">
              <mxPoint x="395" y="2689" />
              <mxPoint x="395" y="2709" />
            </Array>
          </mxGeometry>
        </mxCell>
        <mxCell id="kI7w-iQjbyMLGUJ2kBs6-58" value="" style="endArrow=classic;html=1;rounded=0;fontSize=11;" edge="1" parent="1">
          <mxGeometry width="50" height="50" relative="1" as="geometry">
            <mxPoint x="365" y="2780" as="sourcePoint" />
            <mxPoint x="365" y="2800" as="targetPoint" />
            <Array as="points">
              <mxPoint x="395" y="2780" />
              <mxPoint x="395" y="2800" />
            </Array>
          </mxGeometry>
        </mxCell>
        <mxCell id="kI7w-iQjbyMLGUJ2kBs6-59" value="" style="endArrow=classic;html=1;rounded=0;fontSize=11;" edge="1" parent="1">
          <mxGeometry width="50" height="50" relative="1" as="geometry">
            <mxPoint x="664" y="2850" as="sourcePoint" />
            <mxPoint x="664" y="2870" as="targetPoint" />
            <Array as="points">
              <mxPoint x="694" y="2850" />
              <mxPoint x="694" y="2870" />
            </Array>
          </mxGeometry>
        </mxCell>
        <mxCell id="kI7w-iQjbyMLGUJ2kBs6-60" value="" style="endArrow=classic;html=1;rounded=0;fontSize=11;" edge="1" parent="1">
          <mxGeometry width="50" height="50" relative="1" as="geometry">
            <mxPoint x="365" y="2947" as="sourcePoint" />
            <mxPoint x="365" y="2967" as="targetPoint" />
            <Array as="points">
              <mxPoint x="395" y="2947" />
              <mxPoint x="395" y="2967" />
            </Array>
          </mxGeometry>
        </mxCell>
        <mxCell id="kI7w-iQjbyMLGUJ2kBs6-61" value="Generate OTP" style="text;html=1;align=center;verticalAlign=middle;whiteSpace=wrap;rounded=0;fontSize=11;" vertex="1" parent="1">
          <mxGeometry x="405" y="3096" width="110" height="30" as="geometry" />
        </mxCell>
        <mxCell id="kI7w-iQjbyMLGUJ2kBs6-62" value="" style="endArrow=classic;html=1;rounded=0;fontSize=11;" edge="1" parent="1">
          <mxGeometry width="50" height="50" relative="1" as="geometry">
            <mxPoint x="365" y="3101" as="sourcePoint" />
            <mxPoint x="365" y="3121" as="targetPoint" />
            <Array as="points">
              <mxPoint x="395" y="3101" />
              <mxPoint x="395" y="3121" />
            </Array>
          </mxGeometry>
        </mxCell>
        <mxCell id="kI7w-iQjbyMLGUJ2kBs6-63" value="" style="endArrow=classic;html=1;rounded=0;fontSize=11;" edge="1" parent="1">
          <mxGeometry width="50" height="50" relative="1" as="geometry">
            <mxPoint x="364" y="3146" as="sourcePoint" />
            <mxPoint x="84" y="3146" as="targetPoint" />
          </mxGeometry>
        </mxCell>
        <mxCell id="kI7w-iQjbyMLGUJ2kBs6-64" value="Send OTP to Requestor" style="text;html=1;align=center;verticalAlign=middle;whiteSpace=wrap;rounded=0;fontSize=11;" vertex="1" parent="1">
          <mxGeometry x="104" y="3116" width="230" height="30" as="geometry" />
        </mxCell>
        <mxCell id="kI7w-iQjbyMLGUJ2kBs6-65" value="" style="endArrow=classic;html=1;rounded=0;fontSize=11;" edge="1" parent="1">
          <mxGeometry width="50" height="50" relative="1" as="geometry">
            <mxPoint x="364" y="3160" as="sourcePoint" />
            <mxPoint x="664" y="3160" as="targetPoint" />
          </mxGeometry>
        </mxCell>
        <mxCell id="kI7w-iQjbyMLGUJ2kBs6-66" value="Send OTP to Volunteer" style="text;html=1;align=center;verticalAlign=middle;whiteSpace=wrap;rounded=0;fontSize=11;" vertex="1" parent="1">
          <mxGeometry x="444" y="3129" width="180" height="30" as="geometry" />
        </mxCell>
        <mxCell id="kI7w-iQjbyMLGUJ2kBs6-67" value="" style="endArrow=classic;html=1;rounded=0;fontSize=11;" edge="1" parent="1">
          <mxGeometry width="50" height="50" relative="1" as="geometry">
            <mxPoint x="365" y="3067" as="sourcePoint" />
            <mxPoint x="365" y="3087" as="targetPoint" />
            <Array as="points">
              <mxPoint x="395" y="3067" />
              <mxPoint x="395" y="3087" />
            </Array>
          </mxGeometry>
        </mxCell>
        <mxCell id="kI7w-iQjbyMLGUJ2kBs6-68" value="" style="endArrow=none;dashed=1;html=1;rounded=0;fontSize=11;" edge="1" parent="1">
          <mxGeometry width="50" height="50" relative="1" as="geometry">
            <mxPoint x="364" y="3600" as="sourcePoint" />
            <mxPoint x="364" y="3210" as="targetPoint" />
          </mxGeometry>
        </mxCell>
        <mxCell id="kI7w-iQjbyMLGUJ2kBs6-69" value="Handshake between Requester and Volunteer" style="verticalLabelPosition=middle;verticalAlign=middle;html=1;shape=trapezoid;perimeter=trapezoidPerimeter;whiteSpace=wrap;size=0.23;arcSize=10;flipV=1;labelPosition=center;align=center;fillColor=#FFFFCC;strokeColor=#FF6666;" vertex="1" parent="1">
          <mxGeometry x="82" y="3174" width="580" height="30" as="geometry" />
        </mxCell>
        <mxCell id="kI7w-iQjbyMLGUJ2kBs6-70" value="" style="endArrow=classic;html=1;rounded=0;fontSize=11;" edge="1" parent="1">
          <mxGeometry width="50" height="50" relative="1" as="geometry">
            <mxPoint x="662" y="3420" as="sourcePoint" />
            <mxPoint x="662" y="3440" as="targetPoint" />
            <Array as="points">
              <mxPoint x="692" y="3420" />
              <mxPoint x="692" y="3440" />
            </Array>
          </mxGeometry>
        </mxCell>
        <mxCell id="kI7w-iQjbyMLGUJ2kBs6-71" value="" style="endArrow=classic;html=1;rounded=0;fontSize=11;" edge="1" parent="1">
          <mxGeometry width="50" height="50" relative="1" as="geometry">
            <mxPoint x="365" y="3510" as="sourcePoint" />
            <mxPoint x="365" y="3530" as="targetPoint" />
            <Array as="points">
              <mxPoint x="395" y="3510" />
              <mxPoint x="395" y="3530" />
            </Array>
          </mxGeometry>
        </mxCell>
        <mxCell id="kI7w-iQjbyMLGUJ2kBs6-72" value="Lead Volunteer Assess Need Additional Volunteer Help" style="text;html=1;align=center;verticalAlign=middle;whiteSpace=wrap;rounded=0;fontSize=11;" vertex="1" parent="1">
          <mxGeometry x="700" y="3258" width="160" height="30" as="geometry" />
        </mxCell>
        <mxCell id="kI7w-iQjbyMLGUJ2kBs6-73" value="" style="endArrow=classic;html=1;rounded=0;fontSize=11;" edge="1" parent="1">
          <mxGeometry width="50" height="50" relative="1" as="geometry">
            <mxPoint x="664" y="3258" as="sourcePoint" />
            <mxPoint x="664" y="3278" as="targetPoint" />
            <Array as="points">
              <mxPoint x="694" y="3258" />
              <mxPoint x="694" y="3278" />
            </Array>
          </mxGeometry>
        </mxCell>
        <mxCell id="kI7w-iQjbyMLGUJ2kBs6-74" value="Lead Volunteer Works With Requester" style="verticalLabelPosition=middle;verticalAlign=middle;html=1;shape=trapezoid;perimeter=trapezoidPerimeter;whiteSpace=wrap;size=0.23;arcSize=10;flipV=1;labelPosition=center;align=center;fillColor=#FFFFCC;strokeColor=#FF6666;" vertex="1" parent="1">
          <mxGeometry x="100" y="680" width="580" height="30" as="geometry" />
        </mxCell>
        <mxCell id="kI7w-iQjbyMLGUJ2kBs6-75" value="Lead Volunteer Works With Requester" style="verticalLabelPosition=middle;verticalAlign=middle;html=1;shape=trapezoid;perimeter=trapezoidPerimeter;whiteSpace=wrap;size=0.23;arcSize=10;flipV=1;labelPosition=center;align=center;fillColor=#FFFFCC;strokeColor=#FF6666;" vertex="1" parent="1">
          <mxGeometry x="100" y="2380" width="580" height="30" as="geometry" />
        </mxCell>
        <mxCell id="kI7w-iQjbyMLGUJ2kBs6-77" value="Lead Volunteer Works With Requester" style="verticalLabelPosition=middle;verticalAlign=middle;html=1;shape=trapezoid;perimeter=trapezoidPerimeter;whiteSpace=wrap;size=0.23;arcSize=10;flipV=1;labelPosition=center;align=center;fillColor=#FFFFCC;strokeColor=#FF6666;" vertex="1" parent="1">
          <mxGeometry x="84" y="3222" width="580" height="30" as="geometry" />
        </mxCell>
        <mxCell id="kI7w-iQjbyMLGUJ2kBs6-78" value="Lead Volunteer Get More Saayam Volunteers" style="text;html=1;align=center;verticalAlign=middle;whiteSpace=wrap;rounded=0;fontSize=11;" vertex="1" parent="1">
          <mxGeometry x="698" y="3300" width="160" height="30" as="geometry" />
        </mxCell>
        <mxCell id="kI7w-iQjbyMLGUJ2kBs6-79" value="" style="endArrow=classic;html=1;rounded=0;fontSize=11;" edge="1" parent="1">
          <mxGeometry width="50" height="50" relative="1" as="geometry">
            <mxPoint x="662" y="3300" as="sourcePoint" />
            <mxPoint x="662" y="3320" as="targetPoint" />
            <Array as="points">
              <mxPoint x="692" y="3300" />
              <mxPoint x="692" y="3320" />
            </Array>
          </mxGeometry>
        </mxCell>
        <mxCell id="kI7w-iQjbyMLGUJ2kBs6-80" value="Lead Volunteer Works With Additional Volunteers and Requester" style="verticalLabelPosition=middle;verticalAlign=middle;html=1;shape=trapezoid;perimeter=trapezoidPerimeter;whiteSpace=wrap;size=0.23;arcSize=10;flipV=1;labelPosition=center;align=center;fillColor=#FFFFCC;strokeColor=#FF6666;" vertex="1" parent="1">
          <mxGeometry x="84" y="3340" width="580" height="30" as="geometry" />
        </mxCell>
        <mxCell id="kI7w-iQjbyMLGUJ2kBs6-81" value="Requester Module" style="rounded=1;whiteSpace=wrap;html=1;fillColor=#FFFFCC;strokeColor=#F19C99;fontSize=11;strokeWidth=2;" vertex="1" parent="1">
          <mxGeometry x="39" y="3750" width="120" height="30" as="geometry" />
        </mxCell>
        <mxCell id="kI7w-iQjbyMLGUJ2kBs6-82" value="Request Handler Module" style="rounded=1;whiteSpace=wrap;html=1;fillColor=#FFFFCC;strokeColor=#F19C99;fontSize=11;strokeWidth=2;" vertex="1" parent="1">
          <mxGeometry x="299" y="3750" width="160" height="30" as="geometry" />
        </mxCell>
        <mxCell id="kI7w-iQjbyMLGUJ2kBs6-83" value="Volunteer Module" style="rounded=1;whiteSpace=wrap;html=1;fillColor=#FFFFCC;strokeColor=#F19C99;fontSize=11;strokeWidth=2;" vertex="1" parent="1">
          <mxGeometry x="619" y="3750" width="120" height="30" as="geometry" />
        </mxCell>
        <mxCell id="kI7w-iQjbyMLGUJ2kBs6-84" value="Volunteer Org Module" style="rounded=1;whiteSpace=wrap;html=1;fillColor=#FFFFCC;strokeColor=#F19C99;fontSize=11;strokeWidth=2;" vertex="1" parent="1">
          <mxGeometry x="899" y="3750" width="120" height="30" as="geometry" />
        </mxCell>
        <mxCell id="kI7w-iQjbyMLGUJ2kBs6-85" value="" style="endArrow=none;dashed=1;html=1;rounded=0;fontSize=11;" edge="1" parent="1">
          <mxGeometry width="50" height="50" relative="1" as="geometry">
            <mxPoint x="99" y="4840" as="sourcePoint" />
            <mxPoint x="99" y="3780" as="targetPoint" />
          </mxGeometry>
        </mxCell>
        <mxCell id="kI7w-iQjbyMLGUJ2kBs6-86" value="" style="endArrow=none;dashed=1;html=1;rounded=0;fontSize=11;" edge="1" parent="1">
          <mxGeometry width="50" height="50" relative="1" as="geometry">
            <mxPoint x="379" y="4310" as="sourcePoint" />
            <mxPoint x="378.5" y="3784" as="targetPoint" />
          </mxGeometry>
        </mxCell>
        <mxCell id="kI7w-iQjbyMLGUJ2kBs6-87" value="" style="endArrow=none;dashed=1;html=1;rounded=0;fontSize=11;" edge="1" parent="1">
          <mxGeometry width="50" height="50" relative="1" as="geometry">
            <mxPoint x="679" y="4840" as="sourcePoint" />
            <mxPoint x="678.5" y="3780" as="targetPoint" />
          </mxGeometry>
        </mxCell>
        <mxCell id="kI7w-iQjbyMLGUJ2kBs6-88" value="" style="endArrow=none;dashed=1;html=1;rounded=0;fontSize=11;" edge="1" parent="1">
          <mxGeometry width="50" height="50" relative="1" as="geometry">
            <mxPoint x="960" y="4840" as="sourcePoint" />
            <mxPoint x="958.5" y="3780" as="targetPoint" />
          </mxGeometry>
        </mxCell>
        <mxCell id="kI7w-iQjbyMLGUJ2kBs6-89" value="" style="endArrow=classic;html=1;rounded=0;fontSize=11;" edge="1" parent="1">
          <mxGeometry width="50" height="50" relative="1" as="geometry">
            <mxPoint x="99" y="3818" as="sourcePoint" />
            <mxPoint x="379" y="3818" as="targetPoint" />
          </mxGeometry>
        </mxCell>
        <mxCell id="kI7w-iQjbyMLGUJ2kBs6-90" value="ProcessUserRequest()" style="text;html=1;align=center;verticalAlign=middle;whiteSpace=wrap;rounded=0;fontSize=11;" vertex="1" parent="1">
          <mxGeometry x="139" y="3788" width="180" height="30" as="geometry" />
        </mxCell>
        <mxCell id="kI7w-iQjbyMLGUJ2kBs6-91" value="Register New Request in DB" style="text;html=1;align=center;verticalAlign=middle;whiteSpace=wrap;rounded=0;fontSize=11;" vertex="1" parent="1">
          <mxGeometry x="409" y="3826" width="110" height="30" as="geometry" />
        </mxCell>
        <mxCell id="kI7w-iQjbyMLGUJ2kBs6-92" value="" style="endArrow=classic;html=1;rounded=0;fontSize=11;" edge="1" parent="1">
          <mxGeometry width="50" height="50" relative="1" as="geometry">
            <mxPoint x="379" y="3909" as="sourcePoint" />
            <mxPoint x="99" y="3909" as="targetPoint" />
          </mxGeometry>
        </mxCell>
        <mxCell id="kI7w-iQjbyMLGUJ2kBs6-93" value="Send Success Notification to Requester (Email/SMS)&amp;nbsp;" style="text;html=1;align=center;verticalAlign=middle;whiteSpace=wrap;rounded=0;fontSize=11;" vertex="1" parent="1">
          <mxGeometry x="119" y="3879" width="230" height="30" as="geometry" />
        </mxCell>
        <mxCell id="kI7w-iQjbyMLGUJ2kBs6-94" value="" style="endArrow=classic;html=1;rounded=0;fontSize=11;" edge="1" parent="1">
          <mxGeometry width="50" height="50" relative="1" as="geometry">
            <mxPoint x="379" y="3978" as="sourcePoint" />
            <mxPoint x="679" y="3978" as="targetPoint" />
          </mxGeometry>
        </mxCell>
        <mxCell id="kI7w-iQjbyMLGUJ2kBs6-95" value="Get Volunteers (Request Details)" style="text;html=1;align=center;verticalAlign=middle;whiteSpace=wrap;rounded=0;fontSize=11;" vertex="1" parent="1">
          <mxGeometry x="459" y="3948" width="180" height="30" as="geometry" />
        </mxCell>
        <mxCell id="kI7w-iQjbyMLGUJ2kBs6-96" value="" style="endArrow=classic;html=1;rounded=0;fontSize=11;" edge="1" parent="1">
          <mxGeometry width="50" height="50" relative="1" as="geometry">
            <mxPoint x="679" y="4030" as="sourcePoint" />
            <mxPoint x="379" y="4030" as="targetPoint" />
          </mxGeometry>
        </mxCell>
        <mxCell id="kI7w-iQjbyMLGUJ2kBs6-97" value="Perform volunteer profile match" style="text;html=1;align=center;verticalAlign=middle;whiteSpace=wrap;rounded=0;fontSize=11;" vertex="1" parent="1">
          <mxGeometry x="709" y="3985" width="110" height="30" as="geometry" />
        </mxCell>
        <mxCell id="kI7w-iQjbyMLGUJ2kBs6-98" value="Response with Matched Volunteers (at least 1)" style="text;html=1;align=center;verticalAlign=middle;whiteSpace=wrap;rounded=0;fontSize=11;" vertex="1" parent="1">
          <mxGeometry x="449" y="4000" width="180" height="30" as="geometry" />
        </mxCell>
        <mxCell id="kI7w-iQjbyMLGUJ2kBs6-99" value="" style="endArrow=classic;html=1;rounded=0;fontSize=11;" edge="1" parent="1">
          <mxGeometry width="50" height="50" relative="1" as="geometry">
            <mxPoint x="379" y="4072" as="sourcePoint" />
            <mxPoint x="679" y="4072" as="targetPoint" />
          </mxGeometry>
        </mxCell>
        <mxCell id="kI7w-iQjbyMLGUJ2kBs6-100" value="Send notification (with request details) to X volunteers" style="text;html=1;align=center;verticalAlign=middle;whiteSpace=wrap;rounded=0;fontSize=11;" vertex="1" parent="1">
          <mxGeometry x="459" y="4042" width="180" height="30" as="geometry" />
        </mxCell>
        <mxCell id="kI7w-iQjbyMLGUJ2kBs6-101" value="" style="endArrow=classic;html=1;rounded=0;fontSize=11;" edge="1" parent="1">
          <mxGeometry width="50" height="50" relative="1" as="geometry">
            <mxPoint x="679" y="4190" as="sourcePoint" />
            <mxPoint x="379" y="4190" as="targetPoint" />
          </mxGeometry>
        </mxCell>
        <mxCell id="kI7w-iQjbyMLGUJ2kBs6-102" value="Response - volunteer accepting the request before Y minutes" style="text;html=1;align=center;verticalAlign=middle;whiteSpace=wrap;rounded=0;fontSize=11;" vertex="1" parent="1">
          <mxGeometry x="449" y="4160" width="180" height="30" as="geometry" />
        </mxCell>
        <mxCell id="kI7w-iQjbyMLGUJ2kBs6-103" value="Use Case 5: New User Request with Lead Volunteer Work With External Volunteer Organization" style="text;html=1;align=center;verticalAlign=middle;whiteSpace=wrap;rounded=0;fontStyle=1;fontSize=16;" vertex="1" parent="1">
          <mxGeometry x="79" y="3700" width="930" height="30" as="geometry" />
        </mxCell>
        <mxCell id="kI7w-iQjbyMLGUJ2kBs6-104" value="Update request status to &#39;In-Progress&#39; in DB" style="text;html=1;align=center;verticalAlign=middle;whiteSpace=wrap;rounded=0;fontSize=11;" vertex="1" parent="1">
          <mxGeometry x="426" y="4206" width="140" height="30" as="geometry" />
        </mxCell>
        <mxCell id="kI7w-iQjbyMLGUJ2kBs6-105" value="" style="endArrow=classic;html=1;rounded=0;fontSize=11;" edge="1" parent="1">
          <mxGeometry width="50" height="50" relative="1" as="geometry">
            <mxPoint x="679" y="4746" as="sourcePoint" />
            <mxPoint x="379" y="4746" as="targetPoint" />
          </mxGeometry>
        </mxCell>
        <mxCell id="kI7w-iQjbyMLGUJ2kBs6-106" value="Notification - volunteer completes request" style="text;html=1;align=center;verticalAlign=middle;whiteSpace=wrap;rounded=0;fontSize=11;" vertex="1" parent="1">
          <mxGeometry x="449" y="4716" width="180" height="30" as="geometry" />
        </mxCell>
        <mxCell id="kI7w-iQjbyMLGUJ2kBs6-107" value="Volunteer + Volunteer Org + Requester Completes Request Successfully" style="text;html=1;align=center;verticalAlign=middle;whiteSpace=wrap;rounded=0;fontSize=11;" vertex="1" parent="1">
          <mxGeometry x="721" y="4673" width="188" height="42" as="geometry" />
        </mxCell>
        <mxCell id="kI7w-iQjbyMLGUJ2kBs6-108" value="Update request status to &#39;Complete&#39; in DB" style="text;html=1;align=center;verticalAlign=middle;whiteSpace=wrap;rounded=0;fontSize=11;" vertex="1" parent="1">
          <mxGeometry x="409" y="4768" width="140" height="30" as="geometry" />
        </mxCell>
        <mxCell id="kI7w-iQjbyMLGUJ2kBs6-109" value="No Accept Response: Y minutes" style="text;html=1;align=center;verticalAlign=middle;whiteSpace=wrap;rounded=0;fontSize=11;" vertex="1" parent="1">
          <mxGeometry x="408" y="4080" width="190" height="30" as="geometry" />
        </mxCell>
        <mxCell id="kI7w-iQjbyMLGUJ2kBs6-110" value="" style="endArrow=classic;html=1;rounded=0;fontSize=11;" edge="1" parent="1">
          <mxGeometry width="50" height="50" relative="1" as="geometry">
            <mxPoint x="379" y="4140" as="sourcePoint" />
            <mxPoint x="679" y="4140" as="targetPoint" />
          </mxGeometry>
        </mxCell>
        <mxCell id="kI7w-iQjbyMLGUJ2kBs6-111" value="Send notification (with request details) to next X volunteers" style="text;html=1;align=center;verticalAlign=middle;whiteSpace=wrap;rounded=0;fontSize=11;" vertex="1" parent="1">
          <mxGeometry x="459" y="4110" width="180" height="30" as="geometry" />
        </mxCell>
        <mxCell id="kI7w-iQjbyMLGUJ2kBs6-112" value="Store Request in AWS S3" style="text;html=1;align=center;verticalAlign=middle;whiteSpace=wrap;rounded=0;fontSize=11;" vertex="1" parent="1">
          <mxGeometry x="410" y="3862" width="110" height="30" as="geometry" />
        </mxCell>
        <mxCell id="kI7w-iQjbyMLGUJ2kBs6-113" value="" style="endArrow=classic;html=1;rounded=0;fontSize=11;" edge="1" parent="1">
          <mxGeometry width="50" height="50" relative="1" as="geometry">
            <mxPoint x="380" y="3866" as="sourcePoint" />
            <mxPoint x="380" y="3886" as="targetPoint" />
            <Array as="points">
              <mxPoint x="410" y="3866" />
              <mxPoint x="410" y="3886" />
            </Array>
          </mxGeometry>
        </mxCell>
        <mxCell id="kI7w-iQjbyMLGUJ2kBs6-114" value="" style="endArrow=classic;html=1;rounded=0;fontSize=11;" edge="1" parent="1">
          <mxGeometry width="50" height="50" relative="1" as="geometry">
            <mxPoint x="380" y="3829" as="sourcePoint" />
            <mxPoint x="380" y="3849" as="targetPoint" />
            <Array as="points">
              <mxPoint x="410" y="3829" />
              <mxPoint x="410" y="3849" />
            </Array>
          </mxGeometry>
        </mxCell>
        <mxCell id="kI7w-iQjbyMLGUJ2kBs6-115" value="" style="endArrow=classic;html=1;rounded=0;fontSize=11;" edge="1" parent="1">
          <mxGeometry width="50" height="50" relative="1" as="geometry">
            <mxPoint x="380" y="3920" as="sourcePoint" />
            <mxPoint x="380" y="3940" as="targetPoint" />
            <Array as="points">
              <mxPoint x="410" y="3920" />
              <mxPoint x="410" y="3940" />
            </Array>
          </mxGeometry>
        </mxCell>
        <mxCell id="kI7w-iQjbyMLGUJ2kBs6-116" value="" style="endArrow=classic;html=1;rounded=0;fontSize=11;" edge="1" parent="1">
          <mxGeometry width="50" height="50" relative="1" as="geometry">
            <mxPoint x="679" y="3990" as="sourcePoint" />
            <mxPoint x="679" y="4010" as="targetPoint" />
            <Array as="points">
              <mxPoint x="709" y="3990" />
              <mxPoint x="709" y="4010" />
            </Array>
          </mxGeometry>
        </mxCell>
        <mxCell id="kI7w-iQjbyMLGUJ2kBs6-117" value="" style="endArrow=classic;html=1;rounded=0;fontSize=11;" edge="1" parent="1">
          <mxGeometry width="50" height="50" relative="1" as="geometry">
            <mxPoint x="380" y="4087" as="sourcePoint" />
            <mxPoint x="380" y="4107" as="targetPoint" />
            <Array as="points">
              <mxPoint x="410" y="4087" />
              <mxPoint x="410" y="4107" />
            </Array>
          </mxGeometry>
        </mxCell>
        <mxCell id="kI7w-iQjbyMLGUJ2kBs6-118" value="Generate OTP" style="text;html=1;align=center;verticalAlign=middle;whiteSpace=wrap;rounded=0;fontSize=11;" vertex="1" parent="1">
          <mxGeometry x="420" y="4249" width="110" height="30" as="geometry" />
        </mxCell>
        <mxCell id="kI7w-iQjbyMLGUJ2kBs6-119" value="" style="endArrow=classic;html=1;rounded=0;fontSize=11;" edge="1" parent="1">
          <mxGeometry width="50" height="50" relative="1" as="geometry">
            <mxPoint x="380" y="4254" as="sourcePoint" />
            <mxPoint x="380" y="4274" as="targetPoint" />
            <Array as="points">
              <mxPoint x="410" y="4254" />
              <mxPoint x="410" y="4274" />
            </Array>
          </mxGeometry>
        </mxCell>
        <mxCell id="kI7w-iQjbyMLGUJ2kBs6-120" value="" style="endArrow=classic;html=1;rounded=0;fontSize=11;" edge="1" parent="1">
          <mxGeometry width="50" height="50" relative="1" as="geometry">
            <mxPoint x="379" y="4299" as="sourcePoint" />
            <mxPoint x="99" y="4299" as="targetPoint" />
          </mxGeometry>
        </mxCell>
        <mxCell id="kI7w-iQjbyMLGUJ2kBs6-121" value="Send OTP to Requestor" style="text;html=1;align=center;verticalAlign=middle;whiteSpace=wrap;rounded=0;fontSize=11;" vertex="1" parent="1">
          <mxGeometry x="119" y="4269" width="230" height="30" as="geometry" />
        </mxCell>
        <mxCell id="kI7w-iQjbyMLGUJ2kBs6-122" value="" style="endArrow=classic;html=1;rounded=0;fontSize=11;" edge="1" parent="1">
          <mxGeometry width="50" height="50" relative="1" as="geometry">
            <mxPoint x="379" y="4313" as="sourcePoint" />
            <mxPoint x="679" y="4313" as="targetPoint" />
          </mxGeometry>
        </mxCell>
        <mxCell id="kI7w-iQjbyMLGUJ2kBs6-123" value="Send OTP to Volunteer" style="text;html=1;align=center;verticalAlign=middle;whiteSpace=wrap;rounded=0;fontSize=11;" vertex="1" parent="1">
          <mxGeometry x="459" y="4282" width="180" height="30" as="geometry" />
        </mxCell>
        <mxCell id="kI7w-iQjbyMLGUJ2kBs6-124" value="" style="endArrow=classic;html=1;rounded=0;fontSize=11;" edge="1" parent="1">
          <mxGeometry width="50" height="50" relative="1" as="geometry">
            <mxPoint x="380" y="4207" as="sourcePoint" />
            <mxPoint x="380" y="4227" as="targetPoint" />
            <Array as="points">
              <mxPoint x="410" y="4207" />
              <mxPoint x="410" y="4227" />
            </Array>
          </mxGeometry>
        </mxCell>
        <mxCell id="kI7w-iQjbyMLGUJ2kBs6-125" value="" style="endArrow=none;dashed=1;html=1;rounded=0;fontSize=11;" edge="1" parent="1">
          <mxGeometry width="50" height="50" relative="1" as="geometry">
            <mxPoint x="379" y="4853" as="sourcePoint" />
            <mxPoint x="379" y="4363" as="targetPoint" />
          </mxGeometry>
        </mxCell>
        <mxCell id="kI7w-iQjbyMLGUJ2kBs6-126" value="Handshake between Requester and Volunteer" style="verticalLabelPosition=middle;verticalAlign=middle;html=1;shape=trapezoid;perimeter=trapezoidPerimeter;whiteSpace=wrap;size=0.23;arcSize=10;flipV=1;labelPosition=center;align=center;fillColor=#FFFFCC;strokeColor=#FF6666;" vertex="1" parent="1">
          <mxGeometry x="97" y="4327" width="580" height="30" as="geometry" />
        </mxCell>
        <mxCell id="kI7w-iQjbyMLGUJ2kBs6-127" value="" style="endArrow=classic;html=1;rounded=0;fontSize=11;" edge="1" parent="1">
          <mxGeometry width="50" height="50" relative="1" as="geometry">
            <mxPoint x="677" y="4681" as="sourcePoint" />
            <mxPoint x="677" y="4701" as="targetPoint" />
            <Array as="points">
              <mxPoint x="707" y="4681" />
              <mxPoint x="707" y="4701" />
            </Array>
          </mxGeometry>
        </mxCell>
        <mxCell id="kI7w-iQjbyMLGUJ2kBs6-128" value="" style="endArrow=classic;html=1;rounded=0;fontSize=11;" edge="1" parent="1">
          <mxGeometry width="50" height="50" relative="1" as="geometry">
            <mxPoint x="380" y="4771" as="sourcePoint" />
            <mxPoint x="380" y="4791" as="targetPoint" />
            <Array as="points">
              <mxPoint x="410" y="4771" />
              <mxPoint x="410" y="4791" />
            </Array>
          </mxGeometry>
        </mxCell>
        <mxCell id="kI7w-iQjbyMLGUJ2kBs6-129" value="Lead Volunteer Assess Need Help From External Volunteer Organization" style="text;html=1;align=center;verticalAlign=middle;whiteSpace=wrap;rounded=0;fontSize=11;" vertex="1" parent="1">
          <mxGeometry x="715" y="4411" width="160" height="30" as="geometry" />
        </mxCell>
        <mxCell id="kI7w-iQjbyMLGUJ2kBs6-130" value="" style="endArrow=classic;html=1;rounded=0;fontSize=11;" edge="1" parent="1">
          <mxGeometry width="50" height="50" relative="1" as="geometry">
            <mxPoint x="679" y="4411" as="sourcePoint" />
            <mxPoint x="679" y="4431" as="targetPoint" />
            <Array as="points">
              <mxPoint x="709" y="4411" />
              <mxPoint x="709" y="4431" />
            </Array>
          </mxGeometry>
        </mxCell>
        <mxCell id="kI7w-iQjbyMLGUJ2kBs6-131" value="Lead Volunteer Works With Requester" style="verticalLabelPosition=middle;verticalAlign=middle;html=1;shape=trapezoid;perimeter=trapezoidPerimeter;whiteSpace=wrap;size=0.23;arcSize=10;flipV=1;labelPosition=center;align=center;fillColor=#FFFFCC;strokeColor=#FF6666;" vertex="1" parent="1">
          <mxGeometry x="99" y="4375" width="580" height="30" as="geometry" />
        </mxCell>
        <mxCell id="kI7w-iQjbyMLGUJ2kBs6-134" value="Lead Volunteer Works With Volunteer Org and Requester" style="verticalLabelPosition=middle;verticalAlign=middle;html=1;shape=trapezoid;perimeter=trapezoidPerimeter;whiteSpace=wrap;size=0.23;arcSize=10;flipV=1;labelPosition=center;align=center;fillColor=#FFFFCC;strokeColor=#FF6666;" vertex="1" parent="1">
          <mxGeometry x="100" y="4623" width="860" height="30" as="geometry" />
        </mxCell>
        <mxCell id="kI7w-iQjbyMLGUJ2kBs6-136" value="" style="endArrow=classic;html=1;rounded=0;fontSize=11;" edge="1" parent="1">
          <mxGeometry width="50" height="50" relative="1" as="geometry">
            <mxPoint x="680" y="4483" as="sourcePoint" />
            <mxPoint x="960" y="4483" as="targetPoint" />
          </mxGeometry>
        </mxCell>
        <mxCell id="kI7w-iQjbyMLGUJ2kBs6-137" value="Get Volunteer Organizations (Request Details)" style="text;html=1;align=center;verticalAlign=middle;whiteSpace=wrap;rounded=0;fontSize=11;" vertex="1" parent="1">
          <mxGeometry x="760" y="4453" width="180" height="30" as="geometry" />
        </mxCell>
        <mxCell id="kI7w-iQjbyMLGUJ2kBs6-138" value="Perform Volunteer Org Profile Match" style="text;html=1;align=center;verticalAlign=middle;whiteSpace=wrap;rounded=0;fontSize=11;" vertex="1" parent="1">
          <mxGeometry x="985" y="4483" width="110" height="50" as="geometry" />
        </mxCell>
        <mxCell id="kI7w-iQjbyMLGUJ2kBs6-139" value="" style="endArrow=classic;html=1;rounded=0;fontSize=11;" edge="1" parent="1">
          <mxGeometry width="50" height="50" relative="1" as="geometry">
            <mxPoint x="960" y="4495" as="sourcePoint" />
            <mxPoint x="960" y="4515" as="targetPoint" />
            <Array as="points">
              <mxPoint x="990" y="4495" />
              <mxPoint x="990" y="4515" />
            </Array>
          </mxGeometry>
        </mxCell>
        <mxCell id="kI7w-iQjbyMLGUJ2kBs6-140" value="" style="endArrow=classic;html=1;rounded=0;fontSize=11;" edge="1" parent="1">
          <mxGeometry width="50" height="50" relative="1" as="geometry">
            <mxPoint x="960" y="4543" as="sourcePoint" />
            <mxPoint x="679" y="4543" as="targetPoint" />
          </mxGeometry>
        </mxCell>
        <mxCell id="kI7w-iQjbyMLGUJ2kBs6-141" value="Response with Matched Volunteer Org (at least 1)" style="text;html=1;align=center;verticalAlign=middle;whiteSpace=wrap;rounded=0;fontSize=11;" vertex="1" parent="1">
          <mxGeometry x="720" y="4513" width="209" height="30" as="geometry" />
        </mxCell>
        <mxCell id="kI7w-iQjbyMLGUJ2kBs6-142" value="Lead Volunteer Selects 1 Org from the list" style="text;html=1;align=center;verticalAlign=middle;whiteSpace=wrap;rounded=0;fontSize=11;" vertex="1" parent="1">
          <mxGeometry x="730" y="4563" width="130" height="40" as="geometry" />
        </mxCell>
        <mxCell id="kI7w-iQjbyMLGUJ2kBs6-143" value="" style="endArrow=classic;html=1;rounded=0;fontSize=11;" edge="1" parent="1">
          <mxGeometry width="50" height="50" relative="1" as="geometry">
            <mxPoint x="680" y="4568" as="sourcePoint" />
            <mxPoint x="680" y="4588" as="targetPoint" />
            <Array as="points">
              <mxPoint x="710" y="4568" />
              <mxPoint x="710" y="4588" />
            </Array>
          </mxGeometry>
        </mxCell>
      </root>
    </mxGraphModel>
  </diagram>
  <diagram id="JfPAb2PuWK7WXS9RZJZN" name="Notes">
    <mxGraphModel grid="1" page="1" gridSize="10" guides="1" tooltips="1" connect="1" arrows="1" fold="1" pageScale="1" pageWidth="1100" pageHeight="850" math="0" shadow="0">
      <root>
        <mxCell id="0" />
        <mxCell id="1" parent="0" />
        <mxCell id="SpdD20_Io__3Yj_Kq_3g-1" value="&lt;h1 style=&quot;margin-top: 0px;&quot;&gt;Notes (WA)&lt;/h1&gt;&lt;p style=&quot;font-size: 13px;&quot;&gt;&lt;font style=&quot;font-size: 13px;&quot;&gt;[10:22 AM, 4/30/2024] Rao K Bhethanabotla: We need to go a little deeper into volunteer and requestor interaction loop, volunteer interaction with other volunteers and/or with volunteer organization loop etc.&lt;/font&gt;&lt;/p&gt;&lt;p style=&quot;font-size: 13px;&quot;&gt;&lt;font style=&quot;font-size: 13px;&quot;&gt;[10:23 AM, 4/30/2024] Rao K Bhethanabotla: Request handling is the toughest thing in our product. It’s better to understand this process thoroughly and design it properly&lt;/font&gt;&lt;/p&gt;&lt;p style=&quot;font-size: 13px;&quot;&gt;&lt;font style=&quot;font-size: 13px;&quot;&gt;[10:24 AM, 4/30/2024] Rao K Bhethanabotla: Also, we may need to handle special cases like natural calamities where many people in a neighborhood get affected. At that time our volunteer matching logic needs to change as well&lt;/font&gt;&lt;span style=&quot;font-size: 13px;&quot;&gt;.&lt;/span&gt;&lt;/p&gt;&lt;p style=&quot;font-size: 13px;&quot;&gt;&lt;span style=&quot;font-size: 13px;&quot;&gt;[1:45 PM, 5/2/2024] (Swati/Rao Zoom Call)&lt;/span&gt;&lt;/p&gt;&lt;font style=&quot;font-size: 13px;&quot;&gt;&lt;span style=&quot;background-color: initial;&quot;&gt;store in AW&lt;/span&gt;&lt;span style=&quot;background-color: initial;&quot;&gt;S s3 after registering&lt;/span&gt;&lt;br&gt;&lt;span style=&quot;background-color: initial;&quot;&gt;sayyam DB + request/volunteer/user tables&lt;/span&gt;&lt;br&gt;&lt;span style=&quot;background-color: initial;&quot;&gt;all microservice will access required table&amp;nbsp;&lt;/span&gt;&lt;/font&gt;&lt;div&gt;&lt;font style=&quot;font-size: 13px;&quot;&gt;&lt;br&gt;&lt;span style=&quot;background-color: initial;&quot;&gt;Assigning owner to request/volunteer/user&lt;/span&gt;&lt;br&gt;&lt;span style=&quot;background-color: initial;&quot;&gt;generate OTP and send to requester and volunteer&lt;/span&gt;&lt;br&gt;&lt;span style=&quot;background-color: initial;&quot;&gt;handshake done&lt;/span&gt;&lt;br&gt;&lt;span style=&quot;background-color: initial;&quot;&gt;volunteer will work with requester&lt;/span&gt;&lt;br&gt;&lt;span style=&quot;background-color: initial;&quot;&gt;volunteer determines - do I handle myself or need more volunteers or vol org?&lt;/span&gt;&lt;br&gt;&lt;span style=&quot;background-color: initial;&quot;&gt;ORG: this flow is part of volunteer module&lt;/span&gt;&lt;br&gt;&lt;span style=&quot;background-color: initial;&quot;&gt;volunteer will request give me top 10 volunteer org&lt;/span&gt;&lt;br&gt;&lt;span style=&quot;background-color: initial;&quot;&gt;send message to these orgs&lt;/span&gt;&lt;br&gt;&lt;font style=&quot;font-size: 13px;&quot; face=&quot;Helvetica&quot;&gt;&lt;font style=&quot;font-size: 13px;&quot;&gt;volunteer will choose 1 org&lt;/font&gt;&lt;/font&gt;&lt;/font&gt;&lt;p style=&quot;font-size: 13px;&quot;&gt;&lt;span style=&quot;&quot;&gt;&lt;br&gt;&lt;/span&gt;&lt;/p&gt;&lt;/div&gt;" style="text;html=1;whiteSpace=wrap;overflow=hidden;rounded=0;" vertex="1" parent="1">
          <mxGeometry y="30" width="900" height="470" as="geometry" />
        </mxCell>
      </root>
    </mxGraphModel>
  </diagram>
  <diagram id="J0NPFXLIxwKePm22KJwD" name="Request-APIs">
    <mxGraphModel grid="1" page="1" gridSize="10" guides="1" tooltips="1" connect="1" arrows="1" fold="1" pageScale="1" pageWidth="1100" pageHeight="850" math="0" shadow="0">
      <root>
        <mxCell id="0" />
        <mxCell id="1" parent="0" />
        <mxCell id="dXbRTEaJmiYvLK1mETrP-1" value="&lt;h1 style=&quot;text-align: center;&quot;&gt;&amp;nbsp; &amp;nbsp; &amp;nbsp; &amp;nbsp; &amp;nbsp; &amp;nbsp; API Compute&lt;/h1&gt;&lt;div style=&quot;text-align: center;&quot;&gt;&amp;nbsp;&lt;/div&gt;&lt;div&gt;&lt;br&gt;&lt;/div&gt;&lt;div&gt;&lt;br&gt;&lt;/div&gt;&lt;div&gt;&lt;br&gt;&lt;/div&gt;&lt;div&gt;&lt;br&gt;&lt;/div&gt;&lt;div&gt;&lt;br&gt;&lt;/div&gt;&lt;div&gt;&lt;br&gt;&lt;/div&gt;&lt;div&gt;&lt;br&gt;&lt;/div&gt;&lt;div&gt;&lt;br&gt;&lt;/div&gt;&lt;div&gt;&lt;br&gt;&lt;/div&gt;&lt;div&gt;&lt;br&gt;&lt;/div&gt;&lt;div&gt;&lt;br&gt;&lt;/div&gt;&lt;div&gt;&lt;br&gt;&lt;/div&gt;&lt;div&gt;&lt;br&gt;&lt;/div&gt;&lt;div&gt;&lt;br&gt;&lt;/div&gt;&lt;div&gt;&lt;br&gt;&lt;/div&gt;&lt;div&gt;&lt;br&gt;&lt;/div&gt;&lt;div&gt;&lt;br&gt;&lt;/div&gt;&lt;div&gt;&lt;br&gt;&lt;/div&gt;&lt;div&gt;&lt;br&gt;&lt;/div&gt;&lt;div&gt;&lt;br&gt;&lt;/div&gt;&lt;div&gt;&lt;br&gt;&lt;/div&gt;&lt;div&gt;&lt;br&gt;&lt;/div&gt;&lt;div&gt;&lt;br&gt;&lt;/div&gt;&lt;div&gt;&lt;br&gt;&lt;/div&gt;&lt;div&gt;&lt;br&gt;&lt;/div&gt;&lt;div&gt;&lt;br&gt;&lt;/div&gt;&lt;div&gt;&lt;br&gt;&lt;/div&gt;&lt;div&gt;&lt;br&gt;&lt;/div&gt;&lt;div&gt;&lt;br&gt;&lt;/div&gt;" style="rounded=1;whiteSpace=wrap;html=1;align=left;" vertex="1" parent="1">
          <mxGeometry x="373" y="1020" width="320" height="510" as="geometry" />
        </mxCell>
        <mxCell id="dXbRTEaJmiYvLK1mETrP-2" value="&lt;div style=&quot;&quot;&gt;&lt;u style=&quot;font-size: 14px; background-color: initial;&quot;&gt;Lambda Function&lt;/u&gt;&lt;/div&gt;&lt;font style=&quot;font-size: 14px;&quot;&gt;&amp;nbsp; &amp;nbsp;&lt;b&gt;GetRequest&lt;/b&gt;&lt;/font&gt;" style="shape=process;whiteSpace=wrap;html=1;backgroundOutline=1;align=center;size=0.1111111111111111;" vertex="1" parent="1">
          <mxGeometry x="443" y="1270" width="180" height="50" as="geometry" />
        </mxCell>
        <mxCell id="dXbRTEaJmiYvLK1mETrP-3" value="&lt;div style=&quot;&quot;&gt;&lt;u style=&quot;font-size: 14px; background-color: initial;&quot;&gt;Lambda Function&lt;/u&gt;&lt;/div&gt;&lt;font style=&quot;font-size: 14px;&quot;&gt;&amp;nbsp; &amp;nbsp;&lt;b&gt;CreateRequest&lt;/b&gt;&lt;/font&gt;" style="shape=process;whiteSpace=wrap;html=1;backgroundOutline=1;align=center;size=0.1111111111111111;" vertex="1" parent="1">
          <mxGeometry x="443" y="1190" width="180" height="50" as="geometry" />
        </mxCell>
        <mxCell id="dXbRTEaJmiYvLK1mETrP-4" style="edgeStyle=none;rounded=0;orthogonalLoop=1;jettySize=auto;html=1;entryX=0;entryY=0.5;entryDx=0;entryDy=0;" edge="1" parent="1" source="dXbRTEaJmiYvLK1mETrP-5" target="dXbRTEaJmiYvLK1mETrP-15">
          <mxGeometry relative="1" as="geometry" />
        </mxCell>
        <mxCell id="dXbRTEaJmiYvLK1mETrP-5" value="&lt;div style=&quot;&quot;&gt;&lt;u style=&quot;font-size: 14px; background-color: initial;&quot;&gt;Lambda Function&lt;/u&gt;&lt;/div&gt;&lt;font style=&quot;font-size: 14px;&quot;&gt;&amp;nbsp; &amp;nbsp;&lt;b&gt;ListRequests&lt;/b&gt;&lt;/font&gt;" style="shape=process;whiteSpace=wrap;html=1;backgroundOutline=1;align=center;size=0.1111111111111111;" vertex="1" parent="1">
          <mxGeometry x="443" y="1110" width="180" height="50" as="geometry" />
        </mxCell>
        <mxCell id="dXbRTEaJmiYvLK1mETrP-6" value="&lt;div style=&quot;&quot;&gt;&lt;u style=&quot;font-size: 14px; background-color: initial;&quot;&gt;Lambda Function&lt;/u&gt;&lt;/div&gt;&lt;font style=&quot;font-size: 14px;&quot;&gt;&amp;nbsp; &amp;nbsp;&lt;b&gt;UpdateRequest&lt;/b&gt;&lt;/font&gt;" style="shape=process;whiteSpace=wrap;html=1;backgroundOutline=1;align=center;size=0.1111111111111111;" vertex="1" parent="1">
          <mxGeometry x="443" y="1350" width="180" height="50" as="geometry" />
        </mxCell>
        <mxCell id="dXbRTEaJmiYvLK1mETrP-7" value="&lt;h1&gt;API Gateway&lt;/h1&gt;&lt;div&gt;&lt;br&gt;&lt;/div&gt;&lt;div&gt;&lt;/div&gt;&lt;br&gt;&lt;font style=&quot;font-size: 14px;&quot;&gt;GET /requests&lt;br style=&quot;border-color: var(--border-color);&quot;&gt;&lt;br style=&quot;border-color: var(--border-color);&quot;&gt;POST/requests&lt;br style=&quot;border-color: var(--border-color);&quot;&gt;&lt;br&gt;GET/request/{id}&lt;br style=&quot;border-color: var(--border-color);&quot;&gt;&lt;br&gt;PUT/requests/{id}&lt;br style=&quot;border-color: var(--border-color);&quot;&gt;&lt;br style=&quot;border-color: var(--border-color);&quot;&gt;DELETE/requests/{id}???&lt;/font&gt;" style="rounded=1;whiteSpace=wrap;html=1;" vertex="1" parent="1">
          <mxGeometry x="18" y="1020" width="250" height="330" as="geometry" />
        </mxCell>
        <mxCell id="dXbRTEaJmiYvLK1mETrP-8" style="edgeStyle=none;rounded=0;orthogonalLoop=1;jettySize=auto;html=1;entryX=0;entryY=0.5;entryDx=0;entryDy=0;exitX=1;exitY=0.5;exitDx=0;exitDy=0;" edge="1" parent="1" source="dXbRTEaJmiYvLK1mETrP-9" target="dXbRTEaJmiYvLK1mETrP-15">
          <mxGeometry relative="1" as="geometry" />
        </mxCell>
        <mxCell id="dXbRTEaJmiYvLK1mETrP-9" value="&lt;div style=&quot;&quot;&gt;&lt;u style=&quot;font-size: 14px; background-color: initial;&quot;&gt;Lambda Function&lt;/u&gt;&lt;/div&gt;&lt;font style=&quot;font-size: 14px;&quot;&gt;&amp;nbsp; &amp;nbsp;&lt;b&gt;DeleteRequest&lt;/b&gt;&lt;/font&gt;" style="shape=process;whiteSpace=wrap;html=1;backgroundOutline=1;align=center;size=0.1111111111111111;" vertex="1" parent="1">
          <mxGeometry x="443" y="1430" width="180" height="50" as="geometry" />
        </mxCell>
        <mxCell id="dXbRTEaJmiYvLK1mETrP-10" value="" style="endArrow=none;html=1;rounded=0;entryX=0;entryY=0.5;entryDx=0;entryDy=0;exitX=1.015;exitY=0.535;exitDx=0;exitDy=0;exitPerimeter=0;" edge="1" parent="1" source="dXbRTEaJmiYvLK1mETrP-7" target="dXbRTEaJmiYvLK1mETrP-3">
          <mxGeometry width="50" height="50" relative="1" as="geometry">
            <mxPoint x="258" y="1200" as="sourcePoint" />
            <mxPoint x="308" y="1150" as="targetPoint" />
          </mxGeometry>
        </mxCell>
        <mxCell id="dXbRTEaJmiYvLK1mETrP-11" value="" style="endArrow=none;html=1;rounded=0;entryX=0;entryY=0.5;entryDx=0;entryDy=0;" edge="1" parent="1" source="dXbRTEaJmiYvLK1mETrP-7" target="dXbRTEaJmiYvLK1mETrP-5">
          <mxGeometry width="50" height="50" relative="1" as="geometry">
            <mxPoint x="578" y="1320" as="sourcePoint" />
            <mxPoint x="628" y="1270" as="targetPoint" />
          </mxGeometry>
        </mxCell>
        <mxCell id="dXbRTEaJmiYvLK1mETrP-12" value="" style="endArrow=none;html=1;rounded=0;entryX=0;entryY=0.5;entryDx=0;entryDy=0;exitX=1.004;exitY=0.635;exitDx=0;exitDy=0;exitPerimeter=0;" edge="1" parent="1" source="dXbRTEaJmiYvLK1mETrP-7" target="dXbRTEaJmiYvLK1mETrP-2">
          <mxGeometry width="50" height="50" relative="1" as="geometry">
            <mxPoint x="282" y="1207" as="sourcePoint" />
            <mxPoint x="453" y="1225" as="targetPoint" />
          </mxGeometry>
        </mxCell>
        <mxCell id="dXbRTEaJmiYvLK1mETrP-13" value="" style="endArrow=none;html=1;rounded=0;exitX=1;exitY=0.75;exitDx=0;exitDy=0;entryX=0;entryY=0.5;entryDx=0;entryDy=0;" edge="1" parent="1" source="dXbRTEaJmiYvLK1mETrP-7" target="dXbRTEaJmiYvLK1mETrP-6">
          <mxGeometry width="50" height="50" relative="1" as="geometry">
            <mxPoint x="292" y="1217" as="sourcePoint" />
            <mxPoint x="463" y="1235" as="targetPoint" />
          </mxGeometry>
        </mxCell>
        <mxCell id="dXbRTEaJmiYvLK1mETrP-14" value="" style="endArrow=none;html=1;rounded=0;entryX=0;entryY=0.5;entryDx=0;entryDy=0;exitX=0.993;exitY=0.867;exitDx=0;exitDy=0;exitPerimeter=0;" edge="1" parent="1" source="dXbRTEaJmiYvLK1mETrP-7" target="dXbRTEaJmiYvLK1mETrP-9">
          <mxGeometry width="50" height="50" relative="1" as="geometry">
            <mxPoint x="302" y="1227" as="sourcePoint" />
            <mxPoint x="473" y="1245" as="targetPoint" />
          </mxGeometry>
        </mxCell>
        <mxCell id="dXbRTEaJmiYvLK1mETrP-15" value="&lt;h1&gt;DynamoDB Table&lt;/h1&gt;&lt;br&gt;&lt;font style=&quot;font-size: 18px;&quot;&gt;Requests&lt;/font&gt;" style="rounded=1;whiteSpace=wrap;html=1;" vertex="1" parent="1">
          <mxGeometry x="828" y="1020" width="220" height="140" as="geometry" />
        </mxCell>
        <mxCell id="dXbRTEaJmiYvLK1mETrP-16" style="edgeStyle=none;rounded=0;orthogonalLoop=1;jettySize=auto;html=1;entryX=0;entryY=0.5;entryDx=0;entryDy=0;exitX=1;exitY=0.5;exitDx=0;exitDy=0;" edge="1" parent="1" source="dXbRTEaJmiYvLK1mETrP-3" target="dXbRTEaJmiYvLK1mETrP-15">
          <mxGeometry relative="1" as="geometry" />
        </mxCell>
        <mxCell id="dXbRTEaJmiYvLK1mETrP-17" style="edgeStyle=none;rounded=0;orthogonalLoop=1;jettySize=auto;html=1;entryX=0;entryY=0.5;entryDx=0;entryDy=0;exitX=1;exitY=0.5;exitDx=0;exitDy=0;" edge="1" parent="1" source="dXbRTEaJmiYvLK1mETrP-2" target="dXbRTEaJmiYvLK1mETrP-15">
          <mxGeometry relative="1" as="geometry" />
        </mxCell>
        <mxCell id="dXbRTEaJmiYvLK1mETrP-18" style="edgeStyle=none;rounded=0;orthogonalLoop=1;jettySize=auto;html=1;entryX=0;entryY=0.5;entryDx=0;entryDy=0;exitX=1;exitY=0.5;exitDx=0;exitDy=0;" edge="1" parent="1" source="dXbRTEaJmiYvLK1mETrP-6" target="dXbRTEaJmiYvLK1mETrP-15">
          <mxGeometry relative="1" as="geometry" />
        </mxCell>
      </root>
    </mxGraphModel>
  </diagram>
  <diagram name="Page-1" id="xlwghnfTMvNoclYJO2WT">
    <mxGraphModel grid="1" page="1" gridSize="10" guides="1" tooltips="1" connect="1" arrows="1" fold="1" pageScale="1" pageWidth="1100" pageHeight="850" math="0" shadow="0">
      <root>
        <mxCell id="0" />
        <mxCell id="1" parent="0" />
        <mxCell id="y6Yy2fcryvvN1v4NQENn-4" style="edgeStyle=orthogonalEdgeStyle;rounded=0;orthogonalLoop=1;jettySize=auto;html=1;exitX=0.5;exitY=1;exitDx=0;exitDy=0;entryX=0.5;entryY=0;entryDx=0;entryDy=0;" edge="1" parent="1" source="y6Yy2fcryvvN1v4NQENn-1" target="y6Yy2fcryvvN1v4NQENn-2">
          <mxGeometry relative="1" as="geometry" />
        </mxCell>
        <mxCell id="y6Yy2fcryvvN1v4NQENn-1" value="&lt;font style=&quot;font-size: 12px;&quot;&gt;Start&lt;/font&gt;" style="ellipse;whiteSpace=wrap;html=1;aspect=fixed;" vertex="1" parent="1">
          <mxGeometry x="585" y="80" width="70" height="70" as="geometry" />
        </mxCell>
        <mxCell id="EfBonmyaZj2rU3wb9EvI-5" style="edgeStyle=none;rounded=0;orthogonalLoop=1;jettySize=auto;html=1;exitX=0.5;exitY=1;exitDx=0;exitDy=0;entryX=0.5;entryY=0;entryDx=0;entryDy=0;" edge="1" parent="1" source="y6Yy2fcryvvN1v4NQENn-2" target="y6Yy2fcryvvN1v4NQENn-6">
          <mxGeometry relative="1" as="geometry" />
        </mxCell>
        <mxCell id="EfBonmyaZj2rU3wb9EvI-9" value="New Request" style="edgeLabel;html=1;align=center;verticalAlign=middle;resizable=0;points=[];" connectable="0" vertex="1" parent="EfBonmyaZj2rU3wb9EvI-5">
          <mxGeometry x="0.029" y="-1" relative="1" as="geometry">
            <mxPoint as="offset" />
          </mxGeometry>
        </mxCell>
        <mxCell id="EfBonmyaZj2rU3wb9EvI-11" style="edgeStyle=none;rounded=0;orthogonalLoop=1;jettySize=auto;html=1;entryX=0.5;entryY=0;entryDx=0;entryDy=0;exitX=0.5;exitY=1;exitDx=0;exitDy=0;" edge="1" parent="1" source="y6Yy2fcryvvN1v4NQENn-2" target="EfBonmyaZj2rU3wb9EvI-10">
          <mxGeometry relative="1" as="geometry" />
        </mxCell>
        <mxCell id="EfBonmyaZj2rU3wb9EvI-12" value="Existing User Request" style="edgeLabel;html=1;align=center;verticalAlign=middle;resizable=0;points=[];" connectable="0" vertex="1" parent="EfBonmyaZj2rU3wb9EvI-11">
          <mxGeometry x="-0.1411" y="-2" relative="1" as="geometry">
            <mxPoint as="offset" />
          </mxGeometry>
        </mxCell>
        <mxCell id="y6Yy2fcryvvN1v4NQENn-2" value="&lt;u&gt;Lambda Invoke&lt;/u&gt;&lt;br&gt;Process User Request" style="shape=process;whiteSpace=wrap;html=1;backgroundOutline=1;" vertex="1" parent="1">
          <mxGeometry x="540" y="200" width="160" height="60" as="geometry" />
        </mxCell>
        <mxCell id="y6Yy2fcryvvN1v4NQENn-5" value="&lt;b&gt;Note&lt;/b&gt;: Request validation performed before invoking this API.&lt;br&gt;That means only validated user request is sent to &#39;Request Handler Service&#39;" style="text;html=1;strokeColor=none;fillColor=none;align=center;verticalAlign=middle;whiteSpace=wrap;rounded=0;" vertex="1" parent="1">
          <mxGeometry x="810" y="70" width="220" height="80" as="geometry" />
        </mxCell>
        <mxCell id="EfBonmyaZj2rU3wb9EvI-8" style="edgeStyle=none;rounded=0;orthogonalLoop=1;jettySize=auto;html=1;entryX=0.5;entryY=0;entryDx=0;entryDy=0;" edge="1" parent="1" source="y6Yy2fcryvvN1v4NQENn-6" target="k5ayjtno3B4wAsfzsj8G-1">
          <mxGeometry relative="1" as="geometry" />
        </mxCell>
        <mxCell id="y6Yy2fcryvvN1v4NQENn-6" value="&lt;u&gt;DB Put&lt;/u&gt;&lt;br&gt;Register User Request in DB" style="shape=process;whiteSpace=wrap;html=1;backgroundOutline=1;" vertex="1" parent="1">
          <mxGeometry x="365" y="320" width="160" height="60" as="geometry" />
        </mxCell>
        <mxCell id="y6Yy2fcryvvN1v4NQENn-7" value="&lt;font style=&quot;font-size: 18px;&quot;&gt;Request Service Flow&lt;/font&gt;" style="text;html=1;strokeColor=none;fillColor=none;align=center;verticalAlign=middle;whiteSpace=wrap;rounded=0;fontStyle=1" vertex="1" parent="1">
          <mxGeometry x="480" y="10" width="260" height="30" as="geometry" />
        </mxCell>
        <mxCell id="k5ayjtno3B4wAsfzsj8G-5" style="edgeStyle=orthogonalEdgeStyle;rounded=0;orthogonalLoop=1;jettySize=auto;html=1;" edge="1" parent="1" source="k5ayjtno3B4wAsfzsj8G-1" target="k5ayjtno3B4wAsfzsj8G-2">
          <mxGeometry relative="1" as="geometry" />
        </mxCell>
        <mxCell id="k5ayjtno3B4wAsfzsj8G-7" value="Yes" style="edgeLabel;html=1;align=center;verticalAlign=middle;resizable=0;points=[];" connectable="0" vertex="1" parent="k5ayjtno3B4wAsfzsj8G-5">
          <mxGeometry x="-0.2286" y="1" relative="1" as="geometry">
            <mxPoint as="offset" />
          </mxGeometry>
        </mxCell>
        <mxCell id="k5ayjtno3B4wAsfzsj8G-6" style="edgeStyle=orthogonalEdgeStyle;rounded=0;orthogonalLoop=1;jettySize=auto;html=1;" edge="1" parent="1" source="k5ayjtno3B4wAsfzsj8G-1" target="k5ayjtno3B4wAsfzsj8G-4">
          <mxGeometry relative="1" as="geometry" />
        </mxCell>
        <mxCell id="k5ayjtno3B4wAsfzsj8G-8" value="Yes" style="edgeLabel;html=1;align=center;verticalAlign=middle;resizable=0;points=[];" connectable="0" vertex="1" parent="k5ayjtno3B4wAsfzsj8G-6">
          <mxGeometry x="-0.6114" y="-1" relative="1" as="geometry">
            <mxPoint as="offset" />
          </mxGeometry>
        </mxCell>
        <mxCell id="k5ayjtno3B4wAsfzsj8G-9" style="edgeStyle=orthogonalEdgeStyle;rounded=0;orthogonalLoop=1;jettySize=auto;html=1;entryX=0.5;entryY=0;entryDx=0;entryDy=0;" edge="1" parent="1" target="k5ayjtno3B4wAsfzsj8G-3">
          <mxGeometry relative="1" as="geometry">
            <mxPoint x="500" y="460" as="sourcePoint" />
          </mxGeometry>
        </mxCell>
        <mxCell id="k5ayjtno3B4wAsfzsj8G-1" value="&lt;u&gt;Choice State&lt;/u&gt;&lt;br&gt;User Request Registration Successful?" style="rhombus;whiteSpace=wrap;html=1;" vertex="1" parent="1">
          <mxGeometry x="360" y="420" width="170" height="80" as="geometry" />
        </mxCell>
        <mxCell id="EfBonmyaZj2rU3wb9EvI-2" style="edgeStyle=none;rounded=0;orthogonalLoop=1;jettySize=auto;html=1;entryX=0;entryY=0.5;entryDx=0;entryDy=0;" edge="1" parent="1" source="k5ayjtno3B4wAsfzsj8G-2" target="EfBonmyaZj2rU3wb9EvI-1">
          <mxGeometry relative="1" as="geometry">
            <mxPoint x="120" y="800" as="targetPoint" />
            <Array as="points">
              <mxPoint x="120" y="780" />
            </Array>
          </mxGeometry>
        </mxCell>
        <mxCell id="k5ayjtno3B4wAsfzsj8G-2" value="&lt;u&gt;SNS Publish&lt;/u&gt;&lt;br&gt;Send Successful Notification (Email/SMS) with Request ID" style="shape=process;whiteSpace=wrap;html=1;backgroundOutline=1;" vertex="1" parent="1">
          <mxGeometry x="10" y="580" width="220" height="60" as="geometry" />
        </mxCell>
        <mxCell id="EfBonmyaZj2rU3wb9EvI-4" style="edgeStyle=none;rounded=0;orthogonalLoop=1;jettySize=auto;html=1;entryX=1;entryY=0.5;entryDx=0;entryDy=0;" edge="1" parent="1" source="k5ayjtno3B4wAsfzsj8G-3">
          <mxGeometry relative="1" as="geometry">
            <mxPoint x="525" y="780" as="targetPoint" />
            <Array as="points">
              <mxPoint x="670" y="780" />
            </Array>
          </mxGeometry>
        </mxCell>
        <mxCell id="k5ayjtno3B4wAsfzsj8G-3" value="&lt;u&gt;SNS Publish&lt;/u&gt;&lt;br&gt;Send Failed Registration Message to User (Email/SMS)" style="shape=process;whiteSpace=wrap;html=1;backgroundOutline=1;" vertex="1" parent="1">
          <mxGeometry x="560" y="580" width="220" height="60" as="geometry" />
        </mxCell>
        <mxCell id="EfBonmyaZj2rU3wb9EvI-3" style="edgeStyle=none;rounded=0;orthogonalLoop=1;jettySize=auto;html=1;entryX=0;entryY=0.5;entryDx=0;entryDy=0;" edge="1" parent="1" source="k5ayjtno3B4wAsfzsj8G-4" target="EfBonmyaZj2rU3wb9EvI-1">
          <mxGeometry relative="1" as="geometry">
            <mxPoint x="400" y="780" as="targetPoint" />
            <Array as="points">
              <mxPoint x="400" y="780" />
            </Array>
          </mxGeometry>
        </mxCell>
        <mxCell id="k5ayjtno3B4wAsfzsj8G-4" value="&lt;u&gt;SNS Publish / Lambda Invoke&lt;/u&gt;&lt;br&gt;Send New User Notification to Volunteer Service" style="shape=process;whiteSpace=wrap;html=1;backgroundOutline=1;" vertex="1" parent="1">
          <mxGeometry x="290" y="580" width="220" height="60" as="geometry" />
        </mxCell>
        <mxCell id="EfBonmyaZj2rU3wb9EvI-1" value="End" style="ellipse;whiteSpace=wrap;html=1;aspect=fixed;" vertex="1" parent="1">
          <mxGeometry x="475" y="740" width="80" height="80" as="geometry" />
        </mxCell>
        <mxCell id="EfBonmyaZj2rU3wb9EvI-10" value="&lt;u&gt;DB Put&lt;/u&gt;&lt;br&gt;Update User Request in DB" style="shape=process;whiteSpace=wrap;html=1;backgroundOutline=1;" vertex="1" parent="1">
          <mxGeometry x="810" y="320" width="160" height="60" as="geometry" />
        </mxCell>
        <mxCell id="EfBonmyaZj2rU3wb9EvI-16" style="edgeStyle=none;rounded=0;orthogonalLoop=1;jettySize=auto;html=1;entryX=1;entryY=0.5;entryDx=0;entryDy=0;" edge="1" parent="1" source="EfBonmyaZj2rU3wb9EvI-14" target="EfBonmyaZj2rU3wb9EvI-1">
          <mxGeometry relative="1" as="geometry">
            <Array as="points">
              <mxPoint x="930" y="780" />
            </Array>
          </mxGeometry>
        </mxCell>
        <mxCell id="EfBonmyaZj2rU3wb9EvI-14" value="&lt;u&gt;SNS Publish&lt;/u&gt;&lt;br&gt;Send Request Complete Notification (email/SMS) with Request ID" style="shape=process;whiteSpace=wrap;html=1;backgroundOutline=1;" vertex="1" parent="1">
          <mxGeometry x="820" y="450" width="220" height="60" as="geometry" />
        </mxCell>
        <mxCell id="EfBonmyaZj2rU3wb9EvI-15" style="edgeStyle=none;rounded=0;orthogonalLoop=1;jettySize=auto;html=1;entryX=0.541;entryY=0.045;entryDx=0;entryDy=0;entryPerimeter=0;" edge="1" parent="1" source="EfBonmyaZj2rU3wb9EvI-10" target="EfBonmyaZj2rU3wb9EvI-14">
          <mxGeometry relative="1" as="geometry" />
        </mxCell>
        <mxCell id="1l56bsWv_ON5DiwJg8ON-1" value="Note: This API will be called by 2 modules - User and Volunteer&lt;br&gt;RequestID for new request will be null&lt;br&gt;RequestID will be valid ID when volunteer module call the API to update" style="text;html=1;strokeColor=none;fillColor=none;align=center;verticalAlign=middle;whiteSpace=wrap;rounded=0;" vertex="1" parent="1">
          <mxGeometry x="810" y="160" width="260" height="90" as="geometry" />
        </mxCell>
      </root>
    </mxGraphModel>
  </diagram>
  <diagram id="p9gC80LeAZWd5OYk9k-z" name="Page-6">
    <mxGraphModel grid="1" page="1" gridSize="10" guides="1" tooltips="1" connect="1" arrows="1" fold="1" pageScale="1" pageWidth="1700" pageHeight="1100" math="0" shadow="0">
      <root>
        <mxCell id="0" />
        <mxCell id="1" parent="0" />
        <mxCell id="aKMoveZDeScHaO5WuhP8-1" value="" style="endArrow=classic;html=1;rounded=0;fontSize=11;" edge="1" parent="1">
          <mxGeometry width="50" height="50" relative="1" as="geometry">
            <mxPoint x="100" y="90" as="sourcePoint" />
            <mxPoint x="100" y="130" as="targetPoint" />
            <Array as="points">
              <mxPoint x="120" y="90" />
              <mxPoint x="120" y="110" />
              <mxPoint x="120" y="130" />
            </Array>
          </mxGeometry>
        </mxCell>
        <mxCell id="aKMoveZDeScHaO5WuhP8-2" value="" style="endArrow=classic;html=1;rounded=0;fontSize=11;" edge="1" parent="1">
          <mxGeometry width="50" height="50" relative="1" as="geometry">
            <mxPoint x="120" y="210" as="sourcePoint" />
            <mxPoint x="120" y="250" as="targetPoint" />
            <Array as="points">
              <mxPoint x="140" y="210" />
              <mxPoint x="140" y="230" />
              <mxPoint x="140" y="250" />
            </Array>
          </mxGeometry>
        </mxCell>
        <mxCell id="aKMoveZDeScHaO5WuhP8-3" value="" style="endArrow=classic;html=1;rounded=0;fontSize=11;" edge="1" parent="1">
          <mxGeometry width="50" height="50" relative="1" as="geometry">
            <mxPoint x="120" y="270" as="sourcePoint" />
            <mxPoint x="120" y="310" as="targetPoint" />
            <Array as="points">
              <mxPoint x="140" y="270" />
              <mxPoint x="140" y="290" />
              <mxPoint x="140" y="310" />
            </Array>
          </mxGeometry>
        </mxCell>
        <mxCell id="aKMoveZDeScHaO5WuhP8-4" value="" style="endArrow=classic;html=1;rounded=0;fontSize=11;" edge="1" parent="1">
          <mxGeometry width="50" height="50" relative="1" as="geometry">
            <mxPoint x="130" y="150" as="sourcePoint" />
            <mxPoint x="130" y="190" as="targetPoint" />
            <Array as="points">
              <mxPoint x="150" y="150" />
              <mxPoint x="150" y="170" />
              <mxPoint x="150" y="190" />
            </Array>
          </mxGeometry>
        </mxCell>
        <mxCell id="aKMoveZDeScHaO5WuhP8-5" value="" style="endArrow=classic;html=1;rounded=0;fontSize=11;" edge="1" parent="1">
          <mxGeometry width="50" height="50" relative="1" as="geometry">
            <mxPoint x="180" y="90" as="sourcePoint" />
            <mxPoint x="180" y="110" as="targetPoint" />
            <Array as="points">
              <mxPoint x="210" y="90" />
              <mxPoint x="210" y="110" />
            </Array>
          </mxGeometry>
        </mxCell>
        <mxCell id="aKMoveZDeScHaO5WuhP8-6" value="" style="endArrow=classic;html=1;rounded=0;fontSize=11;" edge="1" parent="1">
          <mxGeometry width="50" height="50" relative="1" as="geometry">
            <mxPoint x="190" y="100" as="sourcePoint" />
            <mxPoint x="190" y="120" as="targetPoint" />
            <Array as="points">
              <mxPoint x="220" y="100" />
              <mxPoint x="220" y="120" />
            </Array>
          </mxGeometry>
        </mxCell>
        <mxCell id="aKMoveZDeScHaO5WuhP8-7" value="" style="endArrow=classic;html=1;rounded=0;fontSize=11;" edge="1" parent="1">
          <mxGeometry width="50" height="50" relative="1" as="geometry">
            <mxPoint x="260" y="90" as="sourcePoint" />
            <mxPoint x="260" y="110" as="targetPoint" />
            <Array as="points">
              <mxPoint x="290" y="90" />
              <mxPoint x="290" y="110" />
            </Array>
          </mxGeometry>
        </mxCell>
        <mxCell id="aKMoveZDeScHaO5WuhP8-8" value="" style="endArrow=classic;html=1;rounded=0;fontSize=11;" edge="1" parent="1">
          <mxGeometry width="50" height="50" relative="1" as="geometry">
            <mxPoint x="270" y="120" as="sourcePoint" />
            <mxPoint x="270" y="140" as="targetPoint" />
            <Array as="points">
              <mxPoint x="300" y="120" />
              <mxPoint x="300" y="140" />
            </Array>
          </mxGeometry>
        </mxCell>
        <mxCell id="aKMoveZDeScHaO5WuhP8-9" value="" style="endArrow=classic;html=1;rounded=0;fontSize=11;" edge="1" parent="1">
          <mxGeometry width="50" height="50" relative="1" as="geometry">
            <mxPoint x="220" y="220" as="sourcePoint" />
            <mxPoint x="220" y="240" as="targetPoint" />
            <Array as="points">
              <mxPoint x="250" y="220" />
              <mxPoint x="250" y="240" />
            </Array>
          </mxGeometry>
        </mxCell>
        <mxCell id="aKMoveZDeScHaO5WuhP8-10" value="" style="endArrow=classic;html=1;rounded=0;fontSize=11;" edge="1" parent="1">
          <mxGeometry width="50" height="50" relative="1" as="geometry">
            <mxPoint x="290" y="160" as="sourcePoint" />
            <mxPoint x="290" y="180" as="targetPoint" />
            <Array as="points">
              <mxPoint x="320" y="160" />
              <mxPoint x="320" y="180" />
            </Array>
          </mxGeometry>
        </mxCell>
        <mxCell id="h8KUBuUCwjA5k9lkSDIM-1" value="" style="endArrow=classic;html=1;rounded=0;fontSize=11;" edge="1" parent="1">
          <mxGeometry width="50" height="50" relative="1" as="geometry">
            <mxPoint x="310" y="100" as="sourcePoint" />
            <mxPoint x="310" y="120" as="targetPoint" />
            <Array as="points">
              <mxPoint x="340" y="100" />
              <mxPoint x="340" y="120" />
            </Array>
          </mxGeometry>
        </mxCell>
        <mxCell id="h8KUBuUCwjA5k9lkSDIM-2" value="" style="endArrow=classic;html=1;rounded=0;fontSize=11;" edge="1" parent="1">
          <mxGeometry width="50" height="50" relative="1" as="geometry">
            <mxPoint x="340" y="130" as="sourcePoint" />
            <mxPoint x="340" y="150" as="targetPoint" />
            <Array as="points">
              <mxPoint x="370" y="130" />
              <mxPoint x="370" y="150" />
            </Array>
          </mxGeometry>
        </mxCell>
        <mxCell id="h8KUBuUCwjA5k9lkSDIM-3" value="" style="endArrow=classic;html=1;rounded=0;fontSize=11;" edge="1" parent="1">
          <mxGeometry width="50" height="50" relative="1" as="geometry">
            <mxPoint x="370" y="170" as="sourcePoint" />
            <mxPoint x="370" y="190" as="targetPoint" />
            <Array as="points">
              <mxPoint x="400" y="170" />
              <mxPoint x="400" y="190" />
            </Array>
          </mxGeometry>
        </mxCell>
      </root>
    </mxGraphModel>
  </diagram>
</mxfile>
